P3
64 64
255
65 105 225
65 105 225
65 105 225
65 105 225
65 105 225
65 105 225
76 76 76
87 87 87
141 141 141
134 134 134
119 119 119
137 137 137
173 173 173
173 173 173
162 162 162
218 194 155
173 173 173
218 194 155
218 194 155
173 173 173
218 194 155
218 194 155
218 194 155
218 194 155
218 194 155
218 194 155
218 194 155
218 194 155
218 194 155
218 194 155
218 194 155
238 214 175
238 214 175
238 214 175
238 214 175
238 214 175
238 214 175
238 214 175
238 214 175
238 214 175
177 177 177
218 194 155
218 194 155
177 177 177
166 166 166
152 152 152
126 126 126
137 137 137
44 44 44
0 0 0
0 0 0
0 0 0
0 0 0
0 0 0
0 0 0
0 0 0
0 0 0
0 0 0
0 0 0
0 0 0
0 0 0
0 0 0
0 0 0
0 0 0
65 105 225
65 105 225
65 105 225
65 105 225
65 105 225
65 105 225
65 105 225
65 65 65
101 101 101
108 108 108
108 108 108
159 159 159
162 162 162
177 177 177
162 162 162
177 177 177
238 214 175
238 214 175
238 214 175
218 194 155
173 173 173
218 194 155
218 194 155
218 194 155
218 194 155
218 194 155
218 194 155
218 194 155
218 194 155
218 194 155
218 194 155
238 214 175
238 214 175
238 214 175
238 214 175
238 214 175
238 214 175
238 214 175
238 214 175
238 214 175
238 214 175
173 173 173
177 177 177
162 162 162
166 166 166
134 134 134
159 159 159
98 98 98
22 22 22
0 0 0
0 0 0
0 0 0
0 0 0
0 0 0
0 0 0
0 0 0
0 0 0
0 0 0
0 0 0
0 0 0
0 0 0
0 0 0
0 0 0
0 0 0
65 105 225
65 105 225
65 105 225
65 105 225
65 105 225
65 105 225
65 105 225
62 62 62
51 51 51
130 130 130
116 116 116
152 152 152
152 152 152
162 162 162
173 173 173
173 173 173
177 177 177
238 214 175
238 214 175
238 214 175
218 194 155
218 194 155
218 194 155
177 177 177
218 194 155
218 194 155
218 194 155
218 194 155
218 194 155
218 194 155
238 214 175
238 214 175
238 214 175
238 214 175
238 214 175
238 214 175
238 214 175
238 214 175
238 214 175
177 177 177
238 214 175
238 214 175
218 194 155
177 177 177
170 170 170
162 162 162
144 144 144
130 130 130
11 11 11
0 0 0
0 0 0
0 0 0
0 0 0
0 0 0
0 0 0
0 0 0
0 0 0
0 0 0
0 0 0
0 0 0
0 0 0
0 0 0
0 0 0
0 0 0
65 105 225
65 105 225
65 105 225
65 105 225
65 105 225
65 105 225
65 105 225
101 101 101
36 36 36
112 112 112
116 116 116
144 144 144
152 152 152
166 166 166
170 170 170
173 173 173
177 177 177
173 173 173
238 214 175
238 214 175
238 214 175
218 194 155
218 194 155
218 194 155
218 194 155
218 194 155
218 194 155
218 194 155
218 194 155
238 214 175
238 214 175
238 214 175
238 214 175
238 214 175
238 214 175
238 214 175
238 214 175
238 214 175
238 214 175
238 214 175
238 214 175
173 173 173
218 194 155
166 166 166
166 166 166
152 152 152
144 144 144
101 101 101
0 0 0
0 0 0
65 105 225
65 105 225
65 105 225
0 0 0
0 0 0
0 0 0
0 0 0
0 0 0
0 0 0
0 0 0
0 0 0
0 0 0
0 0 0
0 0 0
65 105 225
65 105 225
65 105 225
65 105 225
65 105 225
65 105 225
65 105 225
65 105 225
36 36 36
87 87 87
130 130 130
144 144 144
155 155 155
144 144 144
173 173 173
166 166 166
238 214 175
238 214 175
177 177 177
238 214 175
238 214 175
177 177 177
238 214 175
218 194 155
218 194 155
218 194 155
218 194 155
218 194 155
238 214 175
238 214 175
238 214 175
238 214 175
238 214 175
238 214 175
238 214 175
238 214 175
238 214 175
238 214 175
238 214 175
238 214 175
238 214 175
177 177 177
177 177 177
218 194 155
177 177 177
166 166 166
152 152 152
134 134 134
62 62 62
65 105 225
65 105 225
65 105 225
65 105 225
65 105 225
65 105 225
0 0 0
0 0 0
0 0 0
0 0 0
0 0 0
0 0 0
0 0 0
0 0 0
0 0 0
65 105 225
65 105 225
65 105 225
65 105 225
65 105 225
65 105 225
65 105 225
65 105 225
33 33 33
101 101 101
123 123 123
148 148 148
144 144 144
162 162 162
173 173 173
177 177 177
166 166 166
177 177 177
177 177 177
173 173 173
238 214 175
238 214 175
238 214 175
238 214 175
238 214 175
238 214 175
238 214 175
238 214 175
238 214 175
238 214 175
238 214 175
238 214 175
238 214 175
177 177 177
238 214 175
238 214 175
238 214 175
238 214 175
238 214 175
238 214 175
177 177 177
238 214 175
170 170 170
173 173 173
173 173 173
162 162 162
155 155 155
123 123 123
65 105 225
65 105 225
65 105 225
65 105 225
65 105 225
65 105 225
65 105 225
65 105 225
0 0 0
0 0 0
0 0 0
0 0 0
0 0 0
0 0 0
0 0 0
0 0 0
65 105 225
65 105 225
65 105 225
65 105 225
65 105 225
65 105 225
65 105 225
65 105 225
87 87 87
112 112 112
105 105 105
159 159 159
159 159 159
159 159 159
177 177 177
173 173 173
166 166 166
173 173 173
238 214 175
238 214 175
177 177 177
238 214 175
238 214 175
238 214 175
238 214 175
238 214 175
238 214 175
238 214 175
238 214 175
238 214 175
238 214 175
238 214 175
238 214 175
238 214 175
238 214 175
238 214 175
177 177 177
238 214 175
238 214 175
238 214 175
238 214 175
238 214 175
173 173 173
177 177 177
166 166 166
166 166 166
137 137 137
108 108 108
65 105 225
65 105 225
65 105 225
65 105 225
65 105 225
65 105 225
65 105 225
65 105 225
65 105 225
0 0 0
0 0 0
0 0 0
0 0 0
0 0 0
0 0 0
0 0 0
65 105 225
65 105 225
65 105 225
65 105 225
65 105 225
65 105 225
65 105 225
65 105 225
83 83 83
105 105 105
130 130 130
152 152 152
166 166 166
159 159 159
166 166 166
170 170 170
238 214 175
238 214 175
177 177 177
177 177 177
238 214 175
238 214 175
238 214 175
238 214 175
238 214 175
238 214 175
238 214 175
238 214 175
238 214 175
238 214 175
238 214 175
238 214 175
238 214 175
238 214 175
238 214 175
238 214 175
238 214 175
238 214 175
238 214 175
177 177 177
238 214 175
238 214 175
218 194 155
218 194 155
170 170 170
166 166 166
137 137 137
65 105 225
65 105 225
65 105 225
65 105 225
65 105 225
65 105 225
65 105 225
65 105 225
65 105 225
65 105 225
65 105 225
0 0 0
0 0 0
0 0 0
0 0 0
0 0 0
0 0 0
65 105 225
65 105 225
65 105 225
65 105 225
65 105 225
65 105 225
65 105 225
65 105 225
134 134 134
134 134 134
155 155 155
134 134 134
166 166 166
159 159 159
177 177 177
177 177 177
177 177 177
177 177 177
238 214 175
238 214 175
238 214 175
238 214 175
177 177 177
238 214 175
238 214 175
238 214 175
238 214 175
238 214 175
238 214 175
238 214 175
238 214 175
238 214 175
238 214 175
238 214 175
238 214 175
177 177 177
238 214 175
238 214 175
238 214 175
238 214 175
238 214 175
218 194 155
173 173 173
177 177 177
166 166 166
166 166 166
173 173 173
65 105 225
65 105 225
65 105 225
65 105 225
65 105 225
65 105 225
65 105 225
65 105 225
65 105 225
65 105 225
65 105 225
65 105 225
0 0 0
0 0 0
0 0 0
0 0 0
0 0 0
65 105 225
65 105 225
65 105 225
65 105 225
65 105 225
65 105 225
65 105 225
65 105 225
83 83 83
134 134 134
137 137 137
126 126 126
152 152 152
177 177 177
177 177 177
166 166 166
238 214 175
238 214 175
177 177 177
177 177 177
238 214 175
177 177 177
238 214 175
238 214 175
238 214 175
238 214 175
238 214 175
238 214 175
238 214 175
238 214 175
238 214 175
238 214 175
238 214 175
238 214 175
238 214 175
238 214 175
238 214 175
238 214 175
238 214 175
238 214 175
238 214 175
218 194 155
177 177 177
177 177 177
173 173 173
166 166 166
166 166 166
65 105 225
65 105 225
65 105 225
65 105 225
65 105 225
65 105 225
65 105 225
65 105 225
65 105 225
65 105 225
65 105 225
65 105 225
65 105 225
0 0 0
0 0 0
0 0 0
0 0 0
65 105 225
65 105 225
65 105 225
65 105 225
65 105 225
65 105 225
65 105 225
65 105 225
134 134 134
119 119 119
148 148 148
148 148 148
170 170 170
162 162 162
238 214 175
177 177 177
173 173 173
238 214 175
177 177 177
238 214 175
238 214 175
238 214 175
238 214 175
238 214 175
238 214 175
238 214 175
238 214 175
238 214 175
238 214 175
238 214 175
238 214 175
238 214 175
238 214 175
238 214 175
238 214 175
238 214 175
238 214 175
238 214 175
238 214 175
238 214 175
238 214 175
218 194 155
177 177 177
177 177 177
166 166 166
173 173 173
65 105 225
65 105 225
65 105 225
65 105 225
65 105 225
65 105 225
65 105 225
65 105 225
65 105 225
65 105 225
65 105 225
65 105 225
65 105 225
65 105 225
65 105 225
0 0 0
0 0 0
0 0 0
65 105 225
65 105 225
65 105 225
65 105 225
65 105 225
65 105 225
65 105 225
65 105 225
65 105 225
116 116 116
155 155 155
141 141 141
159 159 159
166 166 166
173 173 173
177 177 177
177 177 177
173 173 173
238 214 175
238 214 175
238 214 175
238 214 175
238 214 175
238 214 175
238 214 175
238 214 175
238 214 175
238 214 175
238 214 175
238 214 175
238 214 175
238 214 175
238 214 175
238 214 175
238 214 175
238 214 175
238 214 175
238 214 175
238 214 175
238 214 175
177 177 177
177 177 177
218 194 155
173 173 173
173 173 173
170 170 170
65 105 225
65 105 225
65 105 225
65 105 225
65 105 225
65 105 225
65 105 225
65 105 225
65 105 225
65 105 225
65 105 225
65 105 225
65 105 225
65 105 225
65 105 225
0 0 0
0 0 0
0 0 0
65 105 225
65 105 225
65 105 225
65 105 225
65 105 225
65 105 225
65 105 225
65 105 225
65 105 225
119 119 119
130 130 130
170 170 170
177 177 177
177 177 177
170 170 170
177 177 177
177 177 177
238 214 175
238 214 175
238 214 175
177 177 177
177 177 177
238 214 175
238 214 175
238 214 175
238 214 175
238 214 175
238 214 175
238 214 175
238 214 175
238 214 175
238 214 175
238 214 175
177 177 177
238 214 175
238 214 175
238 214 175
238 214 175
238 214 175
238 214 175
238 214 175
218 194 155
177 177 177
177 177 177
173 173 173
162 162 162
65 105 225
65 105 225
65 105 225
65 105 225
65 105 225
65 105 225
65 105 225
65 105 225
65 105 225
65 105 225
65 105 225
65 105 225
65 105 225
65 105 225
65 105 225
0 0 0
0 0 0
0 0 0
65 105 225
65 105 225
65 105 225
65 105 225
65 105 225
65 105 225
65 105 225
65 105 225
65 105 225
116 116 116
159 159 159
155 155 155
170 170 170
170 170 170
166 166 166
177 177 177
238 214 175
177 177 177
238 214 175
238 214 175
238 214 175
238 214 175
238 214 175
238 214 175
238 214 175
238 214 175
238 214 175
238 214 175
238 214 175
238 214 175
238 214 175
238 214 175
238 214 175
238 214 175
238 214 175
238 214 175
238 214 175
238 214 175
238 214 175
238 214 175
238 214 175
177 177 177
177 177 177
177 177 177
173 173 173
148 148 148
159 159 159
65 105 225
65 105 225
65 105 225
65 105 225
65 105 225
65 105 225
65 105 225
65 105 225
65 105 225
65 105 225
65 105 225
65 105 225
65 105 225
65 105 225
0 0 0
0 0 0
0 0 0
65 105 225
65 105 225
65 105 225
65 105 225
65 105 225
65 105 225
65 105 225
65 105 225
65 105 225
141 141 141
152 152 152
170 170 170
155 155 155
177 177 177
177 177 177
177 177 177
238 214 175
177 177 177
238 214 175
238 214 175
177 177 177
238 214 175
238 214 175
238 214 175
238 214 175
238 214 175
238 214 175
238 214 175
238 214 175
238 214 175
238 214 175
238 214 175
238 214 175
238 214 175
238 214 175
238 214 175
238 214 175
238 214 175
238 214 175
177 177 177
177 177 177
218 194 155
218 194 155
166 166 166
173 173 173
173 173 173
162 162 162
65 105 225
65 105 225
65 105 225
65 105 225
65 105 225
65 105 225
65 105 225
65 105 225
65 105 225
65 105 225
65 105 225
65 105 225
65 105 225
65 105 225
0 0 0
0 0 0
0 0 0
65 105 225
65 105 225
65 105 225
65 105 225
65 105 225
65 105 225
65 105 225
65 105 225
65 105 225
159 159 159
170 170 170
159 159 159
198 174 135
218 194 155
218 194 155
173 173 173
218 194 155
238 214 175
177 177 177
173 173 173
238 214 175
238 214 175
238 214 175
238 214 175
238 214 175
238 214 175
238 214 175
238 214 175
238 214 175
238 214 175
238 214 175
238 214 175
177 177 177
238 214 175
238 214 175
238 214 175
238 214 175
238 214 175
238 214 175
238 214 175
177 177 177
173 173 173
218 194 155
173 173 173
170 170 170
170 170 170
159 159 159
65 105 225
65 105 225
65 105 225
65 105 225
65 105 225
65 105 225
65 105 225
65 105 225
65 105 225
65 105 225
65 105 225
65 105 225
65 105 225
65 105 225
0 0 0
0 0 0
0 0 0
65 105 225
65 105 225
65 105 225
65 105 225
65 105 225
65 105 225
65 105 225
65 105 225
65 105 225
166 166 166
162 162 162
170 170 170
177 177 177
177 177 177
173 173 173
173 173 173
177 177 177
218 194 155
177 177 177
238 214 175
238 214 175
238 214 175
238 214 175
238 214 175
238 214 175
238 214 175
238 214 175
238 214 175
238 214 175
238 214 175
238 214 175
238 214 175
238 214 175
238 214 175
238 214 175
238 214 175
238 214 175
238 214 175
177 177 177
177 177 177
177 177 177
177 177 177
177 177 177
177 177 177
170 170 170
170 170 170
152 152 152
152 152 152
65 105 225
65 105 225
65 105 225
65 105 225
65 105 225
65 105 225
65 105 225
65 105 225
65 105 225
65 105 225
65 105 225
65 105 225
0 0 0
0 0 0
0 0 0
0 0 0
65 105 225
65 105 225
65 105 225
65 105 225
65 105 225
65 105 225
65 105 225
65 105 225
65 105 225
159 159 159
198 174 135
173 173 173
177 177 177
177 177 177
177 177 177
218 194 155
218 194 155
218 194 155
218 194 155
173 173 173
218 194 155
218 194 155
238 214 175
238 214 175
238 214 175
238 214 175
238 214 175
238 214 175
238 214 175
238 214 175
238 214 175
238 214 175
238 214 175
238 214 175
238 214 175
238 214 175
238 214 175
238 214 175
177 177 177
173 173 173
238 214 175
177 177 177
170 170 170
170 170 170
170 170 170
166 166 166
170 170 170
137 137 137
152 152 152
65 105 225
65 105 225
65 105 225
65 105 225
65 105 225
65 105 225
65 105 225
65 105 225
65 105 225
65 105 225
0 0 0
0 0 0
0 0 0
0 0 0
0 0 0
65 105 225
65 105 225
65 105 225
65 105 225
65 105 225
65 105 225
65 105 225
65 105 225
65 105 225
177 177 177
177 177 177
173 173 173
198 174 135
173 173 173
177 177 177
177 177 177
177 177 177
173 173 173
218 194 155
218 194 155
177 177 177
177 177 177
218 194 155
238 214 175
238 214 175
238 214 175
238 214 175
238 214 175
238 214 175
238 214 175
238 214 175
238 214 175
238 214 175
238 214 175
238 214 175
238 214 175
238 214 175
238 214 175
177 177 177
238 214 175
238 214 175
218 194 155
218 194 155
177 177 177
170 170 170
162 162 162
152 152 152
155 155 155
90 90 90
123 123 123
98 98 98
65 105 225
65 105 225
65 105 225
65 105 225
65 105 225
65 105 225
65 105 225
0 0 0
0 0 0
0 0 0
0 0 0
0 0 0
0 0 0
65 105 225
65 105 225
65 105 225
65 105 225
65 105 225
65 105 225
65 105 225
65 105 225
65 105 225
177 177 177
177 177 177
173 173 173
198 174 135
166 166 166
198 174 135
218 194 155
218 194 155
218 194 155
218 194 155
177 177 177
218 194 155
177 177 177
177 177 177
218 194 155
238 214 175
238 214 175
238 214 175
238 214 175
238 214 175
238 214 175
238 214 175
238 214 175
238 214 175
238 214 175
238 214 175
238 214 175
238 214 175
238 214 175
177 177 177
238 214 175
238 214 175
238 214 175
218 194 155
218 194 155
177 177 177
141 141 141
137 137 137
159 159 159
137 137 137
134 134 134
83 83 83
54 54 54
54 54 54
51 51 51
4 4 4
0 0 0
0 0 0
0 0 0
0 0 0
0 0 0
0 0 0
0 0 0
0 0 0
0 0 0
65 105 225
65 105 225
65 105 225
65 105 225
65 105 225
65 105 225
65 105 225
65 105 225
178 154 115
166 166 166
173 173 173
177 177 177
170 170 170
173 173 173
173 173 173
173 173 173
218 194 155
218 194 155
218 194 155
218 194 155
218 194 155
218 194 155
218 194 155
218 194 155
238 214 175
238 214 175
238 214 175
238 214 175
238 214 175
238 214 175
238 214 175
238 214 175
238 214 175
238 214 175
238 214 175
238 214 175
238 214 175
238 214 175
238 214 175
177 177 177
238 214 175
177 177 177
177 177 177
173 173 173
218 194 155
173 173 173
155 155 155
159 159 159
159 159 159
148 148 148
116 116 116
123 123 123
69 69 69
11 11 11
36 36 36
22 22 22
0 0 0
0 0 0
0 0 0
0 0 0
0 0 0
0 0 0
0 0 0
0 0 0
65 105 225
65 105 225
65 105 225
65 105 225
65 105 225
65 105 225
65 105 225
65 105 225
162 162 162
173 173 173
198 174 135
170 170 170
198 174 135
170 170 170
198 174 135
198 174 135
177 177 177
218 194 155
218 194 155
173 173 173
218 194 155
218 194 155
218 194 155
218 194 155
238 214 175
238 214 175
238 214 175
238 214 175
238 214 175
238 214 175
238 214 175
238 214 175
238 214 175
238 214 175
238 214 175
238 214 175
238 214 175
238 214 175
238 214 175
238 214 175
173 173 173
238 214 175
173 173 173
173 173 173
170 170 170
162 162 162
162 162 162
144 144 144
130 130 130
134 134 134
130 130 130
101 101 101
119 119 119
116 116 116
98 98 98
58 58 58
76 76 76
58 58 58
36 36 36
0 0 0
0 0 0
0 0 0
0 0 0
0 0 0
65 105 225
65 105 225
65 105 225
65 105 225
65 105 225
65 105 225
65 105 225
170 170 170
173 173 173
198 174 135
173 173 173
177 177 177
177 177 177
198 174 135
198 174 135
173 173 173
218 194 155
177 177 177
218 194 155
218 194 155
218 194 155
218 194 155
218 194 155
238 214 175
238 214 175
238 214 175
238 214 175
238 214 175
238 214 175
238 214 175
238 214 175
238 214 175
238 214 175
238 214 175
238 214 175
238 214 175
238 214 175
238 214 175
238 214 175
177 177 177
238 214 175
177 177 177
238 214 175
218 194 155
177 177 177
218 194 155
155 155 155
155 155 155
137 137 137
137 137 137
134 134 134
126 126 126
126 126 126
101 101 101
83 83 83
105 105 105
76 76 76
54 54 54
58 58 58
44 44 44
44 44 44
0 0 0
40 40 40
44 44 44
65 105 225
65 105 225
65 105 225
65 105 225
65 105 225
65 105 225
173 173 173
148 148 148
166 166 166
173 173 173
177 177 177
173 173 173
198 174 135
173 173 173
198 174 135
177 177 177
218 194 155
218 194 155
218 194 155
218 194 155
218 194 155
218 194 155
238 214 175
238 214 175
238 214 175
238 214 175
238 214 175
238 214 175
238 214 175
238 214 175
238 214 175
238 214 175
238 214 175
238 214 175
238 214 175
238 214 175
238 214 175
238 214 175
238 214 175
177 177 177
170 170 170
177 177 177
177 177 177
177 177 177
173 173 173
162 162 162
162 162 162
162 162 162
144 144 144
123 123 123
112 112 112
116 116 116
108 108 108
90 90 90
87 87 87
72 72 72
72 72 72
47 47 47
0 0 0
58 58 58
58 58 58
72 72 72
108 108 108
98 98 98
65 105 225
65 105 225
65 105 225
65 105 225
65 105 225
152 152 152
152 152 152
166 166 166
166 166 166
177 177 177
166 166 166
177 177 177
198 174 135
177 177 177
198 174 135
218 194 155
177 177 177
218 194 155
177 177 177
218 194 155
218 194 155
238 214 175
238 214 175
238 214 175
238 214 175
238 214 175
238 214 175
238 214 175
238 214 175
238 214 175
238 214 175
238 214 175
238 214 175
238 214 175
238 214 175
238 214 175
177 177 177
238 214 175
238 214 175
177 177 177
238 214 175
177 177 177
238 214 175
177 177 177
177 177 177
170 170 170
162 162 162
173 173 173
162 162 162
159 159 159
123 123 123
98 98 98
119 119 119
105 105 105
76 76 76
87 87 87
83 83 83
47 47 47
62 62 62
76 76 76
36 36 36
72 72 72
62 62 62
87 87 87
65 105 225
65 105 225
65 105 225
65 105 225
134 134 134
155 155 155
152 152 152
166 166 166
166 166 166
166 166 166
177 177 177
177 177 177
170 170 170
177 177 177
218 194 155
218 194 155
177 177 177
218 194 155
218 194 155
218 194 155
238 214 175
238 214 175
238 214 175
238 214 175
238 214 175
238 214 175
238 214 175
238 214 175
177 177 177
238 214 175
238 214 175
238 214 175
238 214 175
238 214 175
238 214 175
238 214 175
238 214 175
238 214 175
238 214 175
238 214 175
177 177 177
173 173 173
238 214 175
177 177 177
170 170 170
170 170 170
159 159 159
170 170 170
152 152 152
130 130 130
141 141 141
112 112 112
137 137 137
105 105 105
105 105 105
83 83 83
105 105 105
87 87 87
51 51 51
90 90 90
87 87 87
80 80 80
123 123 123
101 101 101
65 105 225
65 105 225
65 105 225
65 105 225
148 148 148
152 152 152
148 148 148
173 173 173
155 155 155
177 177 177
170 170 170
170 170 170
177 177 177
177 177 177
218 194 155
218 194 155
177 177 177
218 194 155
177 177 177
177 177 177
238 214 175
238 214 175
238 214 175
238 214 175
238 214 175
238 214 175
238 214 175
238 214 175
238 214 175
238 214 175
238 214 175
238 214 175
238 214 175
238 214 175
177 177 177
238 214 175
238 214 175
238 214 175
177 177 177
238 214 175
238 214 175
177 177 177
177 177 177
173 173 173
170 170 170
170 170 170
159 159 159
152 152 152
155 155 155
137 137 137
116 116 116
94 94 94
90 90 90
98 98 98
101 101 101
83 83 83
80 80 80
101 101 101
76 76 76
83 83 83
54 54 54
76 76 76
108 108 108
72 72 72
65 105 225
65 105 225
65 105 225
123 123 123
130 130 130
173 173 173
198 174 135
159 159 159
155 155 155
173 173 173
218 194 155
218 194 155
218 194 155
218 194 155
218 194 155
218 194 155
218 194 155
218 194 155
218 194 155
238 214 175
238 214 175
238 214 175
238 214 175
238 214 175
238 214 175
238 214 175
238 214 175
238 214 175
238 214 175
238 214 175
238 214 175
238 214 175
238 214 175
238 214 175
238 214 175
238 214 175
173 173 173
177 177 177
238 214 175
173 173 173
238 214 175
177 177 177
173 173 173
155 155 155
173 173 173
162 162 162
166 166 166
170 170 170
134 134 134
148 148 148
72 72 72
130 130 130
90 90 90
94 94 94
90 90 90
94 94 94
90 90 90
51 51 51
98 98 98
76 76 76
116 116 116
54 54 54
90 90 90
72 72 72
65 105 225
65 105 225
65 105 225
119 119 119
170 170 170
162 162 162
162 162 162
159 159 159
159 159 159
177 177 177
173 173 173
170 170 170
177 177 177
218 194 155
218 194 155
177 177 177
218 194 155
218 194 155
238 214 175
238 214 175
238 214 175
238 214 175
238 214 175
238 214 175
238 214 175
238 214 175
238 214 175
238 214 175
238 214 175
238 214 175
238 214 175
238 214 175
238 214 175
177 177 177
238 214 175
238 214 175
238 214 175
238 214 175
238 214 175
238 214 175
173 173 173
155 155 155
155 155 155
173 173 173
155 155 155
170 170 170
170 170 170
141 141 141
116 116 116
105 105 105
116 116 116
101 101 101
105 105 105
90 90 90
105 105 105
112 112 112
105 105 105
112 112 112
123 123 123
62 62 62
33 33 33
72 72 72
90 90 90
123 123 123
65 105 225
65 105 225
148 148 148
159 159 159
155 155 155
162 162 162
144 144 144
155 155 155
177 177 177
173 173 173
170 170 170
173 173 173
218 194 155
218 194 155
218 194 155
218 194 155
218 194 155
238 214 175
238 214 175
238 214 175
238 214 175
177 177 177
238 214 175
238 214 175
238 214 175
238 214 175
238 214 175
238 214 175
238 214 175
238 214 175
238 214 175
238 214 175
238 214 175
238 214 175
238 214 175
238 214 175
177 177 177
177 177 177
238 214 175
177 177 177
166 166 166
166 166 166
166 166 166
155 155 155
162 162 162
170 170 170
141 141 141
108 108 108
119 119 119
119 119 119
80 80 80
98 98 98
94 94 94
101 101 101
105 105 105
98 98 98
137 137 137
33 33 33
29 29 29
94 94 94
105 105 105
65 105 225
65 105 225
65 105 225
65 105 225
65 105 225
126 126 126
144 144 144
155 155 155
162 162 162
170 170 170
166 166 166
218 194 155
166 166 166
177 177 177
218 194 155
218 194 155
177 177 177
218 194 155
218 194 155
238 214 175
238 214 175
238 214 175
238 214 175
238 214 175
238 214 175
238 214 175
238 214 175
238 214 175
238 214 175
238 214 175
238 214 175
238 214 175
238 214 175
238 214 175
238 214 175
238 214 175
238 214 175
238 214 175
238 214 175
238 214 175
173 173 173
238 214 175
177 177 177
155 155 155
173 173 173
173 173 173
170 170 170
152 152 152
152 152 152
144 144 144
126 126 126
126 126 126
119 119 119
134 134 134
116 116 116
90 90 90
87 87 87
101 101 101
51 51 51
47 47 47
51 51 51
76 76 76
90 90 90
65 105 225
65 105 225
65 105 225
65 105 225
65 105 225
65 105 225
123 123 123
137 137 137
137 137 137
155 155 155
177 177 177
177 177 177
173 173 173
218 194 155
177 177 177
177 177 177
218 194 155
177 177 177
238 214 175
238 214 175
238 214 175
238 214 175
238 214 175
238 214 175
238 214 175
238 214 175
238 214 175
238 214 175
238 214 175
238 214 175
238 214 175
177 177 177
238 214 175
238 214 175
238 214 175
238 214 175
238 214 175
238 214 175
238 214 175
177 177 177
238 214 175
170 170 170
170 170 170
173 173 173
173 173 173
170 170 170
173 173 173
137 137 137
123 123 123
141 141 141
141 141 141
137 137 137
152 152 152
105 105 105
22 22 22
80 80 80
83 83 83
80 80 80
76 76 76
98 98 98
72 72 72
65 105 225
65 105 225
65 105 225
65 105 225
65 105 225
65 105 225
65 105 225
65 105 225
116 116 116
101 101 101
148 148 148
162 162 162
141 141 141
177 177 177
177 177 177
166 166 166
218 194 155
177 177 177
177 177 177
177 177 177
238 214 175
238 214 175
238 214 175
238 214 175
238 214 175
177 177 177
238 214 175
238 214 175
238 214 175
238 214 175
238 214 175
238 214 175
238 214 175
238 214 175
238 214 175
238 214 175
238 214 175
238 214 175
238 214 175
177 177 177
238 214 175
238 214 175
238 214 175
177 177 177
177 177 177
177 177 177
159 159 159
155 155 155
155 155 155
152 152 152
162 162 162
152 152 152
141 141 141
123 123 123
83 83 83
62 62 62
54 54 54
65 65 65
76 76 76
80 80 80
65 105 225
65 105 225
65 105 225
65 105 225
65 105 225
65 105 225
65 105 225
65 105 225
65 105 225
65 105 225
65 105 225
65 105 225
119 119 119
159 159 159
141 141 141
152 152 152
162 162 162
170 170 170
173 173 173
173 173 173
177 177 177
173 173 173
177 177 177
238 214 175
238 214 175
238 214 175
238 214 175
238 214 175
238 214 175
238 214 175
238 214 175
238 214 175
238 214 175
238 214 175
238 214 175
177 177 177
238 214 175
238 214 175
238 214 175
238 214 175
238 214 175
177 177 177
238 214 175
238 214 175
238 214 175
177 177 177
238 214 175
177 177 177
170 170 170
166 166 166
170 170 170
152 152 152
148 148 148
152 152 152
137 137 137
162 162 162
69 69 69
80 80 80
108 108 108
90 90 90
65 105 225
65 105 225
65 105 225
65 105 225
65 105 225
65 105 225
65 105 225
65 105 225
65 105 225
65 105 225
65 105 225
65 105 225
65 105 225
65 105 225
65 105 225
123 123 123
94 94 94
148 148 148
152 152 152
159 159 159
162 162 162
162 162 162
166 166 166
170 170 170
173 173 173
173 173 173
238 214 175
177 177 177
238 214 175
238 214 175
177 177 177
238 214 175
238 214 175
238 214 175
238 214 175
238 214 175
238 214 175
238 214 175
238 214 175
238 214 175
238 214 175
238 214 175
238 214 175
238 214 175
238 214 175
177 177 177
177 177 177
177 177 177
238 214 175
177 177 177
177 177 177
177 177 177
170 170 170
162 162 162
166 166 166
173 173 173
137 137 137
123 123 123
152 152 152
119 119 119
116 116 116
90 90 90
65 105 225
65 105 225
65 105 225
65 105 225
65 105 225
65 105 225
65 105 225
65 105 225
65 105 225
65 105 225
65 105 225
65 105 225
65 105 225
65 105 225
65 105 225
65 105 225
65 105 225
105 105 105
159 159 159
144 144 144
105 105 105
152 152 152
162 162 162
173 173 173
159 159 159
177 177 177
177 177 177
177 177 177
177 177 177
173 173 173
238 214 175
177 177 177
238 214 175
238 214 175
238 214 175
238 214 175
238 214 175
238 214 175
238 214 175
238 214 175
238 214 175
238 214 175
238 214 175
238 214 175
238 214 175
238 214 175
177 177 177
238 214 175
173 173 173
173 173 173
177 177 177
173 173 173
177 177 177
177 177 177
162 162 162
170 170 170
159 159 159
144 144 144
137 137 137
116 116 116
126 126 126
94 94 94
87 87 87
65 105 225
65 105 225
65 105 225
65 105 225
65 105 225
65 105 225
65 105 225
65 105 225
65 105 225
65 105 225
65 105 225
65 105 225
65 105 225
65 105 225
65 105 225
65 105 225
65 105 225
65 105 225
116 116 116
144 144 144
148 148 148
141 141 141
162 162 162
166 166 166
159 159 159
166 166 166
170 170 170
170 170 170
177 177 177
177 177 177
173 173 173
177 177 177
238 214 175
238 214 175
238 214 175
238 214 175
238 214 175
238 214 175
238 214 175
238 214 175
238 214 175
238 214 175
238 214 175
238 214 175
238 214 175
177 177 177
238 214 175
238 214 175
238 214 175
238 214 175
177 177 177
238 214 175
177 177 177
173 173 173
218 194 155
166 166 166
159 159 159
166 166 166
134 134 134
130 130 130
144 144 144
112 112 112
98 98 98
65 105 225
65 105 225
65 105 225
65 105 225
65 105 225
65 105 225
65 105 225
65 105 225
65 105 225
65 105 225
65 105 225
65 105 225
65 105 225
65 105 225
65 105 225
65 105 225
65 105 225
65 105 225
65 105 225
80 80 80
148 148 148
141 141 141
144 144 144
170 170 170
159 159 159
173 173 173
162 162 162
173 173 173
166 166 166
173 173 173
177 177 177
238 214 175
238 214 175
238 214 175
238 214 175
238 214 175
238 214 175
238 214 175
238 214 175
238 214 175
238 214 175
238 214 175
238 214 175
238 214 175
238 214 175
238 214 175
177 177 177
238 214 175
173 173 173
177 177 177
177 177 177
173 173 173
177 177 177
238 214 175
177 177 177
170 170 170
152 152 152
141 141 141
170 170 170
141 141 141
134 134 134
108 108 108
87 87 87
94 94 94
65 105 225
65 105 225
65 105 225
65 105 225
65 105 225
65 105 225
65 105 225
65 105 225
65 105 225
65 105 225
65 105 225
65 105 225
65 105 225
65 105 225
65 105 225
65 105 225
65 105 225
65 105 225
65 105 225
152 152 152
134 134 134
159 159 159
148 148 148
141 141 141
155 155 155
166 166 166
173 173 173
238 214 175
170 170 170
238 214 175
238 214 175
177 177 177
177 177 177
177 177 177
238 214 175
238 214 175
177 177 177
238 214 175
238 214 175
238 214 175
238 214 175
238 214 175
238 214 175
238 214 175
177 177 177
238 214 175
238 214 175
238 214 175
177 177 177
238 214 175
177 177 177
177 177 177
177 177 177
238 214 175
177 177 177
166 166 166
177 177 177
152 152 152
162 162 162
137 137 137
137 137 137
166 166 166
83 83 83
65 105 225
65 105 225
65 105 225
65 105 225
65 105 225
65 105 225
65 105 225
65 105 225
65 105 225
65 105 225
65 105 225
65 105 225
65 105 225
65 105 225
65 105 225
65 105 225
65 105 225
65 105 225
65 105 225
65 105 225
152 152 152
159 159 159
144 144 144
148 148 148
173 173 173
152 152 152
170 170 170
166 166 166
238 214 175
177 177 177
177 177 177
238 214 175
238 214 175
238 214 175
238 214 175
173 173 173
238 214 175
238 214 175
238 214 175
238 214 175
238 214 175
238 214 175
238 214 175
238 214 175
238 214 175
238 214 175
238 214 175
238 214 175
177 177 177
177 177 177
173 173 173
238 214 175
238 214 175
173 173 173
177 177 177
166 166 166
162 162 162
159 159 159
177 177 177
166 166 166
144 144 144
137 137 137
119 119 119
108 108 108
65 105 225
65 105 225
65 105 225
65 105 225
65 105 225
65 105 225
65 105 225
65 105 225
65 105 225
65 105 225
65 105 225
65 105 225
65 105 225
65 105 225
65 105 225
65 105 225
65 105 225
65 105 225
65 105 225
65 105 225
152 152 152
137 137 137
152 152 152
155 155 155
166 166 166
162 162 162
170 170 170
177 177 177
173 173 173
238 214 175
173 173 173
238 214 175
177 177 177
238 214 175
238 214 175
238 214 175
238 214 175
238 214 175
238 214 175
238 214 175
238 214 175
238 214 175
177 177 177
238 214 175
238 214 175
238 214 175
238 214 175
177 177 177
177 177 177
238 214 175
238 214 175
238 214 175
177 177 177
177 177 177
170 170 170
170 170 170
177 177 177
173 173 173
152 152 152
141 141 141
126 126 126
101 101 101
144 144 144
112 112 112
65 105 225
65 105 225
65 105 225
65 105 225
65 105 225
65 105 225
65 105 225
65 105 225
65 105 225
65 105 225
65 105 225
65 105 225
65 105 225
65 105 225
65 105 225
65 105 225
65 105 225
65 105 225
65 105 225
178 154 115
141 141 141
141 141 141
119 119 119
155 155 155
148 148 148
166 166 166
159 159 159
173 173 173
166 166 166
170 170 170
238 214 175
238 214 175
173 173 173
238 214 175
238 214 175
238 214 175
238 214 175
177 177 177
177 177 177
238 214 175
238 214 175
238 214 175
238 214 175
238 214 175
177 177 177
177 177 177
238 214 175
177 177 177
173 173 173
238 214 175
238 214 175
173 173 173
173 173 173
218 194 155
177 177 177
170 170 170
166 166 166
162 162 162
162 162 162
166 166 166
123 123 123
130 130 130
119 119 119
101 101 101
65 105 225
65 105 225
65 105 225
65 105 225
65 105 225
65 105 225
65 105 225
65 105 225
65 105 225
65 105 225
65 105 225
65 105 225
65 105 225
65 105 225
65 105 225
65 105 225
65 105 225
65 105 225
177 177 177
177 177 177
141 141 141
137 137 137
126 126 126
148 148 148
162 162 162
162 162 162
162 162 162
170 170 170
166 166 166
166 166 166
177 177 177
177 177 177
238 214 175
238 214 175
238 214 175
238 214 175
238 214 175
238 214 175
238 214 175
238 214 175
238 214 175
238 214 175
238 214 175
238 214 175
238 214 175
177 177 177
238 214 175
238 214 175
238 214 175
218 194 155
173 173 173
177 177 177
218 194 155
162 162 162
173 173 173
166 166 166
159 159 159
155 155 155
159 159 159
162 162 162
134 134 134
130 130 130
119 119 119
65 65 65
76 76 76
65 105 225
65 105 225
65 105 225
65 105 225
65 105 225
65 105 225
65 105 225
65 105 225
65 105 225
65 105 225
65 105 225
65 105 225
65 105 225
65 105 225
65 105 225
65 105 225
65 105 225
177 177 177
178 154 115
162 162 162
141 141 141
148 148 148
152 152 152
152 152 152
170 170 170
173 173 173
177 177 177
173 173 173
173 173 173
238 214 175
177 177 177
177 177 177
238 214 175
238 214 175
238 214 175
238 214 175
238 214 175
238 214 175
238 214 175
238 214 175
238 214 175
238 214 175
238 214 175
238 214 175
238 214 175
177 177 177
238 214 175
177 177 177
218 194 155
177 177 177
170 170 170
177 177 177
170 170 170
170 170 170
166 166 166
144 144 144
152 152 152
148 148 148
162 162 162
141 141 141
126 126 126
76 76 76
108 108 108
87 87 87
65 105 225
65 105 225
65 105 225
65 105 225
65 105 225
65 105 225
65 105 225
65 105 225
65 105 225
65 105 225
65 105 225
65 105 225
65 105 225
65 105 225
65 105 225
65 105 225
166 166 166
178 154 115
198 174 135
123 123 123
130 130 130
119 119 119
148 148 148
144 144 144
166 166 166
177 177 177
166 166 166
177 177 177
177 177 177
177 177 177
238 214 175
177 177 177
177 177 177
238 214 175
238 214 175
238 214 175
238 214 175
238 214 175
238 214 175
238 214 175
238 214 175
238 214 175
177 177 177
238 214 175
177 177 177
238 214 175
218 194 155
218 194 155
218 194 155
166 166 166
177 177 177
218 194 155
177 177 177
170 170 170
170 170 170
173 173 173
155 155 155
162 162 162
141 141 141
116 116 116
108 108 108
108 108 108
94 94 94
76 76 76
65 105 225
65 105 225
65 105 225
65 105 225
65 105 225
65 105 225
65 105 225
65 105 225
65 105 225
65 105 225
65 105 225
65 105 225
65 105 225
65 105 225
65 105 225
65 105 225
173 173 173
198 174 135
173 173 173
148 148 148
137 137 137
144 144 144
144 144 144
159 159 159
155 155 155
170 170 170
238 214 175
177 177 177
238 214 175
238 214 175
238 214 175
238 214 175
218 194 155
177 177 177
177 177 177
218 194 155
238 214 175
238 214 175
238 214 175
238 214 175
238 214 175
238 214 175
238 214 175
238 214 175
238 214 175
218 194 155
177 177 177
177 177 177
173 173 173
173 173 173
162 162 162
177 177 177
166 166 166
170 170 170
137 137 137
166 166 166
159 159 159
144 144 144
152 152 152
148 148 148
130 130 130
119 119 119
123 123 123
54 54 54
69 69 69
65 105 225
65 105 225
65 105 225
65 105 225
65 105 225
65 105 225
65 105 225
65 105 225
65 105 225
65 105 225
65 105 225
65 105 225
65 105 225
65 105 225
170 170 170
178 154 115
173 173 173
198 174 135
101 101 101
137 137 137
123 123 123
126 126 126
155 155 155
170 170 170
162 162 162
166 166 166
177 177 177
238 214 175
173 173 173
238 214 175
218 194 155
218 194 155
177 177 177
177 177 177
218 194 155
218 194 155
238 214 175
238 214 175
238 214 175
238 214 175
238 214 175
238 214 175
238 214 175
218 194 155
218 194 155
166 166 166
177 177 177
170 170 170
177 177 177
162 162 162
170 170 170
170 170 170
170 170 170
162 162 162
162 162 162
162 162 162
155 155 155
137 137 137
159 159 159
137 137 137
119 119 119
87 87 87
108 108 108
65 65 65
65 105 225
65 105 225
65 105 225
65 105 225
65 105 225
65 105 225
65 105 225
65 105 225
65 105 225
65 105 225
65 105 225
65 105 225
65 105 225
178 154 115
166 166 166
177 177 177
177 177 177
177 177 177
101 101 101
159 159 159
116 116 116
137 137 137
159 159 159
155 155 155
170 170 170
238 214 175
177 177 177
238 214 175
238 214 175
238 214 175
177 177 177
177 177 177
218 194 155
177 177 177
218 194 155
218 194 155
238 214 175
238 214 175
238 214 175
238 214 175
238 214 175
238 214 175
238 214 175
218 194 155
218 194 155
218 194 155
218 194 155
177 177 177
177 177 177
173 173 173
170 170 170
170 170 170
148 148 148
177 177 177
170 170 170
159 159 159
148 148 148
162 162 162
126 126 126
130 130 130
108 108 108
101 101 101
134 134 134
76 76 76
80 80 80
65 105 225
65 105 225
65 105 225
65 105 225
65 105 225
65 105 225
65 105 225
65 105 225
65 105 225
65 105 225
65 105 225
65 105 225
178 154 115
177 177 177
177 177 177
198 174 135
198 174 135
87 87 87
108 108 108
137 137 137
126 126 126
162 162 162
155 155 155
177 177 177
166 166 166
177 177 177
177 177 177
238 214 175
238 214 175
177 177 177
218 194 155
218 194 155
177 177 177
218 194 155
218 194 155
238 214 175
238 214 175
238 214 175
238 214 175
238 214 175
238 214 175
218 194 155
218 194 155
177 177 177
177 177 177
173 173 173
218 194 155
218 194 155
173 173 173
170 170 170
162 162 162
162 162 162
170 170 170
148 148 148
152 152 152
166 166 166
144 144 144
152 152 152
159 159 159
126 126 126
94 94 94
87 87 87
108 108 108
72 72 72
65 65 65
65 105 225
65 105 225
65 105 225
65 105 225
65 105 225
65 105 225
65 105 225
65 105 225
65 105 225
65 105 225
152 152 152
173 173 173
198 174 135
177 177 177
177 177 177
198 174 135
65 105 225
98 98 98
144 144 144
141 141 141
130 130 130
162 162 162
162 162 162
177 177 177
238 214 175
177 177 177
177 177 177
238 214 175
218 194 155
177 177 177
218 194 155
218 194 155
218 194 155
238 214 175
238 214 175
238 214 175
238 214 175
238 214 175
238 214 175
238 214 175
218 194 155
218 194 155
177 177 177
218 194 155
218 194 155
173 173 173
173 173 173
177 177 177
218 194 155
166 166 166
155 155 155
162 162 162
159 159 159
148 148 148
155 155 155
141 141 141
162 162 162
162 162 162
155 155 155
80 80 80
112 112 112
126 126 126
134 134 134
90 90 90
94 94 94
65 105 225
65 105 225
65 105 225
65 105 225
65 105 225
65 105 225
65 105 225
155 155 155
166 166 166
173 173 173
198 174 135
173 173 173
173 173 173
177 177 177
177 177 177
65 105 225
108 108 108
108 108 108
141 141 141
144 144 144
170 170 170
162 162 162
177 177 177
173 173 173
238 214 175
238 214 175
238 214 175
218 194 155
218 194 155
218 194 155
218 194 155
218 194 155
238 214 175
238 214 175
238 214 175
238 214 175
238 214 175
238 214 175
218 194 155
218 194 155
218 194 155
218 194 155
218 194 155
198 174 135
177 177 177
177 177 177
170 170 170
170 170 170
170 170 170
162 162 162
166 166 166
159 159 159
162 162 162
162 162 162
152 152 152
148 148 148
144 144 144
144 144 144
155 155 155
108 108 108
94 94 94
123 123 123
105 105 105
80 80 80
101 101 101
105 105 105
112 112 112
126 126 126
130 130 130
152 152 152
126 126 126
134 134 134
170 170 170
173 173 173
170 170 170
177 177 177
177 177 177
173 173 173
218 194 155
65 105 225
65 105 225
119 119 119
159 159 159
152 152 152
162 162 162
162 162 162
173 173 173
177 177 177
177 177 177
238 214 175
238 214 175
177 177 177
218 194 155
218 194 155
218 194 155
238 214 175
238 214 175
238 214 175
238 214 175
238 214 175
238 214 175
238 214 175
218 194 155
218 194 155
177 177 177
177 177 177
198 174 135
177 177 177
198 174 135
159 159 159
177 177 177
177 177 177
166 166 166
177 177 177
170 170 170
162 162 162
173 173 173
152 152 152
155 155 155
155 155 155
148 148 148
134 134 134
148 148 148
152 152 152
130 130 130
148 148 148
134 134 134
105 105 105
130 130 130
94 94 94
98 98 98
137 137 137
144 144 144
162 162 162
173 173 173
170 170 170
177 177 177
198 174 135
198 174 135
177 177 177
218 194 155
218 194 155
218 194 155
65 105 225
65 105 225
98 98 98
112 112 112
130 130 130
166 166 166
166 166 166
238 214 175
238 214 175
238 214 175
177 177 177
238 214 175
238 214 175
218 194 155
218 194 155
238 214 175
238 214 175
238 214 175
238 214 175
238 214 175
238 214 175
238 214 175
238 214 175
218 194 155
218 194 155
218 194 155
218 194 155
198 174 135
177 177 177
198 174 135
173 173 173
177 177 177
170 170 170
177 177 177
166 166 166
166 166 166
218 194 155
170 170 170
173 173 173
134 134 134
152 152 152
173 173 173
152 152 152
159 159 159
152 152 152
152 152 152
108 108 108
119 119 119
126 126 126
123 123 123
134 134 134
162 162 162
144 144 144
170 170 170
159 159 159
148 148 148
155 155 155
177 177 177
218 194 155
177 177 177
218 194 155
218 194 155
218 194 155
218 194 155
65 105 225
65 105 225
101 101 101
130 130 130
162 162 162
162 162 162
148 148 148
173 173 173
238 214 175
238 214 175
238 214 175
177 177 177
238 214 175
177 177 177
238 214 175
238 214 175
238 214 175
238 214 175
238 214 175
238 214 175
238 214 175
238 214 175
218 194 155
218 194 155
218 194 155
218 194 155
198 174 135
170 170 170
177 177 177
173 173 173
198 174 135
173 173 173
218 194 155
177 177 177
218 194 155
170 170 170
170 170 170
170 170 170
170 170 170
162 162 162
166 166 166
137 137 137
148 148 148
155 155 155
159 159 159
148 148 148
159 159 159
130 130 130
159 159 159
148 148 148
123 123 123
137 137 137
177 177 177
173 173 173
177 177 177
177 177 177
218 194 155
173 173 173
177 177 177
218 194 155
218 194 155
218 194 155
218 194 155
218 194 155
65 105 225
65 105 225
112 112 112
130 130 130
148 148 148
162 162 162
173 173 173
177 177 177
238 214 175
173 173 173
238 214 175
238 214 175
177 177 177
177 177 177
238 214 175
238 214 175
238 214 175
238 214 175
238 214 175
238 214 175
238 214 175
238 214 175
218 194 155
218 194 155
218 194 155
218 194 155
198 174 135
198 174 135
198 174 135
198 174 135
198 174 135
177 177 177
173 173 173
177 177 177
177 177 177
173 173 173
170 170 170
173 173 173
170 170 170
170 170 170
166 166 166
162 162 162
170 170 170
166 166 166
162 162 162
159 159 159
162 162 162
173 173 173
166 166 166
162 162 162
159 159 159
170 170 170
170 170 170
159 159 159
170 170 170
177 177 177
170 170 170
173 173 173
177 177 177
218 194 155
218 194 155
218 194 155
218 194 155
218 194 155
65 105 225
65 105 225
126 126 126
105 105 105
126 126 126
148 148 148
170 170 170
173 173 173
238 214 175
238 214 175
177 177 177
238 214 175
238 214 175
238 214 175
238 214 175
238 214 175
238 214 175
238 214 175
238 214 175
238 214 175
238 214 175
238 214 175
218 194 155
218 194 155
218 194 155
177 177 177
177 177 177
198 174 135
177 177 177
173 173 173
198 174 135
218 194 155
177 177 177
166 166 166
173 173 173
177 177 177
166 166 166
173 173 173
170 170 170
159 159 159
152 152 152
166 166 166
218 194 155
166 166 166
173 173 173
166 166 166
170 170 170
170 170 170
166 166 166
177 177 177
166 166 166
162 162 162
162 162 162
177 177 177
177 177 177
238 214 175
238 214 175
177 177 177
173 173 173
238 214 175
177 177 177
177 177 177
238 214 175
218 194 155
65 105 225
65 105 225
134 134 134
126 126 126
144 144 144
162 162 162
177 177 177
218 194 155
177 177 177
238 214 175
238 214 175
177 177 177
238 214 175
238 214 175
238 214 175
238 214 175
238 214 175
238 214 175
238 214 175
238 214 175
238 214 175
218 194 155
218 194 155
218 194 155
218 194 155
218 194 155
218 194 155
198 174 135
198 174 135
177 177 177
198 174 135
177 177 177
177 177 177
170 170 170
177 177 177
173 173 173
218 194 155
173 173 173
177 177 177
166 166 166
173 173 173
173 173 173
173 173 173
166 166 166
162 162 162
166 166 166
170 170 170
148 148 148
170 170 170
177 177 177
177 177 177
170 170 170
173 173 173
238 214 175
170 170 170
238 214 175
238 214 175
238 214 175
238 214 175
238 214 175
238 214 175
238 214 175
238 214 175
238 214 175
65 105 225
65 105 225
144 144 144
155 155 155
155 155 155
166 166 166
173 173 173
177 177 177
238 214 175
238 214 175
238 214 175
238 214 175
238 214 175
238 214 175
238 214 175
238 214 175
238 214 175
238 214 175
238 214 175
238 214 175
238 214 175
218 194 155
218 194 155
218 194 155
218 194 155
218 194 155
218 194 155
218 194 155
218 194 155
177 177 177
218 194 155
218 194 155
218 194 155
218 194 155
177 177 177
177 177 177
166 166 166
170 170 170
166 166 166
170 170 170
166 166 166
162 162 162
170 170 170
166 166 166
173 173 173
162 162 162
177 177 177
238 214 175
238 214 175
238 214 175
173 173 173
238 214 175
238 214 175
238 214 175
238 214 175
238 214 175
238 214 175
238 214 175
238 214 175
238 214 175
238 214 175
238 214 175
238 214 175
238 214 175
65 105 225
126 126 126
155 155 155
170 170 170
162 162 162
166 166 166
170 170 170
177 177 177
177 177 177
238 214 175
177 177 177
238 214 175
238 214 175
238 214 175
238 214 175
238 214 175
238 214 175
238 214 175
238 214 175
238 214 175
238 214 175
238 214 175
218 194 155
218 194 155
218 194 155
218 194 155
218 194 155
177 177 177
218 194 155
218 194 155
218 194 155
218 194 155
218 194 155
218 194 155
177 177 177
177 177 177
218 194 155
218 194 155
218 194 155
166 166 166
177 177 177
218 194 155
170 170 170
162 162 162
173 173 173
238 214 175
170 170 170
177 177 177
177 177 177
238 214 175
238 214 175
238 214 175
177 177 177
177 177 177
238 214 175
238 214 175
238 214 175
238 214 175
238 214 175
238 214 175
238 214 175
238 214 175
238 214 175
238 214 175
148 148 148
144 144 144
134 134 134
148 148 148
155 155 155
177 177 177
173 173 173
177 177 177
238 214 175
173 173 173
238 214 175
238 214 175
238 214 175
238 214 175
238 214 175
238 214 175
238 214 175
238 214 175
238 214 175
238 214 175
238 214 175
238 214 175
218 194 155
218 194 155
218 194 155
218 194 155
218 194 155
218 194 155
218 194 155
218 194 155
218 194 155
218 194 155
218 194 155
218 194 155
218 194 155
177 177 177
177 177 177
177 177 177
173 173 173
218 194 155
177 177 177
162 162 162
162 162 162
218 194 155
238 214 175
177 177 177
238 214 175
238 214 175
238 214 175
177 177 177
177 177 177
177 177 177
177 177 177
238 214 175
238 214 175
218 194 155
218 194 155
218 194 155
177 177 177
177 177 177
238 214 175
238 214 175
177 177 177
238 214 175
166 166 166
162 162 162
166 166 166
166 166 166
166 166 166
170 170 170
177 177 177
177 177 177
177 177 177
238 214 175
238 214 175
238 214 175
238 214 175
238 214 175
238 214 175
238 214 175
238 214 175
238 214 175
238 214 175
238 214 175
238 214 175
238 214 175
238 214 175
218 194 155
218 194 155
218 194 155
218 194 155
218 194 155
218 194 155
218 194 155
218 194 155
218 194 155
177 177 177
218 194 155
177 177 177
218 194 155
177 177 177
218 194 155
173 173 173
177 177 177
177 177 177
177 177 177
173 173 173
170 170 170
177 177 177
238 214 175
238 214 175
177 177 177
177 177 177
177 177 177
238 214 175
177 177 177
238 214 175
218 194 155
177 177 177
218 194 155
177 177 177
218 194 155
177 177 177
218 194 155
238 214 175
238 214 175
238 214 175
238 214 175
173 173 173
198 174 135
166 166 166
166 166 166
177 177 177
173 173 173
173 173 173
218 194 155
238 214 175
238 214 175
238 214 175
238 214 175
238 214 175
238 214 175
238 214 175
238 214 175
238 214 175
238 214 175
238 214 175
238 214 175
238 214 175
238 214 175
238 214 175
238 214 175
238 214 175
218 194 155
218 194 155
218 194 155
218 194 155
218 194 155
218 194 155
218 194 155
218 194 155
177 177 177
177 177 177
170 170 170
177 177 177
218 194 155
218 194 155
177 177 177
218 194 155
177 177 177
218 194 155
238 214 175
177 177 177
238 214 175
238 214 175
177 177 177
238 214 175
238 214 175
238 214 175
238 214 175
177 177 177
177 177 177
177 177 177
218 194 155
218 194 155
218 194 155
218 194 155
218 194 155
177 177 177
238 214 175
177 177 177
238 214 175
177 177 177
162 162 162
173 173 173
173 173 173
173 173 173
218 194 155
218 194 155
218 194 155
238 214 175
238 214 175
238 214 175
238 214 175
238 214 175
238 214 175
238 214 175
238 214 175
238 214 175
238 214 175
238 214 175
238 214 175
238 214 175
238 214 175
238 214 175
238 214 175
238 214 175
238 214 175
238 214 175
218 194 155
218 194 155
218 194 155
218 194 155
218 194 155
218 194 155
218 194 155
218 194 155
177 177 177
177 177 177
170 170 170
177 177 177
177 177 177
173 173 173
177 177 177
177 177 177
177 177 177
238 214 175
238 214 175
177 177 177
238 214 175
238 214 175
238 214 175
238 214 175
177 177 177
218 194 155
218 194 155
218 194 155
218 194 155
218 194 155
218 194 155
177 177 177
218 194 155
218 194 155
238 214 175
238 214 175
238 214 175
170 170 170
198 174 135
170 170 170
198 174 135
173 173 173
166 166 166
177 177 177
238 214 175
238 214 175
238 214 175
238 214 175
238 214 175
238 214 175
238 214 175
238 214 175
238 214 175
238 214 175
238 214 175
238 214 175
238 214 175
238 214 175
238 214 175
238 214 175
238 214 175
238 214 175
238 214 175
238 214 175
238 214 175
238 214 175
238 214 175
238 214 175
218 194 155
218 194 155
218 194 155
177 177 177
177 177 177
218 194 155
177 177 177
177 177 177
173 173 173
177 177 177
177 177 177
238 214 175
177 177 177
238 214 175
238 214 175
238 214 175
238 214 175
238 214 175
238 214 175
177 177 177
218 194 155
218 194 155
218 194 155
218 194 155
235 235 235
235 235 235
218 194 155
218 194 155
218 194 155
218 194 155
218 194 155
238 214 175
238 214 175
