P3
64 64
255
173 173 173
238 214 175
177 177 177
173 173 173
170 170 170
155 155 155
152 152 152
123 123 123
119 119 119
101 101 101
148 148 148
65 105 225
65 105 225
65 105 225
65 105 225
65 105 225
65 105 225
65 105 225
65 105 225
65 105 225
65 105 225
173 173 173
170 170 170
177 177 177
177 177 177
177 177 177
177 177 177
177 177 177
177 177 177
198 174 135
166 166 166
173 173 173
162 162 162
119 119 119
65 105 225
65 105 225
65 105 225
65 105 225
65 105 225
65 105 225
65 105 225
65 105 225
0 0 0
54 54 54
29 29 29
54 54 54
65 65 65
134 134 134
144 144 144
130 130 130
155 155 155
105 105 105
137 137 137
152 152 152
148 148 148
152 152 152
162 162 162
155 155 155
137 137 137
144 144 144
144 144 144
137 137 137
166 166 166
155 155 155
173 173 173
177 177 177
238 214 175
173 173 173
162 162 162
130 130 130
108 108 108
76 76 76
65 105 225
65 105 225
65 105 225
65 105 225
65 105 225
65 105 225
65 105 225
65 105 225
65 105 225
65 105 225
65 105 225
65 105 225
65 105 225
159 159 159
177 177 177
173 173 173
177 177 177
173 173 173
177 177 177
177 177 177
218 194 155
173 173 173
170 170 170
155 155 155
159 159 159
144 144 144
152 152 152
47 47 47
51 51 51
65 105 225
65 105 225
65 105 225
0 0 0
0 0 0
65 65 65
11 11 11
98 98 98
76 76 76
65 65 65
87 87 87
134 134 134
119 119 119
123 123 123
116 116 116
137 137 137
144 144 144
152 152 152
159 159 159
170 170 170
162 162 162
166 166 166
159 159 159
148 148 148
162 162 162
148 148 148
159 159 159
177 177 177
173 173 173
155 155 155
155 155 155
108 108 108
116 116 116
65 65 65
65 105 225
65 105 225
65 105 225
65 105 225
65 105 225
65 105 225
65 105 225
65 105 225
65 105 225
65 105 225
65 105 225
65 105 225
65 105 225
177 177 177
166 166 166
170 170 170
166 166 166
170 170 170
177 177 177
177 177 177
173 173 173
173 173 173
218 194 155
170 170 170
177 177 177
170 170 170
155 155 155
155 155 155
155 155 155
94 94 94
94 94 94
83 83 83
62 62 62
26 26 26
58 58 58
0 0 0
0 0 0
72 72 72
76 76 76
29 29 29
58 58 58
51 51 51
130 130 130
101 101 101
130 130 130
141 141 141
112 112 112
152 152 152
166 166 166
148 148 148
144 144 144
155 155 155
162 162 162
155 155 155
159 159 159
173 173 173
173 173 173
177 177 177
162 162 162
162 162 162
123 123 123
105 105 105
62 62 62
65 105 225
65 105 225
65 105 225
65 105 225
65 105 225
65 105 225
65 105 225
65 105 225
65 105 225
65 105 225
65 105 225
65 105 225
155 155 155
170 170 170
173 173 173
177 177 177
162 162 162
162 162 162
177 177 177
177 177 177
218 194 155
177 177 177
173 173 173
177 177 177
173 173 173
166 166 166
162 162 162
141 141 141
155 155 155
119 119 119
116 116 116
94 94 94
76 76 76
51 51 51
8 8 8
76 76 76
72 72 72
94 94 94
87 87 87
62 62 62
72 72 72
65 65 65
62 62 62
65 65 65
123 123 123
144 144 144
123 123 123
130 130 130
148 148 148
159 159 159
166 166 166
134 134 134
238 214 175
166 166 166
166 166 166
166 166 166
170 170 170
170 170 170
173 173 173
155 155 155
152 152 152
101 101 101
130 130 130
0 0 0
65 105 225
65 105 225
65 105 225
65 105 225
65 105 225
65 105 225
65 105 225
65 105 225
65 105 225
65 105 225
65 105 225
144 144 144
155 155 155
198 174 135
166 166 166
173 173 173
177 177 177
170 170 170
173 173 173
162 162 162
173 173 173
177 177 177
218 194 155
218 194 155
170 170 170
159 159 159
173 173 173
170 170 170
155 155 155
137 137 137
130 130 130
112 112 112
116 116 116
144 144 144
119 119 119
116 116 116
90 90 90
101 101 101
101 101 101
101 101 101
108 108 108
26 26 26
72 72 72
54 54 54
58 58 58
123 123 123
108 108 108
116 116 116
144 144 144
141 141 141
159 159 159
159 159 159
162 162 162
162 162 162
155 155 155
166 166 166
177 177 177
170 170 170
159 159 159
130 130 130
148 148 148
65 65 65
108 108 108
51 51 51
65 105 225
65 105 225
65 105 225
65 105 225
65 105 225
65 105 225
65 105 225
65 105 225
65 105 225
65 105 225
159 159 159
162 162 162
166 166 166
170 170 170
166 166 166
170 170 170
166 166 166
170 170 170
173 173 173
162 162 162
166 166 166
162 162 162
170 170 170
173 173 173
177 177 177
173 173 173
166 166 166
152 152 152
166 166 166
170 170 170
152 152 152
159 159 159
105 105 105
155 155 155
137 137 137
137 137 137
126 126 126
137 137 137
76 76 76
62 62 62
101 101 101
108 108 108
29 29 29
105 105 105
58 58 58
65 65 65
105 105 105
123 123 123
148 148 148
144 144 144
148 148 148
152 152 152
162 162 162
166 166 166
170 170 170
170 170 170
173 173 173
238 214 175
177 177 177
152 152 152
134 134 134
94 94 94
108 108 108
123 123 123
29 29 29
54 54 54
65 105 225
65 105 225
65 105 225
65 105 225
65 105 225
65 105 225
65 105 225
162 162 162
130 130 130
162 162 162
166 166 166
173 173 173
198 174 135
177 177 177
173 173 173
166 166 166
177 177 177
162 162 162
170 170 170
177 177 177
162 162 162
162 162 162
173 173 173
162 162 162
173 173 173
159 159 159
159 159 159
173 173 173
173 173 173
162 162 162
162 162 162
159 159 159
137 137 137
141 141 141
148 148 148
130 130 130
137 137 137
72 72 72
58 58 58
80 80 80
83 83 83
54 54 54
90 90 90
58 58 58
58 58 58
83 83 83
126 126 126
134 134 134
123 123 123
166 166 166
170 170 170
173 173 173
166 166 166
159 159 159
177 177 177
177 177 177
170 170 170
137 137 137
144 144 144
144 144 144
105 105 105
105 105 105
87 87 87
126 126 126
54 54 54
123 123 123
65 105 225
65 105 225
65 105 225
65 105 225
65 105 225
126 126 126
166 166 166
170 170 170
162 162 162
170 170 170
159 159 159
177 177 177
177 177 177
173 173 173
177 177 177
177 177 177
170 170 170
166 166 166
173 173 173
173 173 173
173 173 173
159 159 159
162 162 162
162 162 162
170 170 170
173 173 173
159 159 159
148 148 148
152 152 152
159 159 159
159 159 159
155 155 155
141 141 141
144 144 144
141 141 141
126 126 126
47 47 47
94 94 94
87 87 87
80 80 80
51 51 51
101 101 101
62 62 62
90 90 90
101 101 101
98 98 98
155 155 155
155 155 155
173 173 173
152 152 152
155 155 155
166 166 166
238 214 175
170 170 170
173 173 173
166 166 166
148 148 148
137 137 137
137 137 137
144 144 144
116 116 116
108 108 108
112 112 112
134 134 134
87 87 87
123 123 123
116 116 116
130 130 130
123 123 123
119 119 119
155 155 155
162 162 162
159 159 159
177 177 177
170 170 170
173 173 173
166 166 166
170 170 170
170 170 170
173 173 173
170 170 170
170 170 170
170 170 170
173 173 173
166 166 166
177 177 177
173 173 173
170 170 170
177 177 177
177 177 177
166 166 166
155 155 155
177 177 177
144 144 144
144 144 144
166 166 166
137 137 137
141 141 141
144 144 144
148 148 148
123 123 123
112 112 112
44 44 44
83 83 83
0 0 0
0 0 0
0 0 0
0 0 0
15 15 15
105 105 105
90 90 90
101 101 101
134 134 134
159 159 159
162 162 162
177 177 177
238 214 175
238 214 175
177 177 177
170 170 170
148 148 148
141 141 141
144 144 144
134 134 134
166 166 166
123 123 123
101 101 101
130 130 130
126 126 126
148 148 148
134 134 134
137 137 137
116 116 116
130 130 130
148 148 148
162 162 162
159 159 159
162 162 162
162 162 162
177 177 177
177 177 177
170 170 170
173 173 173
177 177 177
177 177 177
177 177 177
177 177 177
177 177 177
173 173 173
173 173 173
170 170 170
170 170 170
173 173 173
177 177 177
170 170 170
155 155 155
162 162 162
166 166 166
162 162 162
155 155 155
144 144 144
141 141 141
141 141 141
126 126 126
141 141 141
101 101 101
87 87 87
58 58 58
0 0 0
0 0 0
0 0 0
15 15 15
15 15 15
29 29 29
40 40 40
119 119 119
119 119 119
141 141 141
152 152 152
144 144 144
177 177 177
177 177 177
177 177 177
159 159 159
162 162 162
152 152 152
134 134 134
152 152 152
144 144 144
137 137 137
137 137 137
155 155 155
130 130 130
105 105 105
134 134 134
126 126 126
148 148 148
162 162 162
152 152 152
170 170 170
170 170 170
170 170 170
173 173 173
173 173 173
177 177 177
177 177 177
166 166 166
173 173 173
177 177 177
170 170 170
218 194 155
218 194 155
170 170 170
218 194 155
238 214 175
177 177 177
177 177 177
177 177 177
177 177 177
177 177 177
173 173 173
166 166 166
162 162 162
159 159 159
166 166 166
152 152 152
155 155 155
123 123 123
94 94 94
76 76 76
87 87 87
94 94 94
0 0 0
18 18 18
0 0 0
0 0 0
0 0 0
40 40 40
8 8 8
29 29 29
87 87 87
101 101 101
119 119 119
137 137 137
170 170 170
170 170 170
173 173 173
155 155 155
155 155 155
173 173 173
162 162 162
166 166 166
162 162 162
144 144 144
159 159 159
162 162 162
155 155 155
159 159 159
173 173 173
170 170 170
162 162 162
162 162 162
166 166 166
173 173 173
166 166 166
173 173 173
173 173 173
177 177 177
166 166 166
173 173 173
218 194 155
218 194 155
218 194 155
177 177 177
173 173 173
173 173 173
173 173 173
238 214 175
238 214 175
177 177 177
238 214 175
177 177 177
170 170 170
170 170 170
177 177 177
159 159 159
177 177 177
152 152 152
155 155 155
159 159 159
173 173 173
162 162 162
101 101 101
76 76 76
108 108 108
123 123 123
0 0 0
0 0 0
0 0 0
0 0 0
22 22 22
0 0 0
0 0 0
0 0 0
8 8 8
44 44 44
112 112 112
144 144 144
116 116 116
159 159 159
177 177 177
173 173 173
170 170 170
155 155 155
166 166 166
162 162 162
166 166 166
173 173 173
159 159 159
170 170 170
170 170 170
173 173 173
155 155 155
166 166 166
166 166 166
166 166 166
166 166 166
170 170 170
173 173 173
170 170 170
198 174 135
173 173 173
198 174 135
173 173 173
173 173 173
177 177 177
218 194 155
177 177 177
170 170 170
238 214 175
177 177 177
238 214 175
170 170 170
173 173 173
177 177 177
177 177 177
177 177 177
238 214 175
238 214 175
159 159 159
170 170 170
170 170 170
162 162 162
159 159 159
152 152 152
144 144 144
130 130 130
87 87 87
98 98 98
4 4 4
29 29 29
0 0 0
0 0 0
0 0 0
0 0 0
0 0 0
65 105 225
65 105 225
65 105 225
65 105 225
65 105 225
83 83 83
137 137 137
162 162 162
170 170 170
173 173 173
173 173 173
238 214 175
162 162 162
159 159 159
166 166 166
173 173 173
170 170 170
166 166 166
173 173 173
238 214 175
177 177 177
238 214 175
173 173 173
173 173 173
173 173 173
170 170 170
173 173 173
162 162 162
173 173 173
198 174 135
177 177 177
177 177 177
173 173 173
238 214 175
238 214 175
238 214 175
238 214 175
177 177 177
173 173 173
177 177 177
177 177 177
177 177 177
238 214 175
238 214 175
173 173 173
173 173 173
170 170 170
170 170 170
238 214 175
144 144 144
155 155 155
155 155 155
155 155 155
134 134 134
101 101 101
116 116 116
108 108 108
11 11 11
0 0 0
29 29 29
22 22 22
0 0 0
0 0 0
0 0 0
65 105 225
65 105 225
65 105 225
65 105 225
65 105 225
65 105 225
152 152 152
152 152 152
162 162 162
173 173 173
170 170 170
166 166 166
159 159 159
173 173 173
166 166 166
166 166 166
238 214 175
173 173 173
177 177 177
166 166 166
238 214 175
238 214 175
238 214 175
177 177 177
170 170 170
218 194 155
166 166 166
166 166 166
177 177 177
170 170 170
218 194 155
218 194 155
177 177 177
238 214 175
170 170 170
177 177 177
177 177 177
177 177 177
238 214 175
177 177 177
238 214 175
238 214 175
238 214 175
170 170 170
177 177 177
173 173 173
170 170 170
238 214 175
173 173 173
173 173 173
170 170 170
159 159 159
148 148 148
137 137 137
108 108 108
58 58 58
33 33 33
0 0 0
0 0 0
47 47 47
22 22 22
0 0 0
0 0 0
0 0 0
65 105 225
65 105 225
65 105 225
65 105 225
65 105 225
65 105 225
130 130 130
137 137 137
162 162 162
155 155 155
166 166 166
173 173 173
177 177 177
162 162 162
173 173 173
166 166 166
170 170 170
173 173 173
177 177 177
177 177 177
238 214 175
170 170 170
238 214 175
177 177 177
238 214 175
177 177 177
218 194 155
177 177 177
173 173 173
218 194 155
218 194 155
173 173 173
238 214 175
177 177 177
238 214 175
177 177 177
238 214 175
238 214 175
238 214 175
173 173 173
238 214 175
177 177 177
177 177 177
177 177 177
238 214 175
177 177 177
173 173 173
170 170 170
177 177 177
159 159 159
159 159 159
162 162 162
123 123 123
112 112 112
40 40 40
80 80 80
33 33 33
36 36 36
22 22 22
33 33 33
22 22 22
65 65 65
40 40 40
0 0 0
65 105 225
65 105 225
65 105 225
65 105 225
65 105 225
65 105 225
159 159 159
162 162 162
235 235 235
152 152 152
166 166 166
170 170 170
238 214 175
166 166 166
173 173 173
170 170 170
170 170 170
177 177 177
170 170 170
162 162 162
173 173 173
170 170 170
177 177 177
177 177 177
173 173 173
238 214 175
218 194 155
218 194 155
218 194 155
177 177 177
218 194 155
238 214 175
177 177 177
238 214 175
177 177 177
238 214 175
238 214 175
238 214 175
238 214 175
238 214 175
238 214 175
238 214 175
238 214 175
177 177 177
238 214 175
177 177 177
177 177 177
173 173 173
162 162 162
177 177 177
162 162 162
148 148 148
152 152 152
72 72 72
69 69 69
65 65 65
62 62 62
58 58 58
65 65 65
22 22 22
0 0 0
29 29 29
0 0 0
0 0 0
65 105 225
65 105 225
65 105 225
65 105 225
65 105 225
98 98 98
148 148 148
155 155 155
235 235 235
162 162 162
159 159 159
177 177 177
238 214 175
177 177 177
177 177 177
162 162 162
238 214 175
177 177 177
162 162 162
177 177 177
170 170 170
177 177 177
173 173 173
238 214 175
238 214 175
238 214 175
177 177 177
218 194 155
177 177 177
218 194 155
238 214 175
238 214 175
238 214 175
238 214 175
238 214 175
238 214 175
238 214 175
238 214 175
238 214 175
238 214 175
238 214 175
238 214 175
238 214 175
238 214 175
177 177 177
177 177 177
173 173 173
159 159 159
162 162 162
162 162 162
144 144 144
155 155 155
123 123 123
65 65 65
90 90 90
0 0 0
0 0 0
0 0 0
0 0 0
26 26 26
29 29 29
44 44 44
108 108 108
11 11 11
65 105 225
65 105 225
65 105 225
65 105 225
65 105 225
105 105 105
148 148 148
162 162 162
235 235 235
173 173 173
162 162 162
173 173 173
177 177 177
155 155 155
177 177 177
173 173 173
177 177 177
173 173 173
177 177 177
162 162 162
177 177 177
170 170 170
173 173 173
238 214 175
238 214 175
238 214 175
238 214 175
238 214 175
177 177 177
238 214 175
238 214 175
238 214 175
238 214 175
238 214 175
238 214 175
177 177 177
238 214 175
177 177 177
238 214 175
238 214 175
238 214 175
238 214 175
218 194 155
177 177 177
177 177 177
166 166 166
173 173 173
177 177 177
159 159 159
155 155 155
173 173 173
141 141 141
90 90 90
80 80 80
0 0 0
0 0 0
0 0 0
0 0 0
0 0 0
72 72 72
44 44 44
26 26 26
108 108 108
0 0 0
65 105 225
65 105 225
65 105 225
65 105 225
65 105 225
119 119 119
126 126 126
166 166 166
173 173 173
166 166 166
170 170 170
177 177 177
177 177 177
166 166 166
170 170 170
170 170 170
177 177 177
177 177 177
173 173 173
173 173 173
177 177 177
173 173 173
218 194 155
177 177 177
238 214 175
238 214 175
177 177 177
238 214 175
238 214 175
238 214 175
238 214 175
238 214 175
238 214 175
238 214 175
238 214 175
238 214 175
238 214 175
238 214 175
238 214 175
238 214 175
238 214 175
170 170 170
177 177 177
173 173 173
218 194 155
177 177 177
173 173 173
166 166 166
170 170 170
155 155 155
162 162 162
123 123 123
105 105 105
65 65 65
0 0 0
0 0 0
0 0 0
0 0 0
0 0 0
58 58 58
36 36 36
36 36 36
87 87 87
105 105 105
54 54 54
22 22 22
65 105 225
87 87 87
80 80 80
152 152 152
152 152 152
166 166 166
170 170 170
238 214 175
173 173 173
177 177 177
170 170 170
166 166 166
166 166 166
173 173 173
173 173 173
177 177 177
177 177 177
166 166 166
177 177 177
218 194 155
177 177 177
238 214 175
177 177 177
238 214 175
238 214 175
238 214 175
238 214 175
238 214 175
238 214 175
238 214 175
238 214 175
177 177 177
238 214 175
238 214 175
238 214 175
177 177 177
177 177 177
218 194 155
218 194 155
177 177 177
218 194 155
218 194 155
170 170 170
162 162 162
166 166 166
166 166 166
162 162 162
162 162 162
159 159 159
72 72 72
94 94 94
83 83 83
0 0 0
0 0 0
0 0 0
0 0 0
87 87 87
94 94 94
90 90 90
72 72 72
94 94 94
108 108 108
83 83 83
108 108 108
69 69 69
90 90 90
152 152 152
137 137 137
152 152 152
162 162 162
238 214 175
238 214 175
170 170 170
238 214 175
166 166 166
162 162 162
218 194 155
159 159 159
238 214 175
177 177 177
238 214 175
170 170 170
177 177 177
173 173 173
238 214 175
238 214 175
177 177 177
173 173 173
238 214 175
238 214 175
218 194 155
218 194 155
218 194 155
238 214 175
238 214 175
238 214 175
238 214 175
177 177 177
218 194 155
218 194 155
177 177 177
218 194 155
177 177 177
218 194 155
218 194 155
218 194 155
218 194 155
177 177 177
218 194 155
166 166 166
170 170 170
170 170 170
116 116 116
105 105 105
90 90 90
76 76 76
18 18 18
0 0 0
0 0 0
0 0 0
87 87 87
76 76 76
112 112 112
83 83 83
141 141 141
101 101 101
126 126 126
126 126 126
134 134 134
141 141 141
141 141 141
148 148 148
166 166 166
170 170 170
173 173 173
177 177 177
238 214 175
238 214 175
159 159 159
177 177 177
159 159 159
159 159 159
238 214 175
177 177 177
173 173 173
173 173 173
177 177 177
238 214 175
238 214 175
238 214 175
177 177 177
177 177 177
238 214 175
218 194 155
218 194 155
218 194 155
218 194 155
218 194 155
238 214 175
238 214 175
238 214 175
218 194 155
218 194 155
218 194 155
218 194 155
177 177 177
218 194 155
218 194 155
173 173 173
177 177 177
173 173 173
173 173 173
155 155 155
170 170 170
155 155 155
155 155 155
126 126 126
101 101 101
119 119 119
108 108 108
0 0 0
0 0 0
0 0 0
76 76 76
87 87 87
76 76 76
90 90 90
137 137 137
148 148 148
130 130 130
155 155 155
159 159 159
159 159 159
166 166 166
155 155 155
166 166 166
170 170 170
177 177 177
177 177 177
177 177 177
173 173 173
177 177 177
173 173 173
173 173 173
166 166 166
238 214 175
238 214 175
177 177 177
238 214 175
238 214 175
238 214 175
238 214 175
238 214 175
177 177 177
238 214 175
238 214 175
218 194 155
218 194 155
218 194 155
218 194 155
218 194 155
218 194 155
238 214 175
238 214 175
238 214 175
218 194 155
218 194 155
218 194 155
218 194 155
218 194 155
218 194 155
218 194 155
177 177 177
177 177 177
177 177 177
166 166 166
166 166 166
173 173 173
170 170 170
137 137 137
144 144 144
105 105 105
90 90 90
98 98 98
4 4 4
8 8 8
69 69 69
90 90 90
105 105 105
119 119 119
155 155 155
144 144 144
137 137 137
148 148 148
155 155 155
148 148 148
162 162 162
166 166 166
177 177 177
166 166 166
177 177 177
170 170 170
177 177 177
173 173 173
238 214 175
238 214 175
177 177 177
177 177 177
238 214 175
238 214 175
177 177 177
177 177 177
177 177 177
177 177 177
177 177 177
238 214 175
238 214 175
238 214 175
238 214 175
238 214 175
218 194 155
218 194 155
218 194 155
235 235 235
218 194 155
177 177 177
238 214 175
238 214 175
238 214 175
218 194 155
218 194 155
198 174 135
198 174 135
177 177 177
218 194 155
218 194 155
177 177 177
177 177 177
173 173 173
218 194 155
170 170 170
173 173 173
159 159 159
130 130 130
130 130 130
152 152 152
76 76 76
108 108 108
51 51 51
0 0 0
98 98 98
98 98 98
112 112 112
94 94 94
148 148 148
159 159 159
162 162 162
155 155 155
162 162 162
173 173 173
173 173 173
162 162 162
177 177 177
173 173 173
238 214 175
166 166 166
238 214 175
177 177 177
177 177 177
238 214 175
173 173 173
238 214 175
173 173 173
177 177 177
238 214 175
238 214 175
238 214 175
238 214 175
238 214 175
238 214 175
238 214 175
238 214 175
238 214 175
238 214 175
238 214 175
218 194 155
218 194 155
235 235 235
218 194 155
218 194 155
238 214 175
238 214 175
238 214 175
218 194 155
218 194 155
177 177 177
198 174 135
198 174 135
218 194 155
218 194 155
218 194 155
173 173 173
173 173 173
162 162 162
148 148 148
148 148 148
162 162 162
134 134 134
137 137 137
126 126 126
126 126 126
65 65 65
15 15 15
22 22 22
11 11 11
119 119 119
116 116 116
137 137 137
144 144 144
170 170 170
177 177 177
162 162 162
177 177 177
238 214 175
173 173 173
173 173 173
162 162 162
238 214 175
173 173 173
177 177 177
177 177 177
173 173 173
177 177 177
218 194 155
177 177 177
238 214 175
173 173 173
177 177 177
238 214 175
238 214 175
238 214 175
238 214 175
238 214 175
177 177 177
238 214 175
238 214 175
238 214 175
238 214 175
238 214 175
218 194 155
218 194 155
218 194 155
218 194 155
218 194 155
218 194 155
238 214 175
238 214 175
238 214 175
218 194 155
218 194 155
218 194 155
218 194 155
177 177 177
218 194 155
198 174 135
198 174 135
173 173 173
198 174 135
166 166 166
170 170 170
162 162 162
162 162 162
141 141 141
166 166 166
130 130 130
80 80 80
36 36 36
44 44 44
65 65 65
87 87 87
134 134 134
98 98 98
144 144 144
159 159 159
173 173 173
159 159 159
170 170 170
173 173 173
173 173 173
173 173 173
177 177 177
177 177 177
173 173 173
238 214 175
177 177 177
173 173 173
218 194 155
218 194 155
173 173 173
177 177 177
177 177 177
238 214 175
177 177 177
238 214 175
177 177 177
238 214 175
238 214 175
238 214 175
238 214 175
238 214 175
238 214 175
238 214 175
238 214 175
218 194 155
218 194 155
218 194 155
218 194 155
218 194 155
218 194 155
238 214 175
238 214 175
238 214 175
218 194 155
218 194 155
218 194 155
218 194 155
218 194 155
173 173 173
177 177 177
173 173 173
162 162 162
166 166 166
148 148 148
144 144 144
170 170 170
148 148 148
152 152 152
148 148 148
148 148 148
123 123 123
116 116 116
80 80 80
119 119 119
112 112 112
123 123 123
116 116 116
162 162 162
159 159 159
170 170 170
173 173 173
177 177 177
166 166 166
177 177 177
170 170 170
173 173 173
173 173 173
177 177 177
177 177 177
218 194 155
235 235 235
235 235 235
235 235 235
235 235 235
218 194 155
177 177 177
218 194 155
238 214 175
177 177 177
238 214 175
238 214 175
238 214 175
238 214 175
238 214 175
238 214 175
238 214 175
238 214 175
238 214 175
238 214 175
218 194 155
218 194 155
218 194 155
218 194 155
218 194 155
238 214 175
238 214 175
238 214 175
238 214 175
218 194 155
218 194 155
218 194 155
218 194 155
177 177 177
173 173 173
170 170 170
155 155 155
65 105 225
65 105 225
148 148 148
126 126 126
116 116 116
159 159 159
162 162 162
144 144 144
116 116 116
134 134 134
134 134 134
101 101 101
123 123 123
123 123 123
162 162 162
170 170 170
238 214 175
177 177 177
238 214 175
173 173 173
173 173 173
177 177 177
177 177 177
177 177 177
170 170 170
177 177 177
177 177 177
235 235 235
235 235 235
235 235 235
235 235 235
235 235 235
235 235 235
177 177 177
218 194 155
218 194 155
238 214 175
177 177 177
238 214 175
238 214 175
238 214 175
238 214 175
238 214 175
238 214 175
238 214 175
238 214 175
238 214 175
238 214 175
218 194 155
218 194 155
218 194 155
218 194 155
238 214 175
238 214 175
238 214 175
238 214 175
238 214 175
238 214 175
218 194 155
218 194 155
173 173 173
173 173 173
155 155 155
65 105 225
65 105 225
65 105 225
65 105 225
65 105 225
134 134 134
137 137 137
126 126 126
144 144 144
148 148 148
148 148 148
126 126 126
130 130 130
112 112 112
159 159 159
173 173 173
162 162 162
177 177 177
170 170 170
170 170 170
170 170 170
173 173 173
173 173 173
173 173 173
173 173 173
173 173 173
173 173 173
238 214 175
235 235 235
235 235 235
235 235 235
235 235 235
235 235 235
235 235 235
235 235 235
177 177 177
218 194 155
238 214 175
238 214 175
238 214 175
238 214 175
238 214 175
238 214 175
238 214 175
238 214 175
238 214 175
238 214 175
238 214 175
238 214 175
238 214 175
238 214 175
238 214 175
238 214 175
238 214 175
238 214 175
238 214 175
238 214 175
238 214 175
238 214 175
238 214 175
177 177 177
198 174 135
170 170 170
65 105 225
65 105 225
65 105 225
65 105 225
65 105 225
65 105 225
148 148 148
159 159 159
155 155 155
162 162 162
173 173 173
166 166 166
173 173 173
159 159 159
155 155 155
155 155 155
152 152 152
177 177 177
166 166 166
155 155 155
177 177 177
170 170 170
238 214 175
173 173 173
238 214 175
173 173 173
170 170 170
238 214 175
177 177 177
235 235 235
235 235 235
235 235 235
235 235 235
235 235 235
235 235 235
235 235 235
218 194 155
218 194 155
177 177 177
238 214 175
238 214 175
238 214 175
238 214 175
238 214 175
238 214 175
238 214 175
238 214 175
238 214 175
238 214 175
238 214 175
238 214 175
238 214 175
238 214 175
238 214 175
238 214 175
238 214 175
238 214 175
238 214 175
238 214 175
238 214 175
238 214 175
173 173 173
177 177 177
178 154 115
65 105 225
65 105 225
65 105 225
65 105 225
65 105 225
65 105 225
130 130 130
173 173 173
162 162 162
218 194 155
170 170 170
162 162 162
155 155 155
170 170 170
166 166 166
166 166 166
170 170 170
173 173 173
177 177 177
170 170 170
166 166 166
173 173 173
238 214 175
173 173 173
177 177 177
170 170 170
238 214 175
238 214 175
177 177 177
235 235 235
235 235 235
235 235 235
235 235 235
235 235 235
235 235 235
235 235 235
218 194 155
218 194 155
238 214 175
238 214 175
238 214 175
238 214 175
238 214 175
238 214 175
238 214 175
218 194 155
218 194 155
218 194 155
218 194 155
238 214 175
238 214 175
238 214 175
238 214 175
238 214 175
238 214 175
238 214 175
238 214 175
238 214 175
238 214 175
238 214 175
238 214 175
218 194 155
173 173 173
178 154 115
65 105 225
65 105 225
65 105 225
65 105 225
65 105 225
65 105 225
159 159 159
166 166 166
166 166 166
162 162 162
177 177 177
238 214 175
166 166 166
162 162 162
173 173 173
177 177 177
162 162 162
173 173 173
177 177 177
173 173 173
177 177 177
177 177 177
166 166 166
238 214 175
173 173 173
238 214 175
238 214 175
177 177 177
238 214 175
235 235 235
235 235 235
235 235 235
235 235 235
235 235 235
235 235 235
218 194 155
218 194 155
238 214 175
238 214 175
238 214 175
238 214 175
238 214 175
238 214 175
218 194 155
218 194 155
218 194 155
218 194 155
218 194 155
218 194 155
218 194 155
218 194 155
238 214 175
238 214 175
238 214 175
238 214 175
238 214 175
238 214 175
238 214 175
238 214 175
177 177 177
238 214 175
177 177 177
177 177 177
177 177 177
65 105 225
65 105 225
65 105 225
65 105 225
65 105 225
65 105 225
152 152 152
162 162 162
177 177 177
177 177 177
177 177 177
238 214 175
177 177 177
173 173 173
170 170 170
238 214 175
238 214 175
170 170 170
170 170 170
170 170 170
177 177 177
177 177 177
177 177 177
173 173 173
173 173 173
177 177 177
238 214 175
177 177 177
177 177 177
235 235 235
235 235 235
235 235 235
235 235 235
235 235 235
235 235 235
218 194 155
218 194 155
238 214 175
238 214 175
238 214 175
238 214 175
238 214 175
218 194 155
218 194 155
218 194 155
198 174 135
198 174 135
198 174 135
218 194 155
218 194 155
218 194 155
238 214 175
238 214 175
238 214 175
238 214 175
238 214 175
238 214 175
238 214 175
238 214 175
238 214 175
238 214 175
177 177 177
177 177 177
177 177 177
65 105 225
65 105 225
65 105 225
65 105 225
65 105 225
65 105 225
166 166 166
170 170 170
177 177 177
238 214 175
238 214 175
177 177 177
177 177 177
238 214 175
173 173 173
177 177 177
238 214 175
177 177 177
173 173 173
177 177 177
170 170 170
173 173 173
170 170 170
177 177 177
173 173 173
238 214 175
238 214 175
177 177 177
177 177 177
235 235 235
235 235 235
235 235 235
235 235 235
235 235 235
218 194 155
218 194 155
238 214 175
238 214 175
238 214 175
238 214 175
218 194 155
218 194 155
218 194 155
198 174 135
198 174 135
198 174 135
198 174 135
198 174 135
198 174 135
218 194 155
218 194 155
238 214 175
238 214 175
238 214 175
238 214 175
238 214 175
238 214 175
238 214 175
238 214 175
238 214 175
177 177 177
177 177 177
198 174 135
173 173 173
65 105 225
65 105 225
65 105 225
65 105 225
65 105 225
65 105 225
173 173 173
173 173 173
177 177 177
238 214 175
173 173 173
177 177 177
177 177 177
238 214 175
177 177 177
238 214 175
177 177 177
170 170 170
162 162 162
177 177 177
177 177 177
177 177 177
238 214 175
177 177 177
238 214 175
238 214 175
173 173 173
218 194 155
218 194 155
235 235 235
235 235 235
235 235 235
218 194 155
218 194 155
218 194 155
238 214 175
238 214 175
238 214 175
238 214 175
218 194 155
218 194 155
198 174 135
198 174 135
198 174 135
178 154 115
178 154 115
198 174 135
198 174 135
198 174 135
218 194 155
218 194 155
238 214 175
238 214 175
238 214 175
238 214 175
238 214 175
238 214 175
238 214 175
238 214 175
238 214 175
177 177 177
218 194 155
177 177 177
177 177 177
65 105 225
65 105 225
65 105 225
65 105 225
65 105 225
65 105 225
177 177 177
218 194 155
177 177 177
238 214 175
238 214 175
238 214 175
177 177 177
177 177 177
238 214 175
177 177 177
170 170 170
177 177 177
177 177 177
173 173 173
173 173 173
166 166 166
166 166 166
177 177 177
173 173 173
173 173 173
177 177 177
218 194 155
173 173 173
218 194 155
218 194 155
218 194 155
218 194 155
218 194 155
238 214 175
238 214 175
238 214 175
238 214 175
218 194 155
218 194 155
198 174 135
198 174 135
178 154 115
178 154 115
178 154 115
178 154 115
198 174 135
198 174 135
218 194 155
218 194 155
238 214 175
238 214 175
238 214 175
238 214 175
238 214 175
238 214 175
238 214 175
238 214 175
238 214 175
238 214 175
238 214 175
218 194 155
173 173 173
198 174 135
177 177 177
65 105 225
65 105 225
65 105 225
173 173 173
177 177 177
198 174 135
173 173 173
238 214 175
238 214 175
177 177 177
177 177 177
177 177 177
238 214 175
238 214 175
238 214 175
173 173 173
177 177 177
177 177 177
170 170 170
173 173 173
173 173 173
177 177 177
177 177 177
173 173 173
173 173 173
218 194 155
198 174 135
198 174 135
218 194 155
218 194 155
218 194 155
238 214 175
238 214 175
238 214 175
238 214 175
218 194 155
218 194 155
218 194 155
198 174 135
198 174 135
178 154 115
65 105 225
65 105 225
65 105 225
178 154 115
198 174 135
198 174 135
218 194 155
218 194 155
238 214 175
238 214 175
238 214 175
177 177 177
238 214 175
238 214 175
173 173 173
238 214 175
238 214 175
238 214 175
238 214 175
173 173 173
173 173 173
170 170 170
155 155 155
166 166 166
178 154 115
173 173 173
177 177 177
177 177 177
218 194 155
177 177 177
177 177 177
238 214 175
177 177 177
177 177 177
177 177 177
238 214 175
238 214 175
218 194 155
173 173 173
218 194 155
218 194 155
173 173 173
173 173 173
218 194 155
177 177 177
177 177 177
177 177 177
218 194 155
173 173 173
177 177 177
177 177 177
218 194 155
218 194 155
238 214 175
238 214 175
238 214 175
177 177 177
218 194 155
177 177 177
198 174 135
198 174 135
178 154 115
65 105 225
65 105 225
65 105 225
65 105 225
65 105 225
65 105 225
178 154 115
198 174 135
218 194 155
218 194 155
238 214 175
238 214 175
238 214 175
238 214 175
177 177 177
238 214 175
238 214 175
177 177 177
173 173 173
238 214 175
177 177 177
177 177 177
170 170 170
170 170 170
177 177 177
170 170 170
198 174 135
198 174 135
218 194 155
218 194 155
238 214 175
238 214 175
177 177 177
238 214 175
238 214 175
177 177 177
238 214 175
218 194 155
173 173 173
173 173 173
173 173 173
177 177 177
170 170 170
218 194 155
173 173 173
173 173 173
177 177 177
177 177 177
218 194 155
173 173 173
170 170 170
198 174 135
177 177 177
218 194 155
238 214 175
238 214 175
238 214 175
218 194 155
177 177 177
198 174 135
198 174 135
178 154 115
65 105 225
65 105 225
65 105 225
65 105 225
65 105 225
65 105 225
65 105 225
65 105 225
178 154 115
198 174 135
218 194 155
218 194 155
238 214 175
238 214 175
238 214 175
238 214 175
238 214 175
238 214 175
177 177 177
238 214 175
218 194 155
218 194 155
177 177 177
173 173 173
218 194 155
173 173 173
177 177 177
177 177 177
218 194 155
177 177 177
238 214 175
238 214 175
238 214 175
238 214 175
238 214 175
238 214 175
238 214 175
238 214 175
218 194 155
218 194 155
218 194 155
177 177 177
218 194 155
218 194 155
218 194 155
170 170 170
218 194 155
173 173 173
218 194 155
218 194 155
173 173 173
170 170 170
198 174 135
177 177 177
178 154 115
218 194 155
238 214 175
238 214 175
218 194 155
218 194 155
198 174 135
177 177 177
65 105 225
65 105 225
65 105 225
65 105 225
65 105 225
65 105 225
65 105 225
65 105 225
65 105 225
65 105 225
178 154 115
198 174 135
198 174 135
218 194 155
238 214 175
238 214 175
177 177 177
177 177 177
238 214 175
177 177 177
218 194 155
218 194 155
173 173 173
177 177 177
173 173 173
177 177 177
218 194 155
177 177 177
177 177 177
218 194 155
173 173 173
238 214 175
177 177 177
238 214 175
238 214 175
238 214 175
177 177 177
177 177 177
177 177 177
218 194 155
177 177 177
173 173 173
218 194 155
218 194 155
177 177 177
173 173 173
218 194 155
170 170 170
177 177 177
218 194 155
177 177 177
173 173 173
218 194 155
177 177 177
177 177 177
177 177 177
198 174 135
238 214 175
238 214 175
238 214 175
218 194 155
198 174 135
177 177 177
65 105 225
65 105 225
65 105 225
65 105 225
65 105 225
65 105 225
65 105 225
65 105 225
65 105 225
65 105 225
65 105 225
65 105 225
198 174 135
198 174 135
218 194 155
218 194 155
218 194 155
218 194 155
173 173 173
177 177 177
177 177 177
162 162 162
170 170 170
159 159 159
173 173 173
166 166 166
170 170 170
177 177 177
173 173 173
177 177 177
173 173 173
173 173 173
238 214 175
177 177 177
238 214 175
238 214 175
238 214 175
238 214 175
238 214 175
238 214 175
177 177 177
173 173 173
218 194 155
177 177 177
218 194 155
218 194 155
218 194 155
173 173 173
170 170 170
177 177 177
173 173 173
170 170 170
177 177 177
173 173 173
177 177 177
177 177 177
198 174 135
177 177 177
238 214 175
238 214 175
218 194 155
177 177 177
178 154 115
65 105 225
65 105 225
65 105 225
65 105 225
65 105 225
65 105 225
65 105 225
65 105 225
65 105 225
65 105 225
65 105 225
65 105 225
65 105 225
198 174 135
177 177 177
198 174 135
218 194 155
177 177 177
218 194 155
177 177 177
198 174 135
162 162 162
166 166 166
166 166 166
162 162 162
137 137 137
152 152 152
173 173 173
173 173 173
218 194 155
177 177 177
238 214 175
173 173 173
238 214 175
238 214 175
238 214 175
238 214 175
238 214 175
238 214 175
238 214 175
218 194 155
218 194 155
166 166 166
198 174 135
198 174 135
218 194 155
177 177 177
177 177 177
218 194 155
218 194 155
177 177 177
177 177 177
173 173 173
198 174 135
173 173 173
177 177 177
198 174 135
198 174 135
198 174 135
238 214 175
238 214 175
218 194 155
170 170 170
170 170 170
65 105 225
65 105 225
65 105 225
65 105 225
65 105 225
65 105 225
65 105 225
65 105 225
65 105 225
65 105 225
65 105 225
65 105 225
65 105 225
178 154 115
198 174 135
198 174 135
198 174 135
198 174 135
177 177 177
177 177 177
170 170 170
65 105 225
65 105 225
65 105 225
144 144 144
173 173 173
134 134 134
166 166 166
166 166 166
177 177 177
166 166 166
170 170 170
238 214 175
173 173 173
238 214 175
238 214 175
238 214 175
238 214 175
238 214 175
177 177 177
218 194 155
177 177 177
170 170 170
198 174 135
173 173 173
173 173 173
218 194 155
173 173 173
173 173 173
177 177 177
198 174 135
177 177 177
173 173 173
177 177 177
173 173 173
177 177 177
177 177 177
218 194 155
218 194 155
238 214 175
218 194 155
218 194 155
198 174 135
65 105 225
65 105 225
65 105 225
65 105 225
65 105 225
65 105 225
65 105 225
65 105 225
65 105 225
65 105 225
65 105 225
65 105 225
65 105 225
173 173 173
177 177 177
198 174 135
198 174 135
198 174 135
198 174 135
173 173 173
65 105 225
65 105 225
65 105 225
65 105 225
65 105 225
65 105 225
116 116 116
134 134 134
162 162 162
159 159 159
173 173 173
238 214 175
166 166 166
238 214 175
238 214 175
177 177 177
238 214 175
238 214 175
238 214 175
238 214 175
177 177 177
170 170 170
218 194 155
177 177 177
173 173 173
170 170 170
173 173 173
173 173 173
173 173 173
198 174 135
198 174 135
177 177 177
177 177 177
198 174 135
198 174 135
198 174 135
177 177 177
198 174 135
218 194 155
218 194 155
218 194 155
218 194 155
177 177 177
198 174 135
166 166 166
65 105 225
65 105 225
65 105 225
65 105 225
65 105 225
65 105 225
65 105 225
65 105 225
65 105 225
65 105 225
65 105 225
65 105 225
177 177 177
178 154 115
198 174 135
198 174 135
198 174 135
177 177 177
65 105 225
65 105 225
65 105 225
65 105 225
65 105 225
65 105 225
65 105 225
119 119 119
148 148 148
144 144 144
162 162 162
170 170 170
170 170 170
238 214 175
177 177 177
238 214 175
177 177 177
177 177 177
238 214 175
238 214 175
177 177 177
218 194 155
218 194 155
218 194 155
218 194 155
177 177 177
177 177 177
218 194 155
177 177 177
198 174 135
198 174 135
177 177 177
173 173 173
177 177 177
178 154 115
177 177 177
198 174 135
198 174 135
198 174 135
218 194 155
218 194 155
177 177 177
173 173 173
170 170 170
198 174 135
170 170 170
166 166 166
65 105 225
65 105 225
65 105 225
65 105 225
65 105 225
65 105 225
65 105 225
65 105 225
65 105 225
65 105 225
65 105 225
178 154 115
177 177 177
178 154 115
178 154 115
177 177 177
65 105 225
65 105 225
65 105 225
65 105 225
65 105 225
65 105 225
65 105 225
65 105 225
65 105 225
126 126 126
116 116 116
166 166 166
155 155 155
173 173 173
238 214 175
173 173 173
177 177 177
238 214 175
173 173 173
238 214 175
173 173 173
238 214 175
238 214 175
173 173 173
170 170 170
173 173 173
177 177 177
218 194 155
170 170 170
173 173 173
177 177 177
177 177 177
173 173 173
65 105 225
65 105 225
65 105 225
177 177 177
198 174 135
198 174 135
198 174 135
218 194 155
218 194 155
198 174 135
173 173 173
170 170 170
177 177 177
173 173 173
170 170 170
159 159 159
162 162 162
65 105 225
65 105 225
65 105 225
65 105 225
65 105 225
65 105 225
65 105 225
65 105 225
65 105 225
65 105 225
177 177 177
177 177 177
177 177 177
65 105 225
65 105 225
65 105 225
65 105 225
65 105 225
65 105 225
65 105 225
65 105 225
65 105 225
65 105 225
51 51 51
112 112 112
137 137 137
173 173 173
166 166 166
155 155 155
173 173 173
173 173 173
173 173 173
173 173 173
177 177 177
177 177 177
173 173 173
238 214 175
238 214 175
177 177 177
177 177 177
177 177 177
218 194 155
218 194 155
218 194 155
198 174 135
170 170 170
65 105 225
65 105 225
65 105 225
65 105 225
65 105 225
177 177 177
198 174 135
198 174 135
218 194 155
218 194 155
173 173 173
177 177 177
173 173 173
155 155 155
166 166 166
166 166 166
148 148 148
152 152 152
166 166 166
162 162 162
137 137 137
65 105 225
65 105 225
65 105 225
65 105 225
65 105 225
65 105 225
65 105 225
65 105 225
65 105 225
65 105 225
65 105 225
65 105 225
65 105 225
65 105 225
65 105 225
65 105 225
65 105 225
65 105 225
65 105 225
65 105 225
65 65 65
130 130 130
130 130 130
148 148 148
173 173 173
170 170 170
173 173 173
177 177 177
177 177 177
170 170 170
177 177 177
238 214 175
173 173 173
177 177 177
173 173 173
173 173 173
238 214 175
238 214 175
238 214 175
218 194 155
218 194 155
173 173 173
65 105 225
65 105 225
65 105 225
65 105 225
65 105 225
65 105 225
65 105 225
198 174 135
173 173 173
218 194 155
218 194 155
177 177 177
177 177 177
170 170 170
173 173 173
177 177 177
177 177 177
162 162 162
162 162 162
170 170 170
177 177 177
159 159 159
159 159 159
141 141 141
65 105 225
65 105 225
65 105 225
65 105 225
65 105 225
65 105 225
65 105 225
65 105 225
65 105 225
65 105 225
65 105 225
65 105 225
65 105 225
65 105 225
65 105 225
65 105 225
65 105 225
65 105 225
62 62 62
105 105 105
144 144 144
137 137 137
144 144 144
148 148 148
155 155 155
173 173 173
170 170 170
177 177 177
173 173 173
173 173 173
177 177 177
173 173 173
173 173 173
177 177 177
238 214 175
238 214 175
177 177 177
238 214 175
218 194 155
173 173 173
65 105 225
65 105 225
65 105 225
65 105 225
65 105 225
65 105 225
65 105 225
198 174 135
198 174 135
218 194 155
218 194 155
166 166 166
166 166 166
155 155 155
170 170 170
177 177 177
166 166 166
159 159 159
177 177 177
173 173 173
173 173 173
166 166 166
162 162 162
159 159 159
173 173 173
65 105 225
65 105 225
65 105 225
65 105 225
65 105 225
65 105 225
65 105 225
65 105 225
65 105 225
65 105 225
65 105 225
65 105 225
65 105 225
65 105 225
65 105 225
65 105 225
65 105 225
29 29 29
98 98 98
98 98 98
144 144 144
159 159 159
137 137 137
166 166 166
170 170 170
173 173 173
162 162 162
177 177 177
170 170 170
170 170 170
173 173 173
173 173 173
218 194 155
238 214 175
238 214 175
238 214 175
177 177 177
218 194 155
198 174 135
65 105 225
65 105 225
65 105 225
65 105 225
65 105 225
65 105 225
65 105 225
177 177 177
198 174 135
218 194 155
218 194 155
198 174 135
170 170 170
170 170 170
177 177 177
170 170 170
177 177 177
170 170 170
177 177 177
166 166 166
238 214 175
170 170 170
162 162 162
144 144 144
116 116 116
65 105 225
65 105 225
65 105 225
65 105 225
65 105 225
65 105 225
65 105 225
65 105 225
65 105 225
65 105 225
65 105 225
65 105 225
65 105 225
65 105 225
65 105 225
65 105 225
18 18 18
116 116 116
108 108 108
94 94 94
112 112 112
148 148 148
152 152 152
155 155 155
170 170 170
166 166 166
177 177 177
155 155 155
173 173 173
173 173 173
177 177 177
173 173 173
218 194 155
177 177 177
238 214 175
238 214 175
238 214 175
218 194 155
177 177 177
65 105 225
65 105 225
65 105 225
65 105 225
65 105 225
65 105 225
65 105 225
177 177 177
198 174 135
218 194 155
218 194 155
198 174 135
177 177 177
173 173 173
173 173 173
170 170 170
159 159 159
170 170 170
177 177 177
177 177 177
238 214 175
177 177 177
166 166 166
177 177 177
170 170 170
123 123 123
65 105 225
65 105 225
65 105 225
65 105 225
65 105 225
65 105 225
65 105 225
65 105 225
65 105 225
65 105 225
65 105 225
65 105 225
65 105 225
58 58 58
47 47 47
94 94 94
105 105 105
76 76 76
47 47 47
101 101 101
83 83 83
144 144 144
159 159 159
162 162 162
173 173 173
173 173 173
166 166 166
170 170 170
166 166 166
218 194 155
177 177 177
218 194 155
218 194 155
238 214 175
238 214 175
238 214 175
177 177 177
177 177 177
65 105 225
65 105 225
65 105 225
65 105 225
65 105 225
65 105 225
65 105 225
178 154 115
198 174 135
177 177 177
218 194 155
173 173 173
177 177 177
170 170 170
177 177 177
162 162 162
218 194 155
177 177 177
173 173 173
173 173 173
177 177 177
148 148 148
170 170 170
173 173 173
155 155 155
166 166 166
105 105 105
116 116 116
65 105 225
65 105 225
65 105 225
65 105 225
65 105 225
65 105 225
65 105 225
65 105 225
65 105 225
80 80 80
51 51 51
116 116 116
119 119 119
112 112 112
123 123 123
87 87 87
65 65 65
76 76 76
112 112 112
108 108 108
152 152 152
137 137 137
162 162 162
162 162 162
173 173 173
144 144 144
170 170 170
166 166 166
170 170 170
173 173 173
170 170 170
238 214 175
238 214 175
177 177 177
177 177 177
170 170 170
178 154 115
65 105 225
65 105 225
65 105 225
65 105 225
65 105 225
65 105 225
198 174 135
198 174 135
218 194 155
218 194 155
198 174 135
198 174 135
170 170 170
177 177 177
166 166 166
173 173 173
177 177 177
238 214 175
173 173 173
173 173 173
238 214 175
173 173 173
173 173 173
155 155 155
159 159 159
152 152 152
159 159 159
162 162 162
152 152 152
137 137 137
137 137 137
65 105 225
65 105 225
65 105 225
72 72 72
105 105 105
116 116 116
123 123 123
112 112 112
159 159 159
134 134 134
108 108 108
126 126 126
108 108 108
112 112 112
94 94 94
119 119 119
159 159 159
162 162 162
166 166 166
177 177 177
162 162 162
173 173 173
166 166 166
177 177 177
173 173 173
177 177 177
238 214 175
173 173 173
238 214 175
177 177 177
218 194 155
198 174 135
162 162 162
65 105 225
65 105 225
65 105 225
65 105 225
65 105 225
198 174 135
177 177 177
218 194 155
218 194 155
218 194 155
173 173 173
177 177 177
170 170 170
166 166 166
155 155 155
173 173 173
173 173 173
166 166 166
177 177 177
173 173 173
177 177 177
238 214 175
177 177 177
173 173 173
159 159 159
162 162 162
159 159 159
159 159 159
141 141 141
152 152 152
152 152 152
159 159 159
105 105 105
83 83 83
144 144 144
130 130 130
144 144 144
152 152 152
152 152 152
152 152 152
170 170 170
155 155 155
148 148 148
148 148 148
98 98 98
119 119 119
137 137 137
166 166 166
152 152 152
166 166 166
177 177 177
173 173 173
166 166 166
177 177 177
173 173 173
173 173 173
238 214 175
238 214 175
238 214 175
238 214 175
177 177 177
218 194 155
173 173 173
173 173 173
65 105 225
65 105 225
65 105 225
166 166 166
177 177 177
173 173 173
218 194 155
218 194 155
238 214 175
238 214 175
173 173 173
173 173 173
162 162 162
170 170 170
173 173 173
177 177 177
238 214 175
177 177 177
238 214 175
177 177 177
170 170 170
238 214 175
170 170 170
173 173 173
173 173 173
166 166 166
170 170 170
170 170 170
177 177 177
166 166 166
159 159 159
162 162 162
155 155 155
159 159 159
148 148 148
126 126 126
159 159 159
170 170 170
162 162 162
166 166 166
166 166 166
170 170 170
173 173 173
141 141 141
141 141 141
105 105 105
155 155 155
170 170 170
137 137 137
173 173 173
177 177 177
170 170 170
177 177 177
170 170 170
173 173 173
177 177 177
177 177 177
238 214 175
238 214 175
173 173 173
218 194 155
218 194 155
177 177 177
177 177 177
148 148 148
170 170 170
198 174 135
198 174 135
173 173 173
218 194 155
238 214 175
238 214 175
238 214 175
238 214 175
177 177 177
218 194 155
173 173 173
173 173 173
170 170 170
170 170 170
238 214 175
177 177 177
177 177 177
173 173 173
177 177 177
173 173 173
177 177 177
238 214 175
166 166 166
162 162 162
238 214 175
173 173 173
166 166 166
173 173 173
177 177 177
173 173 173
162 162 162
134 134 134
152 152 152
170 170 170
166 166 166
166 166 166
152 152 152
166 166 166
170 170 170
166 166 166
173 173 173
159 159 159
148 148 148
116 116 116
137 137 137
170 170 170
152 152 152
166 166 166
166 166 166
177 177 177
177 177 177
173 173 173
170 170 170
238 214 175
238 214 175
177 177 177
173 173 173
173 173 173
177 177 177
177 177 177
177 177 177
170 170 170
177 177 177
173 173 173
218 194 155
177 177 177
173 173 173
238 214 175
238 214 175
238 214 175
238 214 175
238 214 175
177 177 177
238 214 175
177 177 177
177 177 177
238 214 175
173 173 173
238 214 175
238 214 175
238 214 175
238 214 175
173 173 173
170 170 170
238 214 175
173 173 173
177 177 177
238 214 175
170 170 170
152 152 152
173 173 173
173 173 173
173 173 173
173 173 173
170 170 170
173 173 173
162 162 162
166 166 166
173 173 173
170 170 170
166 166 166
173 173 173
177 177 177
166 166 166
159 159 159
152 152 152
159 159 159
170 170 170
155 155 155
162 162 162
170 170 170
177 177 177
238 214 175
238 214 175
173 173 173
177 177 177
173 173 173
177 177 177
177 177 177
166 166 166
218 194 155
173 173 173
177 177 177
177 177 177
177 177 177
170 170 170
218 194 155
177 177 177
218 194 155
238 214 175
238 214 175
238 214 175
238 214 175
238 214 175
238 214 175
238 214 175
177 177 177
177 177 177
238 214 175
238 214 175
238 214 175
238 214 175
177 177 177
170 170 170
170 170 170
173 173 173
173 173 173
177 177 177
177 177 177
166 166 166
173 173 173
170 170 170
173 173 173
162 162 162
166 166 166
173 173 173
177 177 177
238 214 175
166 166 166
159 159 159
155 155 155
173 173 173
238 214 175
173 173 173
166 166 166
177 177 177
177 177 177
173 173 173
238 214 175
162 162 162
173 173 173
162 162 162
152 152 152
148 148 148
123 123 123
170 170 170
170 170 170
166 166 166
170 170 170
173 173 173
170 170 170
173 173 173
218 194 155
173 173 173
170 170 170
177 177 177
218 194 155
177 177 177
177 177 177
218 194 155
177 177 177
218 194 155
238 214 175
177 177 177
238 214 175
238 214 175
238 214 175
238 214 175
238 214 175
238 214 175
238 214 175
238 214 175
177 177 177
173 173 173
238 214 175
238 214 175
238 214 175
238 214 175
238 214 175
177 177 177
173 173 173
166 166 166
170 170 170
177 177 177
173 173 173
162 162 162
148 148 148
166 166 166
162 162 162
170 170 170
170 170 170
173 173 173
177 177 177
166 166 166
177 177 177
166 166 166
162 162 162
173 173 173
173 173 173
170 170 170
173 173 173
173 173 173
159 159 159
177 177 177
166 166 166
162 162 162
159 159 159
141 141 141
152 152 152
155 155 155
155 155 155
177 177 177
170 170 170
173 173 173
177 177 177
159 159 159
170 170 170
173 173 173
177 177 177
173 173 173
218 194 155
218 194 155
177 177 177
173 173 173
238 214 175
238 214 175
177 177 177
238 214 175
238 214 175
238 214 175
238 214 175
238 214 175
238 214 175
238 214 175
238 214 175
177 177 177
173 173 173
170 170 170
170 170 170
238 214 175
238 214 175
238 214 175
238 214 175
238 214 175
238 214 175
238 214 175
238 214 175
238 214 175
177 177 177
170 170 170
173 173 173
162 162 162
173 173 173
173 173 173
166 166 166
170 170 170
170 170 170
170 170 170
177 177 177
166 166 166
177 177 177
238 214 175
177 177 177
170 170 170
177 177 177
170 170 170
162 162 162
166 166 166
170 170 170
141 141 141
152 152 152
159 159 159
101 101 101
144 144 144
159 159 159
159 159 159
170 170 170
166 166 166
166 166 166
152 152 152
166 166 166
141 141 141
173 173 173
166 166 166
218 194 155
177 177 177
173 173 173
238 214 175
238 214 175
238 214 175
238 214 175
238 214 175
238 214 175
238 214 175
238 214 175
238 214 175
238 214 175
238 214 175
238 214 175
238 214 175
173 173 173
218 194 155
177 177 177
177 177 177
177 177 177
238 214 175
173 173 173
177 177 177
177 177 177
177 177 177
238 214 175
238 214 175
177 177 177
173 173 173
170 170 170
177 177 177
166 166 166
173 173 173
166 166 166
173 173 173
177 177 177
238 214 175
177 177 177
177 177 177
238 214 175
238 214 175
173 173 173
177 177 177
170 170 170
177 177 177
173 173 173
173 173 173
173 173 173
162 162 162
148 148 148
137 137 137
65 105 225
65 105 225
65 105 225
65 105 225
65 105 225
65 105 225
65 105 225
65 105 225
65 105 225
65 105 225
162 162 162
173 173 173
170 170 170
177 177 177
173 173 173
238 214 175
177 177 177
238 214 175
238 214 175
238 214 175
238 214 175
238 214 175
238 214 175
238 214 175
238 214 175
218 194 155
