P3
64 64
255
65 105 225
65 105 225
198 174 135
218 194 155
238 214 175
238 214 175
238 214 175
238 214 175
238 214 175
238 214 175
238 214 175
238 214 175
238 214 175
218 194 155
198 174 135
178 154 115
65 105 225
178 154 115
198 174 135
218 194 155
218 194 155
238 214 175
177 177 177
238 214 175
238 214 175
238 214 175
238 214 175
177 177 177
238 214 175
170 170 170
170 170 170
162 162 162
152 152 152
173 173 173
166 166 166
170 170 170
166 166 166
159 159 159
177 177 177
170 170 170
170 170 170
177 177 177
177 177 177
166 166 166
65 105 225
65 105 225
72 72 72
90 90 90
90 90 90
62 62 62
51 51 51
62 62 62
126 126 126
130 130 130
148 148 148
144 144 144
123 123 123
58 58 58
65 105 225
65 105 225
65 105 225
65 105 225
65 105 225
65 105 225
65 105 225
65 105 225
198 174 135
218 194 155
238 214 175
238 214 175
238 214 175
238 214 175
238 214 175
238 214 175
238 214 175
238 214 175
238 214 175
218 194 155
178 154 115
65 105 225
65 105 225
65 105 225
198 174 135
177 177 177
218 194 155
218 194 155
177 177 177
238 214 175
177 177 177
238 214 175
177 177 177
177 177 177
177 177 177
173 173 173
162 162 162
166 166 166
162 162 162
177 177 177
177 177 177
166 166 166
166 166 166
166 166 166
173 173 173
177 177 177
177 177 177
159 159 159
141 141 141
101 101 101
65 105 225
65 105 225
65 105 225
65 105 225
65 105 225
65 105 225
65 105 225
58 58 58
83 83 83
126 126 126
152 152 152
105 105 105
108 108 108
65 105 225
65 105 225
65 105 225
65 105 225
65 105 225
65 105 225
65 105 225
65 105 225
65 105 225
198 174 135
218 194 155
238 214 175
238 214 175
238 214 175
238 214 175
238 214 175
238 214 175
238 214 175
238 214 175
238 214 175
198 174 135
178 154 115
65 105 225
65 105 225
65 105 225
65 105 225
198 174 135
177 177 177
218 194 155
218 194 155
238 214 175
238 214 175
177 177 177
238 214 175
173 173 173
166 166 166
152 152 152
159 159 159
166 166 166
162 162 162
173 173 173
141 141 141
155 155 155
159 159 159
173 173 173
177 177 177
170 170 170
177 177 177
159 159 159
159 159 159
76 76 76
65 105 225
65 105 225
65 105 225
65 105 225
65 105 225
65 105 225
0 0 0
4 4 4
69 69 69
87 87 87
94 94 94
94 94 94
58 58 58
65 105 225
65 105 225
65 105 225
65 105 225
65 105 225
65 105 225
65 105 225
65 105 225
65 105 225
198 174 135
218 194 155
238 214 175
238 214 175
238 214 175
238 214 175
238 214 175
238 214 175
238 214 175
238 214 175
238 214 175
198 174 135
177 177 177
65 105 225
65 105 225
65 105 225
65 105 225
173 173 173
173 173 173
177 177 177
238 214 175
173 173 173
177 177 177
173 173 173
238 214 175
177 177 177
162 162 162
162 162 162
119 119 119
141 141 141
218 194 155
173 173 173
173 173 173
170 170 170
170 170 170
173 173 173
173 173 173
170 170 170
166 166 166
148 148 148
148 148 148
33 33 33
65 105 225
65 105 225
65 105 225
65 105 225
65 105 225
11 11 11
0 0 0
94 94 94
105 105 105
72 72 72
80 80 80
123 123 123
22 22 22
65 105 225
65 105 225
65 105 225
65 105 225
65 105 225
65 105 225
65 105 225
65 105 225
65 105 225
198 174 135
218 194 155
238 214 175
238 214 175
238 214 175
238 214 175
238 214 175
238 214 175
238 214 175
238 214 175
218 194 155
198 174 135
178 154 115
65 105 225
65 105 225
65 105 225
65 105 225
178 154 115
198 174 135
218 194 155
238 214 175
177 177 177
173 173 173
173 173 173
173 173 173
177 177 177
170 170 170
162 162 162
134 134 134
116 116 116
144 144 144
141 141 141
148 148 148
173 173 173
173 173 173
162 162 162
170 170 170
162 162 162
173 173 173
166 166 166
155 155 155
134 134 134
65 105 225
65 105 225
65 105 225
65 105 225
4 4 4
72 72 72
54 54 54
62 62 62
101 101 101
90 90 90
83 83 83
119 119 119
4 4 4
65 105 225
65 105 225
65 105 225
65 105 225
116 116 116
144 144 144
166 166 166
65 105 225
65 105 225
198 174 135
218 194 155
218 194 155
238 214 175
238 214 175
238 214 175
238 214 175
238 214 175
238 214 175
238 214 175
218 194 155
218 194 155
177 177 177
177 177 177
65 105 225
65 105 225
177 177 177
177 177 177
177 177 177
177 177 177
177 177 177
238 214 175
177 177 177
177 177 177
170 170 170
177 177 177
144 144 144
155 155 155
134 134 134
126 126 126
137 137 137
148 148 148
137 137 137
101 101 101
166 166 166
148 148 148
152 152 152
162 162 162
162 162 162
144 144 144
141 141 141
119 119 119
36 36 36
65 105 225
65 105 225
11 11 11
108 108 108
83 83 83
126 126 126
126 126 126
152 152 152
90 90 90
148 148 148
76 76 76
87 87 87
58 58 58
65 105 225
87 87 87
134 134 134
137 137 137
170 170 170
177 177 177
65 105 225
178 154 115
198 174 135
218 194 155
218 194 155
218 194 155
238 214 175
238 214 175
238 214 175
238 214 175
238 214 175
238 214 175
218 194 155
218 194 155
198 174 135
198 174 135
198 174 135
177 177 177
198 174 135
198 174 135
177 177 177
170 170 170
238 214 175
238 214 175
238 214 175
238 214 175
173 173 173
144 144 144
170 170 170
134 134 134
105 105 105
101 101 101
134 134 134
44 44 44
69 69 69
58 58 58
134 134 134
134 134 134
162 162 162
155 155 155
134 134 134
130 130 130
144 144 144
108 108 108
94 94 94
47 47 47
40 40 40
98 98 98
80 80 80
126 126 126
116 116 116
130 130 130
108 108 108
123 123 123
134 134 134
144 144 144
80 80 80
94 94 94
105 105 105
126 126 126
155 155 155
170 170 170
166 166 166
177 177 177
178 154 115
198 174 135
198 174 135
218 194 155
218 194 155
238 214 175
238 214 175
238 214 175
238 214 175
238 214 175
238 214 175
238 214 175
218 194 155
218 194 155
198 174 135
198 174 135
198 174 135
198 174 135
198 174 135
170 170 170
177 177 177
173 173 173
173 173 173
173 173 173
173 173 173
173 173 173
162 162 162
148 148 148
170 170 170
119 119 119
126 126 126
126 126 126
87 87 87
54 54 54
65 105 225
65 105 225
65 105 225
80 80 80
116 116 116
126 126 126
94 94 94
98 98 98
162 162 162
98 98 98
83 83 83
83 83 83
80 80 80
130 130 130
141 141 141
152 152 152
170 170 170
166 166 166
166 166 166
134 134 134
166 166 166
152 152 152
87 87 87
119 119 119
116 116 116
170 170 170
159 159 159
173 173 173
238 214 175
238 214 175
198 174 135
198 174 135
218 194 155
218 194 155
238 214 175
238 214 175
238 214 175
238 214 175
238 214 175
238 214 175
238 214 175
218 194 155
218 194 155
177 177 177
198 174 135
198 174 135
177 177 177
198 174 135
198 174 135
173 173 173
177 177 177
170 170 170
155 155 155
162 162 162
166 166 166
173 173 173
166 166 166
98 98 98
137 137 137
112 112 112
130 130 130
98 98 98
51 51 51
44 44 44
65 105 225
65 105 225
65 105 225
65 105 225
65 105 225
0 0 0
112 112 112
83 83 83
105 105 105
119 119 119
94 94 94
137 137 137
112 112 112
126 126 126
144 144 144
152 152 152
162 162 162
155 155 155
166 166 166
141 141 141
126 126 126
134 134 134
148 148 148
162 162 162
116 116 116
152 152 152
170 170 170
238 214 175
177 177 177
173 173 173
198 174 135
218 194 155
218 194 155
238 214 175
238 214 175
238 214 175
238 214 175
238 214 175
238 214 175
238 214 175
238 214 175
218 194 155
198 174 135
177 177 177
177 177 177
177 177 177
173 173 173
173 173 173
178 154 115
65 105 225
65 105 225
65 105 225
65 105 225
141 141 141
152 152 152
162 162 162
144 144 144
148 148 148
123 123 123
134 134 134
126 126 126
65 65 65
36 36 36
18 18 18
29 29 29
65 105 225
65 105 225
65 105 225
65 105 225
65 105 225
0 0 0
112 112 112
87 87 87
54 54 54
137 137 137
80 80 80
134 134 134
137 137 137
152 152 152
152 152 152
116 116 116
148 148 148
162 162 162
155 155 155
162 162 162
155 155 155
155 155 155
148 148 148
155 155 155
155 155 155
170 170 170
173 173 173
177 177 177
177 177 177
198 174 135
218 194 155
238 214 175
238 214 175
238 214 175
238 214 175
238 214 175
238 214 175
238 214 175
238 214 175
238 214 175
218 194 155
177 177 177
178 154 115
65 105 225
65 105 225
65 105 225
65 105 225
65 105 225
65 105 225
65 105 225
65 105 225
65 105 225
65 105 225
152 152 152
144 144 144
152 152 152
148 148 148
159 159 159
137 137 137
69 69 69
29 29 29
54 54 54
51 51 51
0 0 0
65 65 65
29 29 29
58 58 58
0 0 0
15 15 15
0 0 0
90 90 90
101 101 101
87 87 87
87 87 87
105 105 105
155 155 155
148 148 148
152 152 152
162 162 162
116 116 116
126 126 126
159 159 159
162 162 162
166 166 166
144 144 144
159 159 159
155 155 155
166 166 166
166 166 166
177 177 177
238 214 175
173 173 173
238 214 175
218 194 155
238 214 175
238 214 175
238 214 175
238 214 175
238 214 175
238 214 175
238 214 175
238 214 175
238 214 175
218 194 155
218 194 155
177 177 177
178 154 115
65 105 225
65 105 225
65 105 225
65 105 225
65 105 225
65 105 225
65 105 225
65 105 225
148 148 148
155 155 155
162 162 162
155 155 155
159 159 159
126 126 126
108 108 108
116 116 116
80 80 80
18 18 18
33 33 33
126 126 126
83 83 83
90 90 90
123 123 123
108 108 108
98 98 98
72 72 72
29 29 29
58 58 58
47 47 47
72 72 72
36 36 36
126 126 126
130 130 130
144 144 144
137 137 137
105 105 105
235 235 235
235 235 235
141 141 141
144 144 144
162 162 162
155 155 155
159 159 159
177 177 177
173 173 173
238 214 175
173 173 173
238 214 175
177 177 177
238 214 175
218 194 155
238 214 175
238 214 175
238 214 175
238 214 175
238 214 175
238 214 175
238 214 175
238 214 175
218 194 155
218 194 155
218 194 155
198 174 135
177 177 177
65 105 225
65 105 225
65 105 225
65 105 225
65 105 225
65 105 225
173 173 173
198 174 135
170 170 170
170 170 170
166 166 166
170 170 170
170 170 170
170 170 170
123 123 123
144 144 144
105 105 105
141 141 141
94 94 94
123 123 123
126 126 126
137 137 137
155 155 155
137 137 137
141 141 141
134 134 134
137 137 137
83 83 83
76 76 76
58 58 58
83 83 83
116 116 116
152 152 152
148 148 148
98 98 98
235 235 235
235 235 235
235 235 235
155 155 155
152 152 152
170 170 170
162 162 162
152 152 152
166 166 166
170 170 170
238 214 175
173 173 173
238 214 175
177 177 177
177 177 177
218 194 155
238 214 175
238 214 175
238 214 175
238 214 175
238 214 175
238 214 175
238 214 175
218 194 155
218 194 155
218 194 155
218 194 155
177 177 177
198 174 135
65 105 225
65 105 225
65 105 225
65 105 225
65 105 225
170 170 170
170 170 170
198 174 135
173 173 173
166 166 166
177 177 177
166 166 166
159 159 159
173 173 173
159 159 159
141 141 141
141 141 141
152 152 152
148 148 148
144 144 144
177 177 177
152 152 152
152 152 152
177 177 177
170 170 170
155 155 155
173 173 173
126 126 126
62 62 62
40 40 40
51 51 51
105 105 105
144 144 144
98 98 98
101 101 101
108 108 108
112 112 112
141 141 141
87 87 87
144 144 144
162 162 162
170 170 170
238 214 175
170 170 170
238 214 175
177 177 177
166 166 166
218 194 155
159 159 159
238 214 175
218 194 155
238 214 175
238 214 175
218 194 155
218 194 155
238 214 175
238 214 175
238 214 175
218 194 155
218 194 155
218 194 155
218 194 155
218 194 155
173 173 173
178 154 115
65 105 225
65 105 225
65 105 225
65 105 225
173 173 173
218 194 155
218 194 155
177 177 177
238 214 175
238 214 175
177 177 177
177 177 177
173 173 173
170 170 170
173 173 173
155 155 155
166 166 166
177 177 177
177 177 177
162 162 162
155 155 155
155 155 155
238 214 175
166 166 166
159 159 159
155 155 155
112 112 112
15 15 15
40 40 40
90 90 90
123 123 123
162 162 162
123 123 123
90 90 90
119 119 119
94 94 94
134 134 134
148 148 148
144 144 144
162 162 162
162 162 162
170 170 170
170 170 170
162 162 162
173 173 173
235 235 235
235 235 235
235 235 235
218 194 155
218 194 155
238 214 175
238 214 175
218 194 155
218 194 155
238 214 175
238 214 175
218 194 155
218 194 155
218 194 155
218 194 155
177 177 177
218 194 155
218 194 155
198 174 135
173 173 173
65 105 225
173 173 173
170 170 170
173 173 173
177 177 177
218 194 155
238 214 175
238 214 175
177 177 177
238 214 175
170 170 170
162 162 162
166 166 166
173 173 173
238 214 175
173 173 173
170 170 170
177 177 177
170 170 170
152 152 152
166 166 166
152 152 152
162 162 162
148 148 148
141 141 141
130 130 130
8 8 8
29 29 29
90 90 90
116 116 116
116 116 116
137 137 137
152 152 152
134 134 134
134 134 134
148 148 148
137 137 137
137 137 137
170 170 170
162 162 162
162 162 162
173 173 173
166 166 166
159 159 159
235 235 235
235 235 235
235 235 235
173 173 173
198 174 135
238 214 175
238 214 175
218 194 155
218 194 155
238 214 175
238 214 175
218 194 155
198 174 135
218 194 155
218 194 155
238 214 175
238 214 175
218 194 155
218 194 155
177 177 177
198 174 135
198 174 135
173 173 173
218 194 155
218 194 155
173 173 173
177 177 177
177 177 177
177 177 177
170 170 170
218 194 155
177 177 177
173 173 173
166 166 166
177 177 177
173 173 173
162 162 162
177 177 177
173 173 173
170 170 170
159 159 159
162 162 162
159 159 159
141 141 141
137 137 137
123 123 123
15 15 15
0 0 0
0 0 0
72 72 72
80 80 80
119 119 119
123 123 123
69 69 69
94 94 94
33 33 33
108 108 108
116 116 116
101 101 101
134 134 134
162 162 162
159 159 159
170 170 170
173 173 173
166 166 166
235 235 235
235 235 235
218 194 155
198 174 135
238 214 175
238 214 175
218 194 155
238 214 175
238 214 175
238 214 175
218 194 155
198 174 135
218 194 155
218 194 155
238 214 175
238 214 175
238 214 175
238 214 175
177 177 177
177 177 177
238 214 175
238 214 175
238 214 175
238 214 175
218 194 155
173 173 173
218 194 155
173 173 173
177 177 177
177 177 177
177 177 177
177 177 177
238 214 175
238 214 175
238 214 175
238 214 175
177 177 177
238 214 175
170 170 170
170 170 170
162 162 162
152 152 152
159 159 159
141 141 141
69 69 69
0 0 0
0 0 0
0 0 0
0 0 0
0 0 0
0 0 0
18 18 18
0 0 0
0 0 0
0 0 0
36 36 36
33 33 33
108 108 108
116 116 116
130 130 130
137 137 137
177 177 177
173 173 173
173 173 173
166 166 166
177 177 177
173 173 173
198 174 135
218 194 155
238 214 175
238 214 175
238 214 175
238 214 175
238 214 175
218 194 155
218 194 155
218 194 155
218 194 155
218 194 155
238 214 175
238 214 175
238 214 175
238 214 175
177 177 177
238 214 175
177 177 177
173 173 173
177 177 177
173 173 173
170 170 170
218 194 155
218 194 155
177 177 177
173 173 173
173 173 173
166 166 166
170 170 170
238 214 175
173 173 173
177 177 177
173 173 173
173 173 173
170 170 170
162 162 162
152 152 152
141 141 141
173 173 173
108 108 108
119 119 119
0 0 0
0 0 0
0 0 0
0 0 0
0 0 0
0 0 0
0 0 0
65 105 225
65 105 225
0 0 0
0 0 0
44 44 44
15 15 15
90 90 90
108 108 108
108 108 108
119 119 119
148 148 148
162 162 162
170 170 170
177 177 177
238 214 175
218 194 155
238 214 175
238 214 175
238 214 175
238 214 175
238 214 175
238 214 175
218 194 155
218 194 155
218 194 155
218 194 155
218 194 155
218 194 155
238 214 175
238 214 175
177 177 177
177 177 177
218 194 155
177 177 177
218 194 155
177 177 177
238 214 175
177 177 177
177 177 177
173 173 173
170 170 170
238 214 175
173 173 173
173 173 173
173 173 173
170 170 170
173 173 173
162 162 162
173 173 173
173 173 173
152 152 152
123 123 123
119 119 119
101 101 101
119 119 119
108 108 108
0 0 0
0 0 0
0 0 0
0 0 0
0 0 0
0 0 0
65 105 225
65 105 225
65 105 225
0 0 0
0 0 0
29 29 29
15 15 15
8 8 8
36 36 36
90 90 90
11 11 11
76 76 76
105 105 105
170 170 170
218 194 155
218 194 155
177 177 177
218 194 155
238 214 175
238 214 175
238 214 175
238 214 175
238 214 175
238 214 175
238 214 175
238 214 175
238 214 175
218 194 155
218 194 155
177 177 177
238 214 175
173 173 173
177 177 177
218 194 155
235 235 235
235 235 235
218 194 155
177 177 177
238 214 175
177 177 177
173 173 173
173 173 173
238 214 175
177 177 177
162 162 162
166 166 166
177 177 177
177 177 177
170 170 170
170 170 170
177 177 177
166 166 166
116 116 116
126 126 126
76 76 76
80 80 80
65 65 65
4 4 4
11 11 11
0 0 0
0 0 0
0 0 0
0 0 0
0 0 0
65 105 225
0 0 0
0 0 0
0 0 0
0 0 0
0 0 0
87 87 87
101 101 101
76 76 76
72 72 72
65 105 225
65 105 225
65 105 225
65 105 225
112 112 112
144 144 144
170 170 170
218 194 155
238 214 175
238 214 175
238 214 175
218 194 155
218 194 155
238 214 175
238 214 175
238 214 175
238 214 175
238 214 175
238 214 175
238 214 175
177 177 177
177 177 177
177 177 177
218 194 155
235 235 235
235 235 235
218 194 155
173 173 173
238 214 175
238 214 175
177 177 177
177 177 177
173 173 173
173 173 173
177 177 177
177 177 177
159 159 159
173 173 173
173 173 173
155 155 155
155 155 155
119 119 119
105 105 105
40 40 40
15 15 15
72 72 72
40 40 40
0 0 0
0 0 0
0 0 0
0 0 0
0 0 0
0 0 0
0 0 0
0 0 0
0 0 0
0 0 0
58 58 58
87 87 87
80 80 80
126 126 126
141 141 141
47 47 47
4 4 4
65 105 225
65 105 225
65 105 225
65 105 225
65 105 225
65 105 225
65 105 225
218 194 155
238 214 175
238 214 175
238 214 175
218 194 155
218 194 155
218 194 155
218 194 155
238 214 175
238 214 175
238 214 175
238 214 175
238 214 175
177 177 177
238 214 175
218 194 155
177 177 177
177 177 177
170 170 170
177 177 177
177 177 177
177 177 177
173 173 173
173 173 173
173 173 173
173 173 173
173 173 173
177 177 177
166 166 166
173 173 173
155 155 155
162 162 162
141 141 141
130 130 130
76 76 76
65 105 225
65 105 225
65 105 225
65 105 225
0 0 0
44 44 44
22 22 22
0 0 0
0 0 0
0 0 0
0 0 0
0 0 0
0 0 0
0 0 0
80 80 80
87 87 87
90 90 90
126 126 126
108 108 108
26 26 26
0 0 0
65 105 225
65 105 225
65 105 225
65 105 225
65 105 225
65 105 225
65 105 225
65 105 225
218 194 155
218 194 155
238 214 175
238 214 175
218 194 155
235 235 235
235 235 235
218 194 155
218 194 155
218 194 155
218 194 155
177 177 177
218 194 155
173 173 173
218 194 155
177 177 177
173 173 173
177 177 177
173 173 173
177 177 177
177 177 177
170 170 170
238 214 175
170 170 170
177 177 177
238 214 175
159 159 159
173 173 173
148 148 148
152 152 152
148 148 148
162 162 162
159 159 159
119 119 119
33 33 33
65 105 225
65 105 225
65 105 225
65 105 225
0 0 0
29 29 29
26 26 26
0 0 0
0 0 0
0 0 0
0 0 0
0 0 0
0 0 0
94 94 94
98 98 98
152 152 152
148 148 148
152 152 152
123 123 123
83 83 83
65 105 225
65 105 225
65 105 225
65 105 225
65 105 225
65 105 225
65 105 225
65 105 225
65 105 225
198 174 135
218 194 155
238 214 175
238 214 175
218 194 155
235 235 235
235 235 235
235 235 235
218 194 155
218 194 155
218 194 155
235 235 235
235 235 235
218 194 155
177 177 177
238 214 175
177 177 177
177 177 177
177 177 177
238 214 175
173 173 173
166 166 166
173 173 173
173 173 173
173 173 173
166 166 166
166 166 166
137 137 137
134 134 134
90 90 90
119 119 119
126 126 126
148 148 148
101 101 101
90 90 90
26 26 26
65 105 225
65 105 225
0 0 0
65 65 65
44 44 44
76 76 76
33 33 33
4 4 4
0 0 0
0 0 0
108 108 108
83 83 83
144 144 144
159 159 159
119 119 119
144 144 144
159 159 159
119 119 119
0 0 0
65 105 225
65 105 225
65 105 225
65 105 225
65 105 225
65 105 225
65 105 225
65 105 225
65 105 225
198 174 135
218 194 155
238 214 175
238 214 175
218 194 155
235 235 235
235 235 235
235 235 235
235 235 235
235 235 235
235 235 235
235 235 235
235 235 235
177 177 177
177 177 177
238 214 175
170 170 170
238 214 175
177 177 177
238 214 175
173 173 173
177 177 177
170 170 170
173 173 173
170 170 170
155 155 155
162 162 162
148 148 148
123 123 123
54 54 54
0 0 0
137 137 137
98 98 98
83 83 83
83 83 83
83 83 83
0 0 0
0 0 0
105 105 105
87 87 87
72 72 72
62 62 62
15 15 15
33 33 33
116 116 116
101 101 101
90 90 90
141 141 141
152 152 152
152 152 152
148 148 148
162 162 162
155 155 155
119 119 119
0 0 0
65 105 225
65 105 225
65 105 225
65 105 225
65 105 225
65 105 225
65 105 225
65 105 225
65 105 225
198 174 135
218 194 155
238 214 175
238 214 175
218 194 155
235 235 235
235 235 235
235 235 235
235 235 235
235 235 235
235 235 235
235 235 235
235 235 235
177 177 177
238 214 175
238 214 175
177 177 177
173 173 173
170 170 170
173 173 173
173 173 173
238 214 175
177 177 177
235 235 235
235 235 235
166 166 166
166 166 166
162 162 162
126 126 126
62 62 62
33 33 33
112 112 112
108 108 108
112 112 112
130 130 130
108 108 108
98 98 98
69 69 69
108 108 108
62 62 62
116 116 116
108 108 108
108 108 108
126 126 126
159 159 159
152 152 152
134 134 134
148 148 148
162 162 162
155 155 155
119 119 119
152 152 152
162 162 162
108 108 108
72 72 72
65 105 225
65 105 225
65 105 225
11 11 11
69 69 69
119 119 119
94 94 94
65 105 225
65 105 225
218 194 155
218 194 155
238 214 175
238 214 175
218 194 155
235 235 235
235 235 235
235 235 235
235 235 235
235 235 235
235 235 235
235 235 235
235 235 235
218 194 155
177 177 177
177 177 177
177 177 177
170 170 170
173 173 173
218 194 155
170 170 170
173 173 173
155 155 155
235 235 235
235 235 235
159 159 159
159 159 159
148 148 148
130 130 130
33 33 33
36 36 36
15 15 15
130 130 130
105 105 105
98 98 98
108 108 108
130 130 130
108 108 108
98 98 98
87 87 87
130 130 130
155 155 155
141 141 141
159 159 159
162 162 162
152 152 152
152 152 152
166 166 166
155 155 155
152 152 152
152 152 152
159 159 159
155 155 155
148 148 148
83 83 83
51 51 51
65 105 225
22 22 22
116 116 116
130 130 130
108 108 108
58 58 58
65 105 225
65 105 225
218 194 155
218 194 155
238 214 175
238 214 175
218 194 155
235 235 235
235 235 235
235 235 235
235 235 235
235 235 235
235 235 235
235 235 235
218 194 155
238 214 175
177 177 177
218 194 155
166 166 166
173 173 173
173 173 173
173 173 173
177 177 177
177 177 177
162 162 162
159 159 159
235 235 235
155 155 155
173 173 173
155 155 155
101 101 101
108 108 108
51 51 51
87 87 87
126 126 126
116 116 116
108 108 108
126 126 126
108 108 108
152 152 152
119 119 119
148 148 148
144 144 144
119 119 119
159 159 159
177 177 177
159 159 159
155 155 155
152 152 152
166 166 166
170 170 170
159 159 159
159 159 159
162 162 162
166 166 166
162 162 162
80 80 80
0 0 0
0 0 0
0 0 0
69 69 69
90 90 90
90 90 90
62 62 62
33 33 33
130 130 130
218 194 155
238 214 175
238 214 175
218 194 155
218 194 155
235 235 235
235 235 235
235 235 235
235 235 235
235 235 235
235 235 235
235 235 235
218 194 155
177 177 177
177 177 177
177 177 177
170 170 170
162 162 162
166 166 166
173 173 173
177 177 177
238 214 175
218 194 155
159 159 159
159 159 159
170 170 170
159 159 159
159 159 159
152 152 152
141 141 141
83 83 83
108 108 108
116 116 116
83 83 83
76 76 76
80 80 80
87 87 87
130 130 130
112 112 112
159 159 159
159 159 159
166 166 166
162 162 162
173 173 173
162 162 162
159 159 159
177 177 177
173 173 173
148 148 148
166 166 166
162 162 162
166 166 166
155 155 155
119 119 119
116 116 116
4 4 4
0 0 0
11 11 11
15 15 15
0 0 0
44 44 44
65 105 225
72 72 72
155 155 155
198 174 135
238 214 175
238 214 175
218 194 155
218 194 155
235 235 235
235 235 235
235 235 235
235 235 235
235 235 235
173 173 173
177 177 177
238 214 175
177 177 177
177 177 177
170 170 170
218 194 155
170 170 170
170 170 170
177 177 177
173 173 173
238 214 175
177 177 177
173 173 173
148 148 148
159 159 159
173 173 173
173 173 173
162 162 162
141 141 141
162 162 162
148 148 148
126 126 126
69 69 69
65 105 225
65 105 225
87 87 87
148 148 148
152 152 152
166 166 166
173 173 173
177 177 177
170 170 170
166 166 166
177 177 177
155 155 155
173 173 173
144 144 144
166 166 166
144 144 144
162 162 162
148 148 148
119 119 119
101 101 101
0 0 0
65 105 225
65 105 225
65 105 225
65 105 225
65 105 225
65 105 225
65 105 225
65 105 225
123 123 123
178 154 115
218 194 155
238 214 175
218 194 155
218 194 155
235 235 235
218 194 155
218 194 155
218 194 155
177 177 177
238 214 175
238 214 175
238 214 175
218 194 155
173 173 173
173 173 173
166 166 166
177 177 177
170 170 170
238 214 175
173 173 173
238 214 175
238 214 175
177 177 177
166 166 166
238 214 175
177 177 177
170 170 170
170 170 170
155 155 155
126 126 126
144 144 144
98 98 98
87 87 87
65 105 225
65 105 225
123 123 123
137 137 137
152 152 152
159 159 159
173 173 173
177 177 177
177 177 177
170 170 170
173 173 173
238 214 175
173 173 173
170 170 170
162 162 162
130 130 130
126 126 126
112 112 112
54 54 54
65 105 225
65 105 225
65 105 225
65 105 225
65 105 225
65 105 225
65 105 225
65 105 225
65 105 225
65 105 225
65 105 225
65 105 225
198 174 135
238 214 175
238 214 175
218 194 155
218 194 155
218 194 155
238 214 175
238 214 175
177 177 177
238 214 175
177 177 177
177 177 177
177 177 177
166 166 166
162 162 162
173 173 173
166 166 166
218 194 155
152 152 152
166 166 166
170 170 170
238 214 175
173 173 173
173 173 173
166 166 166
162 162 162
170 170 170
173 173 173
166 166 166
152 152 152
162 162 162
152 152 152
65 105 225
65 105 225
65 105 225
134 134 134
159 159 159
166 166 166
170 170 170
170 170 170
177 177 177
238 214 175
177 177 177
173 173 173
177 177 177
170 170 170
166 166 166
170 170 170
141 141 141
144 144 144
126 126 126
65 105 225
65 105 225
65 105 225
65 105 225
65 105 225
0 0 0
0 0 0
65 105 225
65 105 225
65 105 225
65 105 225
65 105 225
65 105 225
65 105 225
218 194 155
238 214 175
238 214 175
238 214 175
238 214 175
238 214 175
177 177 177
218 194 155
218 194 155
166 166 166
170 170 170
170 170 170
152 152 152
162 162 162
166 166 166
166 166 166
173 173 173
166 166 166
155 155 155
162 162 162
218 194 155
152 152 152
170 170 170
170 170 170
170 170 170
238 214 175
173 173 173
173 173 173
141 141 141
152 152 152
119 119 119
65 105 225
65 105 225
65 105 225
137 137 137
218 194 155
238 214 175
166 166 166
177 177 177
166 166 166
238 214 175
173 173 173
177 177 177
162 162 162
238 214 175
152 152 152
123 123 123
144 144 144
159 159 159
83 83 83
65 105 225
65 105 225
65 105 225
65 105 225
26 26 26
76 76 76
80 80 80
33 33 33
65 105 225
65 105 225
65 105 225
65 105 225
65 105 225
65 105 225
178 154 115
218 194 155
238 214 175
238 214 175
238 214 175
238 214 175
238 214 175
218 194 155
177 177 177
177 177 177
170 170 170
166 166 166
173 173 173
65 105 225
65 105 225
152 152 152
162 162 162
123 123 123
65 105 225
148 148 148
155 155 155
170 170 170
170 170 170
173 173 173
177 177 177
162 162 162
166 166 166
159 159 159
170 170 170
137 137 137
105 105 105
65 105 225
65 105 225
166 166 166
162 162 162
177 177 177
238 214 175
238 214 175
173 173 173
238 214 175
177 177 177
238 214 175
173 173 173
177 177 177
170 170 170
155 155 155
141 141 141
155 155 155
94 94 94
65 105 225
65 105 225
65 105 225
65 105 225
8 8 8
98 98 98
76 76 76
94 94 94
119 119 119
72 72 72
65 105 225
65 105 225
65 105 225
65 105 225
65 105 225
65 105 225
198 174 135
218 194 155
238 214 175
238 214 175
238 214 175
238 214 175
218 194 155
198 174 135
173 173 173
65 105 225
65 105 225
65 105 225
65 105 225
65 105 225
65 105 225
65 105 225
65 105 225
65 105 225
65 105 225
155 155 155
155 155 155
170 170 170
166 166 166
173 173 173
170 170 170
177 177 177
173 173 173
144 144 144
137 137 137
126 126 126
144 144 144
173 173 173
166 166 166
170 170 170
173 173 173
238 214 175
173 173 173
177 177 177
166 166 166
173 173 173
162 162 162
177 177 177
177 177 177
173 173 173
152 152 152
108 108 108
90 90 90
65 105 225
65 105 225
65 105 225
65 105 225
65 65 65
105 105 105
162 162 162
152 152 152
148 148 148
159 159 159
152 152 152
134 134 134
112 112 112
65 105 225
65 105 225
65 105 225
65 105 225
178 154 115
218 194 155
218 194 155
238 214 175
238 214 175
238 214 175
238 214 175
198 174 135
170 170 170
65 105 225
65 105 225
65 105 225
65 105 225
65 105 225
65 105 225
65 105 225
65 105 225
65 105 225
65 105 225
65 105 225
137 137 137
166 166 166
173 173 173
170 170 170
173 173 173
173 173 173
155 155 155
144 144 144
162 162 162
155 155 155
162 162 162
170 170 170
238 214 175
238 214 175
177 177 177
238 214 175
170 170 170
170 170 170
166 166 166
152 152 152
159 159 159
170 170 170
173 173 173
170 170 170
134 134 134
65 105 225
65 105 225
65 105 225
72 72 72
141 141 141
126 126 126
98 98 98
170 170 170
155 155 155
170 170 170
170 170 170
162 162 162
177 177 177
162 162 162
162 162 162
152 152 152
65 105 225
65 105 225
65 105 225
178 154 115
198 174 135
177 177 177
218 194 155
238 214 175
238 214 175
238 214 175
218 194 155
173 173 173
65 105 225
65 105 225
65 105 225
65 105 225
65 105 225
65 105 225
65 105 225
65 105 225
65 105 225
65 105 225
65 105 225
65 105 225
170 170 170
162 162 162
144 144 144
170 170 170
162 162 162
170 170 170
159 159 159
173 173 173
177 177 177
177 177 177
238 214 175
177 177 177
218 194 155
218 194 155
238 214 175
177 177 177
173 173 173
170 170 170
148 148 148
152 152 152
162 162 162
134 134 134
166 166 166
116 116 116
65 105 225
65 105 225
90 90 90
141 141 141
126 126 126
159 159 159
159 159 159
166 166 166
177 177 177
162 162 162
177 177 177
170 170 170
173 173 173
170 170 170
166 166 166
177 177 177
65 105 225
65 105 225
65 105 225
178 154 115
178 154 115
198 174 135
177 177 177
218 194 155
238 214 175
218 194 155
173 173 173
177 177 177
65 105 225
65 105 225
65 105 225
65 105 225
65 105 225
65 105 225
65 105 225
65 105 225
65 105 225
65 105 225
65 105 225
65 105 225
65 105 225
144 144 144
152 152 152
155 155 155
144 144 144
155 155 155
170 170 170
177 177 177
238 214 175
177 177 177
177 177 177
177 177 177
177 177 177
177 177 177
177 177 177
238 214 175
170 170 170
159 159 159
148 148 148
155 155 155
159 159 159
162 162 162
134 134 134
65 105 225
65 105 225
65 105 225
130 130 130
162 162 162
141 141 141
177 177 177
173 173 173
162 162 162
170 170 170
166 166 166
166 166 166
173 173 173
173 173 173
173 173 173
170 170 170
238 214 175
198 174 135
198 174 135
198 174 135
178 154 115
65 105 225
178 154 115
198 174 135
198 174 135
218 194 155
177 177 177
198 174 135
178 154 115
65 105 225
65 105 225
65 105 225
65 105 225
65 105 225
65 105 225
65 105 225
65 105 225
65 105 225
65 105 225
65 105 225
65 105 225
65 105 225
65 105 225
65 105 225
65 105 225
65 105 225
155 155 155
170 170 170
177 177 177
177 177 177
218 194 155
218 194 155
235 235 235
235 235 235
218 194 155
177 177 177
177 177 177
170 170 170
155 155 155
65 105 225
65 105 225
155 155 155
159 159 159
65 105 225
65 105 225
65 105 225
101 101 101
141 141 141
152 152 152
173 173 173
177 177 177
159 159 159
159 159 159
162 162 162
141 141 141
170 170 170
170 170 170
155 155 155
173 173 173
177 177 177
177 177 177
198 174 135
218 194 155
198 174 135
178 154 115
65 105 225
65 105 225
65 105 225
178 154 115
198 174 135
177 177 177
198 174 135
198 174 135
65 105 225
65 105 225
65 105 225
65 105 225
65 105 225
65 105 225
65 105 225
65 105 225
65 105 225
65 105 225
65 105 225
65 105 225
65 105 225
65 105 225
65 105 225
65 105 225
65 105 225
65 105 225
173 173 173
238 214 175
177 177 177
177 177 177
235 235 235
235 235 235
235 235 235
173 173 173
238 214 175
177 177 177
177 177 177
166 166 166
166 166 166
159 159 159
152 152 152
144 144 144
65 105 225
65 105 225
65 105 225
126 126 126
144 144 144
170 170 170
166 166 166
170 170 170
235 235 235
235 235 235
235 235 235
166 166 166
218 194 155
177 177 177
166 166 166
170 170 170
177 177 177
177 177 177
218 194 155
218 194 155
218 194 155
198 174 135
65 105 225
65 105 225
65 105 225
178 154 115
198 174 135
198 174 135
198 174 135
198 174 135
198 174 135
198 174 135
178 154 115
65 105 225
65 105 225
65 105 225
65 105 225
65 105 225
65 105 225
65 105 225
65 105 225
173 173 173
170 170 170
65 105 225
65 105 225
65 105 225
65 105 225
65 105 225
177 177 177
238 214 175
238 214 175
177 177 177
218 194 155
235 235 235
218 194 155
173 173 173
177 177 177
177 177 177
177 177 177
177 177 177
152 152 152
173 173 173
159 159 159
155 155 155
65 105 225
65 105 225
65 105 225
134 134 134
134 134 134
159 159 159
177 177 177
166 166 166
235 235 235
235 235 235
235 235 235
235 235 235
173 173 173
177 177 177
177 177 177
173 173 173
173 173 173
177 177 177
218 194 155
218 194 155
218 194 155
198 174 135
178 154 115
65 105 225
65 105 225
178 154 115
198 174 135
177 177 177
218 194 155
218 194 155
218 194 155
218 194 155
218 194 155
218 194 155
198 174 135
178 154 115
65 105 225
65 105 225
65 105 225
65 105 225
65 105 225
173 173 173
173 173 173
162 162 162
65 105 225
65 105 225
65 105 225
166 166 166
173 173 173
238 214 175
238 214 175
218 194 155
218 194 155
218 194 155
218 194 155
177 177 177
238 214 175
177 177 177
218 194 155
177 177 177
177 177 177
166 166 166
170 170 170
162 162 162
65 105 225
65 105 225
65 105 225
65 105 225
137 137 137
141 141 141
155 155 155
238 214 175
218 194 155
235 235 235
235 235 235
173 173 173
177 177 177
173 173 173
238 214 175
177 177 177
166 166 166
170 170 170
218 194 155
218 194 155
218 194 155
218 194 155
198 174 135
198 174 135
198 174 135
198 174 135
198 174 135
218 194 155
218 194 155
218 194 155
238 214 175
238 214 175
238 214 175
238 214 175
238 214 175
198 174 135
178 154 115
65 105 225
65 105 225
65 105 225
177 177 177
177 177 177
198 174 135
177 177 177
177 177 177
65 105 225
65 105 225
173 173 173
177 177 177
238 214 175
238 214 175
238 214 175
177 177 177
238 214 175
177 177 177
238 214 175
238 214 175
238 214 175
238 214 175
238 214 175
218 194 155
177 177 177
177 177 177
152 152 152
65 105 225
65 105 225
65 105 225
65 105 225
137 137 137
170 170 170
162 162 162
238 214 175
238 214 175
166 166 166
173 173 173
173 173 173
238 214 175
173 173 173
238 214 175
218 194 155
177 177 177
218 194 155
218 194 155
218 194 155
218 194 155
218 194 155
218 194 155
218 194 155
218 194 155
218 194 155
218 194 155
218 194 155
218 194 155
218 194 155
238 214 175
238 214 175
238 214 175
238 214 175
238 214 175
218 194 155
198 174 135
178 154 115
177 177 177
198 174 135
177 177 177
177 177 177
177 177 177
218 194 155
177 177 177
198 174 135
173 173 173
198 174 135
218 194 155
218 194 155
177 177 177
177 177 177
238 214 175
238 214 175
238 214 175
238 214 175
238 214 175
170 170 170
238 214 175
177 177 177
238 214 175
177 177 177
173 173 173
148 148 148
65 105 225
65 105 225
65 105 225
65 105 225
137 137 137
152 152 152
166 166 166
170 170 170
173 173 173
238 214 175
173 173 173
177 177 177
238 214 175
173 173 173
177 177 177
218 194 155
177 177 177
177 177 177
198 174 135
218 194 155
218 194 155
218 194 155
218 194 155
218 194 155
218 194 155
218 194 155
218 194 155
218 194 155
218 194 155
218 194 155
238 214 175
238 214 175
238 214 175
238 214 175
238 214 175
238 214 175
218 194 155
198 174 135
177 177 177
177 177 177
218 194 155
238 214 175
238 214 175
218 194 155
218 194 155
198 174 135
177 177 177
170 170 170
218 194 155
218 194 155
218 194 155
218 194 155
177 177 177
238 214 175
238 214 175
238 214 175
238 214 175
238 214 175
238 214 175
238 214 175
218 194 155
218 194 155
177 177 177
65 105 225
65 105 225
65 105 225
65 105 225
155 155 155
166 166 166
159 159 159
162 162 162
162 162 162
173 173 173
173 173 173
177 177 177
170 170 170
173 173 173
177 177 177
177 177 177
173 173 173
177 177 177
177 177 177
198 174 135
198 174 135
218 194 155
218 194 155
218 194 155
218 194 155
218 194 155
218 194 155
218 194 155
218 194 155
218 194 155
218 194 155
218 194 155
238 214 175
238 214 175
238 214 175
238 214 175
238 214 175
238 214 175
218 194 155
218 194 155
177 177 177
238 214 175
238 214 175
238 214 175
238 214 175
177 177 177
198 174 135
177 177 177
198 174 135
218 194 155
218 194 155
218 194 155
177 177 177
218 194 155
218 194 155
238 214 175
238 214 175
238 214 175
238 214 175
238 214 175
238 214 175
170 170 170
177 177 177
177 177 177
65 105 225
65 105 225
65 105 225
177 177 177
173 173 173
173 173 173
177 177 177
173 173 173
166 166 166
173 173 173
166 166 166
177 177 177
173 173 173
173 173 173
173 173 173
177 177 177
218 194 155
177 177 177
218 194 155
198 174 135
198 174 135
198 174 135
198 174 135
198 174 135
198 174 135
198 174 135
198 174 135
198 174 135
218 194 155
218 194 155
218 194 155
218 194 155
238 214 175
238 214 175
238 214 175
238 214 175
238 214 175
238 214 175
238 214 175
238 214 175
238 214 175
238 214 175
238 214 175
238 214 175
238 214 175
218 194 155
218 194 155
218 194 155
218 194 155
218 194 155
218 194 155
198 174 135
177 177 177
198 174 135
177 177 177
218 194 155
238 214 175
238 214 175
238 214 175
238 214 175
173 173 173
218 194 155
198 174 135
166 166 166
173 173 173
166 166 166
198 174 135
170 170 170
177 177 177
238 214 175
177 177 177
173 173 173
177 177 177
177 177 177
173 173 173
198 174 135
173 173 173
166 166 166
173 173 173
198 174 135
218 194 155
177 177 177
238 214 175
178 154 115
178 154 115
178 154 115
178 154 115
178 154 115
65 105 225
65 105 225
178 154 115
198 174 135
218 194 155
238 214 175
238 214 175
238 214 175
238 214 175
238 214 175
238 214 175
238 214 175
218 194 155
218 194 155
218 194 155
238 214 175
238 214 175
238 214 175
238 214 175
238 214 175
177 177 177
238 214 175
238 214 175
218 194 155
218 194 155
177 177 177
218 194 155
198 174 135
198 174 135
173 173 173
173 173 173
198 174 135
177 177 177
238 214 175
238 214 175
177 177 177
177 177 177
177 177 177
198 174 135
177 177 177
177 177 177
177 177 177
218 194 155
238 214 175
177 177 177
238 214 175
238 214 175
177 177 177
238 214 175
177 177 177
166 166 166
173 173 173
166 166 166
162 162 162
177 177 177
177 177 177
218 194 155
238 214 175
238 214 175
65 105 225
65 105 225
65 105 225
65 105 225
65 105 225
65 105 225
65 105 225
178 154 115
198 174 135
238 214 175
238 214 175
238 214 175
238 214 175
238 214 175
238 214 175
238 214 175
218 194 155
218 194 155
218 194 155
218 194 155
218 194 155
177 177 177
238 214 175
238 214 175
238 214 175
238 214 175
238 214 175
238 214 175
238 214 175
238 214 175
177 177 177
177 177 177
198 174 135
177 177 177
65 105 225
177 177 177
198 174 135
198 174 135
218 194 155
218 194 155
218 194 155
218 194 155
218 194 155
218 194 155
177 177 177
218 194 155
238 214 175
177 177 177
238 214 175
177 177 177
177 177 177
238 214 175
177 177 177
238 214 175
218 194 155
198 174 135
177 177 177
170 170 170
173 173 173
177 177 177
166 166 166
238 214 175
238 214 175
238 214 175
65 105 225
65 105 225
65 105 225
65 105 225
65 105 225
65 105 225
65 105 225
198 174 135
218 194 155
238 214 175
218 194 155
218 194 155
218 194 155
238 214 175
238 214 175
218 194 155
218 194 155
235 235 235
235 235 235
218 194 155
218 194 155
238 214 175
238 214 175
238 214 175
238 214 175
218 194 155
177 177 177
173 173 173
238 214 175
177 177 177
238 214 175
177 177 177
177 177 177
178 154 115
65 105 225
65 105 225
177 177 177
173 173 173
177 177 177
198 174 135
198 174 135
218 194 155
218 194 155
238 214 175
238 214 175
238 214 175
238 214 175
238 214 175
238 214 175
218 194 155
238 214 175
238 214 175
177 177 177
218 194 155
173 173 173
198 174 135
177 177 177
170 170 170
198 174 135
170 170 170
218 194 155
238 214 175
238 214 175
218 194 155
65 105 225
65 105 225
65 105 225
65 105 225
65 105 225
65 105 225
178 154 115
198 174 135
238 214 175
218 194 155
235 235 235
235 235 235
218 194 155
218 194 155
238 214 175
218 194 155
218 194 155
218 194 155
218 194 155
218 194 155
238 214 175
238 214 175
238 214 175
238 214 175
238 214 175
218 194 155
218 194 155
218 194 155
238 214 175
238 214 175
173 173 173
177 177 177
198 174 135
65 105 225
65 105 225
65 105 225
65 105 225
65 105 225
65 105 225
65 105 225
177 177 177
198 174 135
177 177 177
238 214 175
238 214 175
218 194 155
173 173 173
218 194 155
238 214 175
177 177 177
238 214 175
238 214 175
177 177 177
218 194 155
177 177 177
173 173 173
173 173 173
170 170 170
177 177 177
177 177 177
218 194 155
238 214 175
238 214 175
218 194 155
65 105 225
178 154 115
178 154 115
178 154 115
178 154 115
178 154 115
198 174 135
218 194 155
238 214 175
218 194 155
235 235 235
218 194 155
218 194 155
238 214 175
238 214 175
238 214 175
218 194 155
218 194 155
218 194 155
238 214 175
238 214 175
238 214 175
238 214 175
238 214 175
238 214 175
177 177 177
218 194 155
218 194 155
238 214 175
238 214 175
177 177 177
177 177 177
173 173 173
65 105 225
65 105 225
65 105 225
65 105 225
65 105 225
65 105 225
65 105 225
65 105 225
173 173 173
218 194 155
238 214 175
238 214 175
218 194 155
177 177 177
218 194 155
238 214 175
238 214 175
238 214 175
218 194 155
218 194 155
173 173 173
177 177 177
65 105 225
65 105 225
65 105 225
173 173 173
177 177 177
218 194 155
238 214 175
238 214 175
218 194 155
198 174 135
198 174 135
198 174 135
198 174 135
198 174 135
198 174 135
218 194 155
238 214 175
238 214 175
218 194 155
218 194 155
218 194 155
238 214 175
238 214 175
238 214 175
238 214 175
238 214 175
238 214 175
238 214 175
238 214 175
238 214 175
238 214 175
238 214 175
238 214 175
218 194 155
218 194 155
218 194 155
238 214 175
177 177 177
238 214 175
177 177 177
177 177 177
65 105 225
65 105 225
65 105 225
65 105 225
65 105 225
65 105 225
65 105 225
65 105 225
65 105 225
65 105 225
198 174 135
218 194 155
238 214 175
218 194 155
177 177 177
218 194 155
238 214 175
238 214 175
238 214 175
218 194 155
198 174 135
177 177 177
65 105 225
65 105 225
65 105 225
65 105 225
65 105 225
173 173 173
198 174 135
218 194 155
238 214 175
177 177 177
218 194 155
218 194 155
218 194 155
218 194 155
218 194 155
218 194 155
218 194 155
238 214 175
238 214 175
238 214 175
238 214 175
238 214 175
238 214 175
238 214 175
238 214 175
238 214 175
238 214 175
238 214 175
238 214 175
238 214 175
238 214 175
238 214 175
238 214 175
218 194 155
218 194 155
218 194 155
218 194 155
177 177 177
238 214 175
218 194 155
173 173 173
65 105 225
65 105 225
65 105 225
65 105 225
177 177 177
198 174 135
177 177 177
65 105 225
65 105 225
65 105 225
65 105 225
177 177 177
218 194 155
238 214 175
238 214 175
238 214 175
238 214 175
238 214 175
238 214 175
238 214 175
218 194 155
177 177 177
178 154 115
65 105 225
65 105 225
65 105 225
65 105 225
65 105 225
65 105 225
198 174 135
218 194 155
238 214 175
238 214 175
218 194 155
218 194 155
218 194 155
218 194 155
218 194 155
218 194 155
218 194 155
238 214 175
238 214 175
238 214 175
238 214 175
238 214 175
218 194 155
218 194 155
238 214 175
238 214 175
238 214 175
218 194 155
218 194 155
238 214 175
238 214 175
238 214 175
218 194 155
218 194 155
235 235 235
218 194 155
238 214 175
238 214 175
218 194 155
198 174 135
170 170 170
65 105 225
65 105 225
65 105 225
177 177 177
177 177 177
198 174 135
177 177 177
173 173 173
65 105 225
65 105 225
65 105 225
65 105 225
177 177 177
218 194 155
238 214 175
238 214 175
238 214 175
238 214 175
238 214 175
218 194 155
218 194 155
177 177 177
177 177 177
65 105 225
65 105 225
65 105 225
65 105 225
65 105 225
65 105 225
198 174 135
218 194 155
238 214 175
238 214 175
218 194 155
218 194 155
218 194 155
218 194 155
218 194 155
218 194 155
218 194 155
238 214 175
238 214 175
238 214 175
238 214 175
218 194 155
218 194 155
218 194 155
238 214 175
238 214 175
218 194 155
218 194 155
218 194 155
218 194 155
218 194 155
218 194 155
218 194 155
235 235 235
235 235 235
218 194 155
238 214 175
177 177 177
177 177 177
198 174 135
177 177 177
65 105 225
65 105 225
173 173 173
173 173 173
173 173 173
218 194 155
177 177 177
170 170 170
198 174 135
65 105 225
65 105 225
178 154 115
198 174 135
218 194 155
238 214 175
177 177 177
177 177 177
238 214 175
238 214 175
218 194 155
218 194 155
198 174 135
177 177 177
65 105 225
65 105 225
65 105 225
65 105 225
178 154 115
198 174 135
218 194 155
218 194 155
238 214 175
238 214 175
218 194 155
218 194 155
218 194 155
218 194 155
218 194 155
218 194 155
238 214 175
238 214 175
238 214 175
238 214 175
238 214 175
218 194 155
218 194 155
218 194 155
238 214 175
238 214 175
218 194 155
235 235 235
235 235 235
235 235 235
235 235 235
235 235 235
235 235 235
235 235 235
218 194 155
238 214 175
238 214 175
218 194 155
177 177 177
198 174 135
198 174 135
177 177 177
198 174 135
177 177 177
218 194 155
177 177 177
238 214 175
238 214 175
177 177 177
218 194 155
218 194 155
198 174 135
198 174 135
177 177 177
218 194 155
177 177 177
238 214 175
238 214 175
218 194 155
177 177 177
218 194 155
218 194 155
198 174 135
198 174 135
65 105 225
65 105 225
65 105 225
178 154 115
198 174 135
218 194 155
238 214 175
238 214 175
238 214 175
238 214 175
218 194 155
218 194 155
218 194 155
218 194 155
218 194 155
238 214 175
238 214 175
238 214 175
238 214 175
238 214 175
238 214 175
238 214 175
238 214 175
218 194 155
238 214 175
238 214 175
238 214 175
218 194 155
235 235 235
235 235 235
235 235 235
235 235 235
235 235 235
218 194 155
238 214 175
238 214 175
218 194 155
198 174 135
198 174 135
198 174 135
198 174 135
173 173 173
218 194 155
218 194 155
177 177 177
238 214 175
238 214 175
238 214 175
238 214 175
238 214 175
238 214 175
177 177 177
177 177 177
218 194 155
218 194 155
238 214 175
238 214 175
238 214 175
238 214 175
218 194 155
218 194 155
177 177 177
218 194 155
198 174 135
177 177 177
178 154 115
198 174 135
218 194 155
238 214 175
238 214 175
238 214 175
238 214 175
238 214 175
238 214 175
238 214 175
238 214 175
238 214 175
238 214 175
238 214 175
238 214 175
238 214 175
218 194 155
218 194 155
218 194 155
238 214 175
238 214 175
238 214 175
238 214 175
218 194 155
238 214 175
238 214 175
238 214 175
218 194 155
235 235 235
235 235 235
218 194 155
218 194 155
238 214 175
238 214 175
218 194 155
218 194 155
177 177 177
177 177 177
198 174 135
218 194 155
238 214 175
177 177 177
238 214 175
238 214 175
238 214 175
238 214 175
238 214 175
238 214 175
238 214 175
238 214 175
238 214 175
238 214 175
238 214 175
238 214 175
238 214 175
238 214 175
238 214 175
238 214 175
238 214 175
238 214 175
238 214 175
218 194 155
218 194 155
198 174 135
198 174 135
218 194 155
238 214 175
238 214 175
177 177 177
218 194 155
218 194 155
238 214 175
238 214 175
238 214 175
238 214 175
238 214 175
238 214 175
238 214 175
218 194 155
218 194 155
218 194 155
218 194 155
218 194 155
218 194 155
238 214 175
238 214 175
218 194 155
218 194 155
218 194 155
218 194 155
238 214 175
238 214 175
218 194 155
218 194 155
238 214 175
238 214 175
238 214 175
238 214 175
218 194 155
198 174 135
198 174 135
198 174 135
218 194 155
238 214 175
238 214 175
238 214 175
238 214 175
238 214 175
238 214 175
238 214 175
238 214 175
218 194 155
218 194 155
238 214 175
238 214 175
238 214 175
238 214 175
238 214 175
238 214 175
238 214 175
238 214 175
238 214 175
238 214 175
238 214 175
238 214 175
238 214 175
218 194 155
218 194 155
218 194 155
238 214 175
238 214 175
218 194 155
218 194 155
218 194 155
218 194 155
218 194 155
238 214 175
238 214 175
218 194 155
218 194 155
218 194 155
235 235 235
235 235 235
235 235 235
235 235 235
235 235 235
218 194 155
238 214 175
238 214 175
238 214 175
218 194 155
198 174 135
198 174 135
198 174 135
218 194 155
218 194 155
238 214 175
238 214 175
238 214 175
238 214 175
218 194 155
218 194 155
218 194 155
198 174 135
198 174 135
218 194 155
177 177 177
238 214 175
218 194 155
218 194 155
218 194 155
238 214 175
238 214 175
238 214 175
238 214 175
238 214 175
238 214 175
238 214 175
238 214 175
238 214 175
238 214 175
218 194 155
238 214 175
238 214 175
238 214 175
238 214 175
238 214 175
238 214 175
238 214 175
238 214 175
238 214 175
238 214 175
238 214 175
238 214 175
238 214 175
218 194 155
235 235 235
235 235 235
235 235 235
218 194 155
238 214 175
238 214 175
218 194 155
235 235 235
235 235 235
235 235 235
235 235 235
235 235 235
235 235 235
218 194 155
218 194 155
238 214 175
238 214 175
218 194 155
198 174 135
198 174 135
178 154 115
65 105 225
178 154 115
198 174 135
218 194 155
218 194 155
218 194 155
218 194 155
218 194 155
218 194 155
218 194 155
218 194 155
218 194 155
238 214 175
238 214 175
218 194 155
218 194 155
218 194 155
218 194 155
238 214 175
238 214 175
238 214 175
177 177 177
238 214 175
238 214 175
238 214 175
238 214 175
218 194 155
218 194 155
218 194 155
218 194 155
218 194 155
238 214 175
238 214 175
238 214 175
238 214 175
238 214 175
238 214 175
238 214 175
238 214 175
238 214 175
238 214 175
218 194 155
218 194 155
235 235 235
235 235 235
235 235 235
235 235 235
218 194 155
238 214 175
218 194 155
235 235 235
235 235 235
235 235 235
235 235 235
218 194 155
218 194 155
218 194 155
238 214 175
238 214 175
238 214 175
218 194 155
198 174 135
178 154 115
65 105 225
65 105 225
65 105 225
178 154 115
178 154 115
178 154 115
178 154 115
198 174 135
198 174 135
198 174 135
218 194 155
218 194 155
238 214 175
238 214 175
238 214 175
218 194 155
218 194 155
218 194 155
238 214 175
238 214 175
238 214 175
238 214 175
238 214 175
238 214 175
238 214 175
218 194 155
218 194 155
198 174 135
198 174 135
198 174 135
198 174 135
198 174 135
218 194 155
238 214 175
238 214 175
238 214 175
238 214 175
238 214 175
238 214 175
238 214 175
218 194 155
218 194 155
218 194 155
218 194 155
235 235 235
235 235 235
235 235 235
235 235 235
218 194 155
