P3
64 64
255
238 214 175
238 214 175
198 174 135
178 154 115
65 105 225
65 105 225
65 105 225
65 105 225
65 105 225
65 105 225
177 177 177
166 166 166
177 177 177
177 177 177
170 170 170
162 162 162
166 166 166
134 134 134
65 105 225
65 105 225
105 105 105
148 148 148
162 162 162
152 152 152
155 155 155
155 155 155
173 173 173
166 166 166
238 214 175
173 173 173
177 177 177
218 194 155
177 177 177
238 214 175
238 214 175
177 177 177
177 177 177
238 214 175
238 214 175
218 194 155
218 194 155
218 194 155
238 214 175
218 194 155
218 194 155
218 194 155
238 214 175
238 214 175
218 194 155
235 235 235
235 235 235
235 235 235
177 177 177
173 173 173
177 177 177
170 170 170
166 166 166
170 170 170
159 159 159
130 130 130
54 54 54
62 62 62
44 44 44
0 0 0
238 214 175
198 174 135
178 154 115
65 105 225
65 105 225
65 105 225
65 105 225
65 105 225
65 105 225
173 173 173
198 174 135
177 177 177
162 162 162
170 170 170
218 194 155
173 173 173
166 166 166
152 152 152
137 137 137
144 144 144
162 162 162
162 162 162
152 152 152
152 152 152
173 173 173
155 155 155
166 166 166
170 170 170
173 173 173
238 214 175
173 173 173
238 214 175
177 177 177
238 214 175
218 194 155
238 214 175
238 214 175
238 214 175
177 177 177
238 214 175
238 214 175
238 214 175
218 194 155
235 235 235
235 235 235
218 194 155
218 194 155
238 214 175
173 173 173
166 166 166
235 235 235
235 235 235
235 235 235
166 166 166
162 162 162
166 166 166
166 166 166
166 166 166
162 162 162
83 83 83
11 11 11
33 33 33
54 54 54
0 0 0
218 194 155
198 174 135
177 177 177
65 105 225
65 105 225
65 105 225
65 105 225
65 105 225
173 173 173
170 170 170
198 174 135
166 166 166
173 173 173
166 166 166
173 173 173
166 166 166
166 166 166
170 170 170
177 177 177
177 177 177
170 170 170
170 170 170
152 152 152
159 159 159
162 162 162
166 166 166
173 173 173
166 166 166
170 170 170
238 214 175
173 173 173
238 214 175
173 173 173
170 170 170
173 173 173
218 194 155
238 214 175
238 214 175
238 214 175
238 214 175
238 214 175
238 214 175
218 194 155
235 235 235
235 235 235
218 194 155
238 214 175
173 173 173
177 177 177
238 214 175
238 214 175
170 170 170
162 162 162
162 162 162
170 170 170
166 166 166
170 170 170
144 144 144
159 159 159
130 130 130
26 26 26
80 80 80
76 76 76
29 29 29
218 194 155
218 194 155
198 174 135
178 154 115
65 105 225
65 105 225
65 105 225
173 173 173
198 174 135
173 173 173
170 170 170
198 174 135
170 170 170
177 177 177
170 170 170
166 166 166
177 177 177
238 214 175
166 166 166
162 162 162
170 170 170
152 152 152
162 162 162
152 152 152
155 155 155
162 162 162
159 159 159
148 148 148
162 162 162
170 170 170
177 177 177
177 177 177
238 214 175
177 177 177
177 177 177
218 194 155
218 194 155
238 214 175
238 214 175
238 214 175
238 214 175
218 194 155
218 194 155
218 194 155
177 177 177
177 177 177
238 214 175
177 177 177
159 159 159
173 173 173
238 214 175
238 214 175
177 177 177
173 173 173
166 166 166
162 162 162
166 166 166
166 166 166
126 126 126
54 54 54
18 18 18
54 54 54
11 11 11
54 54 54
238 214 175
218 194 155
218 194 155
218 194 155
198 174 135
177 177 177
198 174 135
170 170 170
198 174 135
177 177 177
173 173 173
177 177 177
198 174 135
170 170 170
166 166 166
170 170 170
170 170 170
177 177 177
166 166 166
238 214 175
166 166 166
159 159 159
166 166 166
159 159 159
166 166 166
116 116 116
116 116 116
116 116 116
144 144 144
155 155 155
159 159 159
162 162 162
173 173 173
177 177 177
170 170 170
166 166 166
218 194 155
177 177 177
238 214 175
238 214 175
238 214 175
177 177 177
238 214 175
238 214 175
238 214 175
238 214 175
173 173 173
177 177 177
166 166 166
173 173 173
155 155 155
173 173 173
177 177 177
170 170 170
170 170 170
166 166 166
162 162 162
123 123 123
65 65 65
0 0 0
0 0 0
65 65 65
58 58 58
98 98 98
238 214 175
238 214 175
238 214 175
177 177 177
218 194 155
173 173 173
218 194 155
198 174 135
198 174 135
177 177 177
173 173 173
198 174 135
218 194 155
177 177 177
177 177 177
238 214 175
177 177 177
238 214 175
177 177 177
177 177 177
162 162 162
166 166 166
162 162 162
148 148 148
134 134 134
123 123 123
94 94 94
80 80 80
83 83 83
116 116 116
152 152 152
162 162 162
238 214 175
238 214 175
170 170 170
218 194 155
218 194 155
238 214 175
238 214 175
238 214 175
177 177 177
238 214 175
177 177 177
238 214 175
218 194 155
218 194 155
177 177 177
162 162 162
152 152 152
159 159 159
159 159 159
170 170 170
173 173 173
170 170 170
173 173 173
173 173 173
170 170 170
144 144 144
44 44 44
65 105 225
65 105 225
0 0 0
44 44 44
44 44 44
238 214 175
238 214 175
238 214 175
238 214 175
238 214 175
238 214 175
238 214 175
218 194 155
173 173 173
198 174 135
198 174 135
177 177 177
238 214 175
238 214 175
170 170 170
177 177 177
238 214 175
177 177 177
177 177 177
177 177 177
173 173 173
170 170 170
148 148 148
141 141 141
108 108 108
94 94 94
112 112 112
65 65 65
65 105 225
65 105 225
65 105 225
134 134 134
166 166 166
173 173 173
238 214 175
177 177 177
177 177 177
238 214 175
177 177 177
238 214 175
238 214 175
238 214 175
238 214 175
177 177 177
177 177 177
173 173 173
170 170 170
141 141 141
126 126 126
134 134 134
155 155 155
166 166 166
144 144 144
155 155 155
162 162 162
144 144 144
123 123 123
144 144 144
65 105 225
65 105 225
65 105 225
65 105 225
0 0 0
44 44 44
218 194 155
238 214 175
238 214 175
238 214 175
238 214 175
238 214 175
238 214 175
238 214 175
218 194 155
218 194 155
218 194 155
177 177 177
177 177 177
177 177 177
177 177 177
177 177 177
238 214 175
238 214 175
177 177 177
177 177 177
238 214 175
166 166 166
152 152 152
94 94 94
123 123 123
116 116 116
112 112 112
58 58 58
65 105 225
65 105 225
65 105 225
152 152 152
173 173 173
177 177 177
177 177 177
238 214 175
238 214 175
238 214 175
218 194 155
177 177 177
238 214 175
238 214 175
238 214 175
177 177 177
177 177 177
170 170 170
141 141 141
65 105 225
141 141 141
144 144 144
141 141 141
105 105 105
65 105 225
65 105 225
65 105 225
65 105 225
65 105 225
65 105 225
65 105 225
65 105 225
65 105 225
65 105 225
65 105 225
98 98 98
218 194 155
238 214 175
238 214 175
238 214 175
238 214 175
218 194 155
218 194 155
238 214 175
238 214 175
218 194 155
173 173 173
238 214 175
238 214 175
238 214 175
238 214 175
177 177 177
177 177 177
238 214 175
166 166 166
152 152 152
148 148 148
159 159 159
137 137 137
87 87 87
72 72 72
83 83 83
94 94 94
51 51 51
65 105 225
65 105 225
112 112 112
166 166 166
177 177 177
173 173 173
170 170 170
218 194 155
166 166 166
218 194 155
218 194 155
173 173 173
177 177 177
170 170 170
238 214 175
238 214 175
238 214 175
177 177 177
155 155 155
148 148 148
162 162 162
159 159 159
159 159 159
126 126 126
65 105 225
65 105 225
65 105 225
65 105 225
65 105 225
65 105 225
65 105 225
65 105 225
65 105 225
65 105 225
65 105 225
134 134 134
218 194 155
238 214 175
238 214 175
238 214 175
238 214 175
218 194 155
218 194 155
218 194 155
177 177 177
238 214 175
238 214 175
238 214 175
238 214 175
238 214 175
177 177 177
173 173 173
166 166 166
173 173 173
162 162 162
170 170 170
170 170 170
148 148 148
123 123 123
80 80 80
80 80 80
119 119 119
98 98 98
148 148 148
101 101 101
105 105 105
141 141 141
173 173 173
173 173 173
177 177 177
173 173 173
166 166 166
162 162 162
170 170 170
148 148 148
177 177 177
152 152 152
173 173 173
166 166 166
177 177 177
238 214 175
177 177 177
170 170 170
148 148 148
159 159 159
173 173 173
159 159 159
116 116 116
65 105 225
65 105 225
65 105 225
65 105 225
65 105 225
65 105 225
65 105 225
65 105 225
65 105 225
65 105 225
62 62 62
116 116 116
238 214 175
238 214 175
218 194 155
218 194 155
238 214 175
238 214 175
238 214 175
238 214 175
238 214 175
238 214 175
238 214 175
238 214 175
238 214 175
238 214 175
177 177 177
177 177 177
173 173 173
170 170 170
144 144 144
159 159 159
166 166 166
148 148 148
148 148 148
83 83 83
83 83 83
126 126 126
130 130 130
105 105 105
137 137 137
137 137 137
155 155 155
173 173 173
173 173 173
159 159 159
152 152 152
65 105 225
65 105 225
65 105 225
65 105 225
65 105 225
65 105 225
65 105 225
141 141 141
162 162 162
162 162 162
130 130 130
159 159 159
155 155 155
177 177 177
162 162 162
144 144 144
130 130 130
65 105 225
65 105 225
65 105 225
65 105 225
65 105 225
65 105 225
65 105 225
65 105 225
65 105 225
65 105 225
83 83 83
134 134 134
238 214 175
238 214 175
238 214 175
238 214 175
238 214 175
238 214 175
238 214 175
238 214 175
238 214 175
218 194 155
177 177 177
173 173 173
238 214 175
173 173 173
173 173 173
170 170 170
173 173 173
177 177 177
170 170 170
148 148 148
170 170 170
152 152 152
123 123 123
83 83 83
130 130 130
152 152 152
159 159 159
155 155 155
162 162 162
173 173 173
170 170 170
159 159 159
173 173 173
159 159 159
155 155 155
152 152 152
162 162 162
65 105 225
65 105 225
65 105 225
65 105 225
65 105 225
65 105 225
65 105 225
108 108 108
170 170 170
141 141 141
144 144 144
159 159 159
173 173 173
134 134 134
116 116 116
65 105 225
65 105 225
65 105 225
65 105 225
65 105 225
65 105 225
65 105 225
65 105 225
65 105 225
65 105 225
101 101 101
137 137 137
238 214 175
238 214 175
238 214 175
238 214 175
238 214 175
238 214 175
238 214 175
238 214 175
238 214 175
218 194 155
235 235 235
218 194 155
238 214 175
177 177 177
173 173 173
198 174 135
218 194 155
173 173 173
170 170 170
166 166 166
137 137 137
144 144 144
134 134 134
116 116 116
137 137 137
152 152 152
170 170 170
155 155 155
162 162 162
173 173 173
177 177 177
238 214 175
170 170 170
170 170 170
173 173 173
170 170 170
170 170 170
134 134 134
65 105 225
65 105 225
65 105 225
65 105 225
65 105 225
65 105 225
65 105 225
65 105 225
101 101 101
134 134 134
159 159 159
152 152 152
152 152 152
137 137 137
155 155 155
144 144 144
134 134 134
65 105 225
65 105 225
65 105 225
65 105 225
65 105 225
65 105 225
65 105 225
123 123 123
155 155 155
218 194 155
218 194 155
218 194 155
238 214 175
238 214 175
238 214 175
238 214 175
238 214 175
238 214 175
218 194 155
218 194 155
218 194 155
238 214 175
177 177 177
170 170 170
170 170 170
162 162 162
162 162 162
162 162 162
141 141 141
162 162 162
148 148 148
137 137 137
155 155 155
141 141 141
152 152 152
166 166 166
173 173 173
170 170 170
177 177 177
170 170 170
162 162 162
177 177 177
238 214 175
177 177 177
162 162 162
166 166 166
152 152 152
65 105 225
65 105 225
65 105 225
65 105 225
65 105 225
65 105 225
65 105 225
65 105 225
65 105 225
137 137 137
152 152 152
152 152 152
152 152 152
173 173 173
177 177 177
177 177 177
166 166 166
170 170 170
65 105 225
65 105 225
65 105 225
65 105 225
65 105 225
65 105 225
119 119 119
155 155 155
235 235 235
235 235 235
235 235 235
218 194 155
238 214 175
238 214 175
238 214 175
238 214 175
238 214 175
177 177 177
218 194 155
218 194 155
238 214 175
177 177 177
177 177 177
173 173 173
166 166 166
134 134 134
65 105 225
65 105 225
126 126 126
144 144 144
148 148 148
159 159 159
152 152 152
170 170 170
177 177 177
173 173 173
177 177 177
238 214 175
173 173 173
238 214 175
238 214 175
238 214 175
173 173 173
177 177 177
173 173 173
65 105 225
65 105 225
65 105 225
65 105 225
65 105 225
65 105 225
65 105 225
65 105 225
65 105 225
65 105 225
126 126 126
137 137 137
162 162 162
162 162 162
238 214 175
170 170 170
162 162 162
162 162 162
173 173 173
116 116 116
65 105 225
65 105 225
65 105 225
65 105 225
134 134 134
141 141 141
144 144 144
235 235 235
235 235 235
235 235 235
218 194 155
238 214 175
238 214 175
238 214 175
238 214 175
238 214 175
238 214 175
238 214 175
238 214 175
238 214 175
177 177 177
238 214 175
177 177 177
166 166 166
65 105 225
65 105 225
65 105 225
116 116 116
173 173 173
155 155 155
177 177 177
170 170 170
177 177 177
177 177 177
238 214 175
173 173 173
238 214 175
170 170 170
177 177 177
173 173 173
177 177 177
173 173 173
173 173 173
159 159 159
65 105 225
65 105 225
65 105 225
65 105 225
65 105 225
65 105 225
65 105 225
65 105 225
65 105 225
65 105 225
98 98 98
123 123 123
166 166 166
173 173 173
166 166 166
144 144 144
152 152 152
170 170 170
170 170 170
162 162 162
65 105 225
65 105 225
65 105 225
134 134 134
152 152 152
173 173 173
238 214 175
235 235 235
235 235 235
235 235 235
218 194 155
238 214 175
238 214 175
238 214 175
218 194 155
218 194 155
218 194 155
177 177 177
238 214 175
238 214 175
173 173 173
177 177 177
173 173 173
166 166 166
65 105 225
65 105 225
65 105 225
130 130 130
173 173 173
173 173 173
238 214 175
238 214 175
238 214 175
173 173 173
177 177 177
238 214 175
238 214 175
238 214 175
218 194 155
166 166 166
177 177 177
177 177 177
177 177 177
166 166 166
65 105 225
65 105 225
65 105 225
65 105 225
126 126 126
116 116 116
18 18 18
65 105 225
65 105 225
65 105 225
0 0 0
130 130 130
159 159 159
159 159 159
155 155 155
141 141 141
144 144 144
162 162 162
173 173 173
130 130 130
94 94 94
65 105 225
141 141 141
148 148 148
170 170 170
177 177 177
173 173 173
235 235 235
235 235 235
218 194 155
238 214 175
238 214 175
218 194 155
218 194 155
198 174 135
198 174 135
198 174 135
218 194 155
238 214 175
238 214 175
177 177 177
173 173 173
177 177 177
170 170 170
65 105 225
65 105 225
65 105 225
152 152 152
166 166 166
177 177 177
177 177 177
173 173 173
177 177 177
170 170 170
177 177 177
173 173 173
170 170 170
218 194 155
173 173 173
162 162 162
166 166 166
152 152 152
144 144 144
173 173 173
65 105 225
65 105 225
65 105 225
58 58 58
112 112 112
137 137 137
87 87 87
65 105 225
65 105 225
65 105 225
0 0 0
98 98 98
166 166 166
162 162 162
137 137 137
155 155 155
152 152 152
177 177 177
170 170 170
162 162 162
166 166 166
166 166 166
166 166 166
155 155 155
173 173 173
177 177 177
235 235 235
218 194 155
218 194 155
238 214 175
238 214 175
218 194 155
198 174 135
178 154 115
178 154 115
198 174 135
218 194 155
238 214 175
238 214 175
238 214 175
238 214 175
238 214 175
177 177 177
177 177 177
159 159 159
65 105 225
65 105 225
177 177 177
177 177 177
177 177 177
238 214 175
177 177 177
218 194 155
177 177 177
177 177 177
218 194 155
218 194 155
218 194 155
177 177 177
65 105 225
65 105 225
148 148 148
177 177 177
148 148 148
65 105 225
65 105 225
90 90 90
90 90 90
137 137 137
137 137 137
76 76 76
0 0 0
0 0 0
0 0 0
72 72 72
126 126 126
152 152 152
130 130 130
166 166 166
159 159 159
159 159 159
155 155 155
173 173 173
173 173 173
170 170 170
166 166 166
173 173 173
177 177 177
177 177 177
177 177 177
235 235 235
218 194 155
238 214 175
218 194 155
198 174 135
198 174 135
65 105 225
65 105 225
65 105 225
173 173 173
218 194 155
238 214 175
238 214 175
238 214 175
238 214 175
173 173 173
170 170 170
173 173 173
166 166 166
198 174 135
173 173 173
177 177 177
238 214 175
173 173 173
177 177 177
218 194 155
218 194 155
218 194 155
198 174 135
170 170 170
173 173 173
177 177 177
173 173 173
65 105 225
65 105 225
65 105 225
137 137 137
116 116 116
123 123 123
101 101 101
116 116 116
116 116 116
126 126 126
72 72 72
11 11 11
0 0 0
98 98 98
72 72 72
90 90 90
134 134 134
141 141 141
152 152 152
162 162 162
144 144 144
148 148 148
173 173 173
166 166 166
152 152 152
162 162 162
166 166 166
177 177 177
173 173 173
173 173 173
173 173 173
218 194 155
238 214 175
218 194 155
198 174 135
65 105 225
65 105 225
65 105 225
65 105 225
65 105 225
178 154 115
198 174 135
238 214 175
238 214 175
177 177 177
218 194 155
170 170 170
177 177 177
177 177 177
177 177 177
218 194 155
238 214 175
177 177 177
238 214 175
238 214 175
218 194 155
218 194 155
177 177 177
177 177 177
218 194 155
177 177 177
177 177 177
177 177 177
170 170 170
65 105 225
65 105 225
65 105 225
148 148 148
148 148 148
130 130 130
141 141 141
134 134 134
148 148 148
94 94 94
0 0 0
65 105 225
0 0 0
87 87 87
54 54 54
101 101 101
112 112 112
126 126 126
119 119 119
144 144 144
137 137 137
130 130 130
162 162 162
152 152 152
173 173 173
155 155 155
173 173 173
177 177 177
173 173 173
238 214 175
177 177 177
177 177 177
238 214 175
198 174 135
65 105 225
65 105 225
65 105 225
65 105 225
65 105 225
65 105 225
65 105 225
198 174 135
218 194 155
218 194 155
177 177 177
173 173 173
173 173 173
173 173 173
218 194 155
177 177 177
238 214 175
173 173 173
238 214 175
177 177 177
177 177 177
218 194 155
177 177 177
218 194 155
218 194 155
177 177 177
198 174 135
173 173 173
162 162 162
173 173 173
170 170 170
170 170 170
173 173 173
152 152 152
155 155 155
141 141 141
162 162 162
144 144 144
170 170 170
119 119 119
87 87 87
65 105 225
65 105 225
0 0 0
105 105 105
44 44 44
51 51 51
33 33 33
130 130 130
123 123 123
126 126 126
137 137 137
162 162 162
162 162 162
155 155 155
170 170 170
177 177 177
166 166 166
173 173 173
177 177 177
177 177 177
238 214 175
218 194 155
198 174 135
65 105 225
65 105 225
65 105 225
65 105 225
65 105 225
65 105 225
178 154 115
198 174 135
198 174 135
178 154 115
65 105 225
65 105 225
65 105 225
198 174 135
173 173 173
238 214 175
238 214 175
170 170 170
238 214 175
238 214 175
177 177 177
177 177 177
177 177 177
173 173 173
173 173 173
170 170 170
173 173 173
173 173 173
170 170 170
177 177 177
170 170 170
173 173 173
177 177 177
173 173 173
170 170 170
152 152 152
173 173 173
162 162 162
173 173 173
155 155 155
87 87 87
65 105 225
65 105 225
65 105 225
0 0 0
0 0 0
11 11 11
0 0 0
58 58 58
58 58 58
141 141 141
126 126 126
119 119 119
126 126 126
144 144 144
152 152 152
144 144 144
170 170 170
170 170 170
170 170 170
238 214 175
170 170 170
198 174 135
198 174 135
178 154 115
65 105 225
65 105 225
65 105 225
65 105 225
65 105 225
178 154 115
178 154 115
178 154 115
65 105 225
65 105 225
65 105 225
65 105 225
173 173 173
177 177 177
238 214 175
173 173 173
238 214 175
238 214 175
238 214 175
177 177 177
218 194 155
218 194 155
177 177 177
173 173 173
65 105 225
65 105 225
170 170 170
170 170 170
170 170 170
166 166 166
173 173 173
177 177 177
218 194 155
166 166 166
238 214 175
170 170 170
173 173 173
144 144 144
148 148 148
126 126 126
94 94 94
65 105 225
65 105 225
65 105 225
65 105 225
65 105 225
65 105 225
0 0 0
137 137 137
123 123 123
155 155 155
144 144 144
148 148 148
170 170 170
148 148 148
170 170 170
148 148 148
166 166 166
170 170 170
218 194 155
238 214 175
198 174 135
198 174 135
198 174 135
198 174 135
198 174 135
65 105 225
65 105 225
65 105 225
65 105 225
65 105 225
65 105 225
65 105 225
65 105 225
65 105 225
65 105 225
177 177 177
218 194 155
238 214 175
238 214 175
177 177 177
177 177 177
238 214 175
238 214 175
177 177 177
170 170 170
177 177 177
65 105 225
65 105 225
65 105 225
65 105 225
173 173 173
218 194 155
170 170 170
173 173 173
177 177 177
173 173 173
170 170 170
177 177 177
177 177 177
173 173 173
144 144 144
162 162 162
162 162 162
144 144 144
58 58 58
65 105 225
65 105 225
65 105 225
65 105 225
65 105 225
0 0 0
134 134 134
144 144 144
119 119 119
130 130 130
166 166 166
166 166 166
235 235 235
235 235 235
235 235 235
166 166 166
177 177 177
177 177 177
173 173 173
198 174 135
198 174 135
218 194 155
238 214 175
218 194 155
198 174 135
177 177 177
65 105 225
65 105 225
65 105 225
65 105 225
65 105 225
65 105 225
65 105 225
65 105 225
177 177 177
198 174 135
218 194 155
238 214 175
177 177 177
238 214 175
218 194 155
177 177 177
238 214 175
177 177 177
218 194 155
65 105 225
65 105 225
65 105 225
65 105 225
166 166 166
173 173 173
177 177 177
177 177 177
177 177 177
177 177 177
173 173 173
162 162 162
162 162 162
155 155 155
159 159 159
166 166 166
170 170 170
173 173 173
144 144 144
0 0 0
65 105 225
65 105 225
65 105 225
65 105 225
0 0 0
130 130 130
141 141 141
134 134 134
170 170 170
159 159 159
152 152 152
159 159 159
155 155 155
170 170 170
159 159 159
170 170 170
238 214 175
177 177 177
198 174 135
198 174 135
218 194 155
238 214 175
238 214 175
218 194 155
198 174 135
178 154 115
65 105 225
65 105 225
65 105 225
65 105 225
65 105 225
65 105 225
173 173 173
198 174 135
198 174 135
177 177 177
218 194 155
238 214 175
218 194 155
218 194 155
177 177 177
218 194 155
238 214 175
218 194 155
65 105 225
65 105 225
65 105 225
65 105 225
166 166 166
177 177 177
177 177 177
177 177 177
177 177 177
177 177 177
177 177 177
166 166 166
162 162 162
166 166 166
177 177 177
162 162 162
173 173 173
155 155 155
134 134 134
22 22 22
65 105 225
65 105 225
65 105 225
65 105 225
0 0 0
51 51 51
130 130 130
134 134 134
119 119 119
166 166 166
170 170 170
162 162 162
162 162 162
162 162 162
173 173 173
177 177 177
238 214 175
173 173 173
198 174 135
198 174 135
218 194 155
238 214 175
238 214 175
238 214 175
218 194 155
198 174 135
198 174 135
178 154 115
178 154 115
178 154 115
173 173 173
198 174 135
177 177 177
218 194 155
218 194 155
198 174 135
218 194 155
177 177 177
238 214 175
218 194 155
218 194 155
238 214 175
238 214 175
218 194 155
170 170 170
65 105 225
65 105 225
170 170 170
177 177 177
170 170 170
173 173 173
173 173 173
177 177 177
177 177 177
166 166 166
166 166 166
173 173 173
152 152 152
173 173 173
173 173 173
162 162 162
137 137 137
76 76 76
33 33 33
65 105 225
65 105 225
65 105 225
65 105 225
36 36 36
54 54 54
0 0 0
0 0 0
90 90 90
166 166 166
152 152 152
155 155 155
170 170 170
173 173 173
173 173 173
166 166 166
173 173 173
177 177 177
218 194 155
218 194 155
218 194 155
238 214 175
238 214 175
238 214 175
238 214 175
238 214 175
238 214 175
218 194 155
198 174 135
198 174 135
198 174 135
173 173 173
177 177 177
238 214 175
218 194 155
177 177 177
218 194 155
238 214 175
238 214 175
177 177 177
238 214 175
238 214 175
238 214 175
218 194 155
170 170 170
155 155 155
198 174 135
162 162 162
238 214 175
177 177 177
177 177 177
218 194 155
173 173 173
166 166 166
170 170 170
170 170 170
177 177 177
177 177 177
173 173 173
173 173 173
155 155 155
155 155 155
90 90 90
36 36 36
65 105 225
65 105 225
65 105 225
65 105 225
65 105 225
65 105 225
65 105 225
65 105 225
65 105 225
40 40 40
98 98 98
90 90 90
123 123 123
141 141 141
134 134 134
137 137 137
155 155 155
162 162 162
238 214 175
238 214 175
238 214 175
238 214 175
238 214 175
238 214 175
238 214 175
238 214 175
218 194 155
238 214 175
238 214 175
218 194 155
218 194 155
238 214 175
238 214 175
238 214 175
238 214 175
218 194 155
198 174 135
177 177 177
238 214 175
177 177 177
238 214 175
166 166 166
173 173 173
173 173 173
218 194 155
170 170 170
238 214 175
177 177 177
238 214 175
177 177 177
173 173 173
162 162 162
166 166 166
65 105 225
141 141 141
152 152 152
173 173 173
162 162 162
177 177 177
173 173 173
155 155 155
141 141 141
144 144 144
90 90 90
29 29 29
65 105 225
65 105 225
65 105 225
65 105 225
65 105 225
65 105 225
65 105 225
65 105 225
0 0 0
105 105 105
44 44 44
65 105 225
65 105 225
65 105 225
65 105 225
65 105 225
155 155 155
238 214 175
238 214 175
238 214 175
238 214 175
238 214 175
238 214 175
238 214 175
238 214 175
218 194 155
218 194 155
238 214 175
238 214 175
238 214 175
238 214 175
238 214 175
238 214 175
238 214 175
218 194 155
177 177 177
198 174 135
177 177 177
173 173 173
173 173 173
166 166 166
170 170 170
166 166 166
170 170 170
177 177 177
177 177 177
177 177 177
177 177 177
238 214 175
173 173 173
177 177 177
65 105 225
65 105 225
65 105 225
65 105 225
159 159 159
162 162 162
170 170 170
170 170 170
162 162 162
162 162 162
166 166 166
152 152 152
126 126 126
47 47 47
51 51 51
0 0 0
65 105 225
65 105 225
65 105 225
65 105 225
4 4 4
58 58 58
105 105 105
65 65 65
65 105 225
65 105 225
65 105 225
65 105 225
65 105 225
65 105 225
218 194 155
218 194 155
238 214 175
238 214 175
238 214 175
238 214 175
238 214 175
238 214 175
218 194 155
218 194 155
218 194 155
238 214 175
238 214 175
238 214 175
238 214 175
238 214 175
238 214 175
198 174 135
177 177 177
65 105 225
65 105 225
65 105 225
65 105 225
65 105 225
166 166 166
177 177 177
173 173 173
238 214 175
238 214 175
238 214 175
173 173 173
170 170 170
218 194 155
159 159 159
134 134 134
65 105 225
65 105 225
65 105 225
65 105 225
170 170 170
148 148 148
173 173 173
159 159 159
177 177 177
238 214 175
162 162 162
141 141 141
83 83 83
80 80 80
105 105 105
108 108 108
65 105 225
65 105 225
18 18 18
76 76 76
155 155 155
123 123 123
108 108 108
65 105 225
65 105 225
65 105 225
65 105 225
65 105 225
65 105 225
238 214 175
238 214 175
238 214 175
238 214 175
238 214 175
218 194 155
218 194 155
238 214 175
238 214 175
218 194 155
218 194 155
218 194 155
218 194 155
218 194 155
238 214 175
238 214 175
177 177 177
178 154 115
65 105 225
65 105 225
65 105 225
65 105 225
65 105 225
65 105 225
148 148 148
159 159 159
238 214 175
177 177 177
177 177 177
173 173 173
166 166 166
173 173 173
166 166 166
170 170 170
141 141 141
166 166 166
65 105 225
65 105 225
65 105 225
134 134 134
155 155 155
170 170 170
238 214 175
152 152 152
159 159 159
159 159 159
173 173 173
148 148 148
134 134 134
170 170 170
144 144 144
87 87 87
18 18 18
87 87 87
105 105 105
98 98 98
108 108 108
40 40 40
80 80 80
65 105 225
65 105 225
65 105 225
65 105 225
65 105 225
238 214 175
238 214 175
238 214 175
238 214 175
238 214 175
238 214 175
238 214 175
238 214 175
238 214 175
218 194 155
235 235 235
235 235 235
218 194 155
238 214 175
238 214 175
218 194 155
198 174 135
178 154 115
65 105 225
65 105 225
65 105 225
65 105 225
65 105 225
65 105 225
130 130 130
170 170 170
177 177 177
170 170 170
177 177 177
170 170 170
170 170 170
173 173 173
177 177 177
173 173 173
162 162 162
162 162 162
148 148 148
65 105 225
65 105 225
152 152 152
159 159 159
177 177 177
166 166 166
162 162 162
159 159 159
177 177 177
159 159 159
170 170 170
162 162 162
166 166 166
137 137 137
119 119 119
36 36 36
72 72 72
33 33 33
36 36 36
72 72 72
65 65 65
76 76 76
116 116 116
119 119 119
65 105 225
65 105 225
65 105 225
218 194 155
218 194 155
218 194 155
238 214 175
238 214 175
238 214 175
238 214 175
238 214 175
218 194 155
235 235 235
235 235 235
235 235 235
218 194 155
238 214 175
238 214 175
218 194 155
218 194 155
198 174 135
177 177 177
65 105 225
65 105 225
65 105 225
65 105 225
65 105 225
116 116 116
148 148 148
177 177 177
177 177 177
162 162 162
166 166 166
162 162 162
170 170 170
173 173 173
173 173 173
155 155 155
137 137 137
105 105 105
65 105 225
65 105 225
144 144 144
166 166 166
177 177 177
148 148 148
235 235 235
235 235 235
159 159 159
155 155 155
162 162 162
170 170 170
152 152 152
130 130 130
98 98 98
58 58 58
65 105 225
65 105 225
65 105 225
65 105 225
65 105 225
65 105 225
83 83 83
116 116 116
65 105 225
65 105 225
65 105 225
218 194 155
218 194 155
238 214 175
238 214 175
235 235 235
218 194 155
218 194 155
238 214 175
218 194 155
235 235 235
235 235 235
218 194 155
238 214 175
238 214 175
218 194 155
218 194 155
218 194 155
218 194 155
218 194 155
177 177 177
162 162 162
65 105 225
65 105 225
126 126 126
130 130 130
137 137 137
159 159 159
173 173 173
152 152 152
235 235 235
235 235 235
170 170 170
170 170 170
170 170 170
148 148 148
112 112 112
65 105 225
65 105 225
65 105 225
155 155 155
170 170 170
162 162 162
235 235 235
235 235 235
235 235 235
235 235 235
155 155 155
159 159 159
170 170 170
173 173 173
166 166 166
148 148 148
40 40 40
65 105 225
65 105 225
65 105 225
65 105 225
65 105 225
65 105 225
65 105 225
65 105 225
65 105 225
65 105 225
162 162 162
238 214 175
238 214 175
238 214 175
218 194 155
235 235 235
218 194 155
218 194 155
238 214 175
218 194 155
218 194 155
218 194 155
238 214 175
238 214 175
218 194 155
218 194 155
218 194 155
238 214 175
238 214 175
177 177 177
177 177 177
177 177 177
173 173 173
162 162 162
155 155 155
173 173 173
177 177 177
170 170 170
162 162 162
170 170 170
155 155 155
235 235 235
166 166 166
162 162 162
159 159 159
155 155 155
65 105 225
65 105 225
65 105 225
65 105 225
152 152 152
238 214 175
177 177 177
235 235 235
235 235 235
235 235 235
235 235 235
235 235 235
134 134 134
170 170 170
155 155 155
162 162 162
144 144 144
26 26 26
65 105 225
65 105 225
65 105 225
65 105 225
65 105 225
65 105 225
65 105 225
65 105 225
65 105 225
166 166 166
177 177 177
238 214 175
238 214 175
238 214 175
218 194 155
218 194 155
238 214 175
238 214 175
238 214 175
238 214 175
218 194 155
238 214 175
238 214 175
218 194 155
218 194 155
218 194 155
238 214 175
238 214 175
238 214 175
177 177 177
173 173 173
198 174 135
177 177 177
173 173 173
166 166 166
173 173 173
144 144 144
137 137 137
134 134 134
159 159 159
173 173 173
173 173 173
170 170 170
177 177 177
159 159 159
87 87 87
65 105 225
65 105 225
65 105 225
90 90 90
148 148 148
173 173 173
170 170 170
162 162 162
166 166 166
148 148 148
152 152 152
152 152 152
177 177 177
159 159 159
162 162 162
170 170 170
130 130 130
108 108 108
65 105 225
65 105 225
65 105 225
65 105 225
65 105 225
65 105 225
65 105 225
65 105 225
159 159 159
148 148 148
148 148 148
238 214 175
238 214 175
238 214 175
238 214 175
238 214 175
238 214 175
218 194 155
218 194 155
238 214 175
238 214 175
238 214 175
238 214 175
218 194 155
218 194 155
238 214 175
238 214 175
238 214 175
177 177 177
238 214 175
177 177 177
177 177 177
170 170 170
173 173 173
177 177 177
177 177 177
170 170 170
177 177 177
137 137 137
137 137 137
170 170 170
166 166 166
162 162 162
166 166 166
144 144 144
108 108 108
72 72 72
94 94 94
87 87 87
141 141 141
159 159 159
173 173 173
155 155 155
155 155 155
159 159 159
166 166 166
159 159 159
162 162 162
148 148 148
144 144 144
148 148 148
137 137 137
152 152 152
105 105 105
58 58 58
65 105 225
65 105 225
65 105 225
65 105 225
65 105 225
108 108 108
123 123 123
159 159 159
166 166 166
65 105 225
238 214 175
238 214 175
238 214 175
238 214 175
218 194 155
218 194 155
198 174 135
218 194 155
238 214 175
238 214 175
238 214 175
238 214 175
238 214 175
238 214 175
238 214 175
238 214 175
238 214 175
177 177 177
177 177 177
238 214 175
177 177 177
238 214 175
177 177 177
173 173 173
170 170 170
170 170 170
159 159 159
137 137 137
159 159 159
155 155 155
166 166 166
152 152 152
162 162 162
152 152 152
141 141 141
152 152 152
119 119 119
148 148 148
173 173 173
166 166 166
155 155 155
235 235 235
235 235 235
148 148 148
170 170 170
134 134 134
123 123 123
98 98 98
141 141 141
148 148 148
141 141 141
144 144 144
123 123 123
126 126 126
83 83 83
65 105 225
65 105 225
112 112 112
166 166 166
159 159 159
159 159 159
173 173 173
159 159 159
65 105 225
238 214 175
238 214 175
238 214 175
238 214 175
218 194 155
218 194 155
198 174 135
198 174 135
218 194 155
238 214 175
238 214 175
238 214 175
238 214 175
238 214 175
238 214 175
238 214 175
238 214 175
238 214 175
238 214 175
238 214 175
173 173 173
238 214 175
173 173 173
162 162 162
170 170 170
177 177 177
238 214 175
152 152 152
159 159 159
130 130 130
134 134 134
144 144 144
159 159 159
126 126 126
126 126 126
141 141 141
144 144 144
173 173 173
170 170 170
152 152 152
235 235 235
235 235 235
235 235 235
170 170 170
141 141 141
101 101 101
58 58 58
26 26 26
101 101 101
137 137 137
137 137 137
152 152 152
137 137 137
155 155 155
105 105 105
144 144 144
119 119 119
155 155 155
170 170 170
173 173 173
170 170 170
148 148 148
65 105 225
65 105 225
238 214 175
238 214 175
238 214 175
238 214 175
238 214 175
218 194 155
198 174 135
178 154 115
178 154 115
198 174 135
218 194 155
238 214 175
238 214 175
238 214 175
238 214 175
238 214 175
218 194 155
218 194 155
238 214 175
238 214 175
238 214 175
177 177 177
170 170 170
177 177 177
173 173 173
173 173 173
173 173 173
173 173 173
166 166 166
155 155 155
144 144 144
155 155 155
159 159 159
173 173 173
173 173 173
148 148 148
170 170 170
177 177 177
162 162 162
235 235 235
235 235 235
235 235 235
235 235 235
162 162 162
69 69 69
65 105 225
65 105 225
65 105 225
80 80 80
152 152 152
137 137 137
130 130 130
123 123 123
141 141 141
144 144 144
126 126 126
159 159 159
173 173 173
170 170 170
170 170 170
173 173 173
173 173 173
166 166 166
65 105 225
218 194 155
218 194 155
238 214 175
238 214 175
238 214 175
218 194 155
178 154 115
65 105 225
65 105 225
65 105 225
178 154 115
198 174 135
218 194 155
218 194 155
218 194 155
177 177 177
218 194 155
218 194 155
238 214 175
218 194 155
235 235 235
170 170 170
177 177 177
238 214 175
177 177 177
173 173 173
162 162 162
155 155 155
152 152 152
152 152 152
130 130 130
170 170 170
166 166 166
166 166 166
170 170 170
166 166 166
173 173 173
155 155 155
148 148 148
235 235 235
235 235 235
235 235 235
144 144 144
123 123 123
26 26 26
65 105 225
65 105 225
65 105 225
94 94 94
98 98 98
134 134 134
134 134 134
137 137 137
170 170 170
166 166 166
177 177 177
177 177 177
155 155 155
235 235 235
173 173 173
173 173 173
177 177 177
159 159 159
155 155 155
218 194 155
238 214 175
238 214 175
238 214 175
218 194 155
198 174 135
65 105 225
65 105 225
65 105 225
65 105 225
65 105 225
178 154 115
198 174 135
198 174 135
218 194 155
218 194 155
238 214 175
238 214 175
218 194 155
235 235 235
235 235 235
173 173 173
173 173 173
173 173 173
162 162 162
148 148 148
130 130 130
119 119 119
83 83 83
141 141 141
162 162 162
173 173 173
162 162 162
159 159 159
155 155 155
170 170 170
134 134 134
148 148 148
235 235 235
235 235 235
123 123 123
141 141 141
130 130 130
69 69 69
65 105 225
65 105 225
65 105 225
65 105 225
0 0 0
112 112 112
101 101 101
130 130 130
144 144 144
162 162 162
166 166 166
148 148 148
148 148 148
235 235 235
235 235 235
170 170 170
177 177 177
177 177 177
177 177 177
173 173 173
218 194 155
238 214 175
238 214 175
198 174 135
198 174 135
65 105 225
65 105 225
65 105 225
65 105 225
65 105 225
65 105 225
65 105 225
178 154 115
198 174 135
218 194 155
238 214 175
238 214 175
218 194 155
235 235 235
235 235 235
235 235 235
177 177 177
238 214 175
173 173 173
166 166 166
65 105 225
65 105 225
65 105 225
65 105 225
116 116 116
141 141 141
173 173 173
177 177 177
152 152 152
152 152 152
162 162 162
235 235 235
235 235 235
141 141 141
116 116 116
134 134 134
170 170 170
159 159 159
58 58 58
65 105 225
65 105 225
65 105 225
65 105 225
65 105 225
58 58 58
94 94 94
116 116 116
98 98 98
101 101 101
155 155 155
162 162 162
159 159 159
152 152 152
166 166 166
238 214 175
166 166 166
170 170 170
177 177 177
170 170 170
238 214 175
238 214 175
218 194 155
198 174 135
178 154 115
65 105 225
65 105 225
65 105 225
65 105 225
65 105 225
65 105 225
65 105 225
178 154 115
198 174 135
238 214 175
238 214 175
218 194 155
235 235 235
235 235 235
235 235 235
218 194 155
177 177 177
177 177 177
166 166 166
65 105 225
65 105 225
65 105 225
65 105 225
65 105 225
65 105 225
101 101 101
155 155 155
173 173 173
155 155 155
134 134 134
144 144 144
130 130 130
130 130 130
155 155 155
166 166 166
166 166 166
166 166 166
112 112 112
22 22 22
65 105 225
65 105 225
65 105 225
65 105 225
65 105 225
26 26 26
123 123 123
112 112 112
108 108 108
90 90 90
130 130 130
116 116 116
162 162 162
162 162 162
162 162 162
170 170 170
170 170 170
177 177 177
238 214 175
238 214 175
238 214 175
238 214 175
238 214 175
218 194 155
198 174 135
198 174 135
65 105 225
65 105 225
65 105 225
65 105 225
178 154 115
178 154 115
178 154 115
198 174 135
238 214 175
218 194 155
235 235 235
235 235 235
235 235 235
218 194 155
177 177 177
218 194 155
166 166 166
170 170 170
159 159 159
65 105 225
65 105 225
65 105 225
65 105 225
65 105 225
65 105 225
108 108 108
173 173 173
162 162 162
148 148 148
152 152 152
162 162 162
155 155 155
141 141 141
126 126 126
105 105 105
51 51 51
65 65 65
15 15 15
65 105 225
65 105 225
65 105 225
65 105 225
65 105 225
0 0 0
0 0 0
108 108 108
26 26 26
44 44 44
40 40 40
83 83 83
134 134 134
148 148 148
162 162 162
170 170 170
170 170 170
173 173 173
177 177 177
177 177 177
238 214 175
238 214 175
238 214 175
238 214 175
238 214 175
218 194 155
198 174 135
198 174 135
198 174 135
218 194 155
218 194 155
218 194 155
198 174 135
218 194 155
238 214 175
238 214 175
218 194 155
218 194 155
218 194 155
238 214 175
238 214 175
177 177 177
170 170 170
155 155 155
152 152 152
65 105 225
65 105 225
65 105 225
65 105 225
65 105 225
72 72 72
152 152 152
170 170 170
148 148 148
155 155 155
130 130 130
238 214 175
94 94 94
119 119 119
33 33 33
40 40 40
58 58 58
4 4 4
0 0 0
65 105 225
65 105 225
65 105 225
65 105 225
65 105 225
0 0 0
4 4 4
29 29 29
29 29 29
62 62 62
54 54 54
62 62 62
155 155 155
155 155 155
162 162 162
144 144 144
159 159 159
235 235 235
170 170 170
170 170 170
218 194 155
238 214 175
238 214 175
218 194 155
218 194 155
238 214 175
238 214 175
238 214 175
238 214 175
238 214 175
238 214 175
238 214 175
218 194 155
218 194 155
238 214 175
238 214 175
238 214 175
238 214 175
238 214 175
238 214 175
177 177 177
238 214 175
162 162 162
177 177 177
170 170 170
152 152 152
65 105 225
65 105 225
65 105 225
65 105 225
144 144 144
137 137 137
177 177 177
235 235 235
144 144 144
152 152 152
173 173 173
116 116 116
87 87 87
11 11 11
0 0 0
0 0 0
4 4 4
65 105 225
65 105 225
65 105 225
0 0 0
18 18 18
0 0 0
80 80 80
83 83 83
101 101 101
0 0 0
15 15 15
18 18 18
76 76 76
155 155 155
159 159 159
162 162 162
162 162 162
162 162 162
235 235 235
170 170 170
238 214 175
198 174 135
218 194 155
238 214 175
218 194 155
218 194 155
218 194 155
218 194 155
218 194 155
235 235 235
235 235 235
235 235 235
238 214 175
238 214 175
238 214 175
177 177 177
238 214 175
238 214 175
238 214 175
238 214 175
238 214 175
238 214 175
238 214 175
238 214 175
238 214 175
170 170 170
148 148 148
65 105 225
65 105 225
65 105 225
116 116 116
155 155 155
173 173 173
155 155 155
148 148 148
130 130 130
159 159 159
112 112 112
69 69 69
65 65 65
11 11 11
98 98 98
72 72 72
0 0 0
0 0 0
65 105 225
0 0 0
0 0 0
80 80 80
141 141 141
152 152 152
137 137 137
162 162 162
108 108 108
11 11 11
18 18 18
8 8 8
123 123 123
155 155 155
166 166 166
159 159 159
152 152 152
159 159 159
173 173 173
173 173 173
65 105 225
178 154 115
218 194 155
238 214 175
218 194 155
218 194 155
218 194 155
235 235 235
235 235 235
235 235 235
235 235 235
218 194 155
238 214 175
238 214 175
238 214 175
218 194 155
198 174 135
177 177 177
198 174 135
218 194 155
238 214 175
177 177 177
177 177 177
238 214 175
177 177 177
166 166 166
65 105 225
65 105 225
65 105 225
162 162 162
162 162 162
173 173 173
162 162 162
166 166 166
162 162 162
130 130 130
69 69 69
0 0 0
65 65 65
130 130 130
134 134 134
144 144 144
90 90 90
0 0 0
51 51 51
26 26 26
119 119 119
130 130 130
101 101 101
87 87 87
76 76 76
144 144 144
126 126 126
112 112 112
33 33 33
44 44 44
87 87 87
119 119 119
159 159 159
177 177 177
159 159 159
173 173 173
173 173 173
177 177 177
65 105 225
65 105 225
178 154 115
218 194 155
238 214 175
238 214 175
218 194 155
235 235 235
235 235 235
235 235 235
218 194 155
238 214 175
238 214 175
238 214 175
238 214 175
218 194 155
178 154 115
65 105 225
65 105 225
173 173 173
177 177 177
177 177 177
173 173 173
155 155 155
177 177 177
144 144 144
148 148 148
134 134 134
144 144 144
159 159 159
170 170 170
166 166 166
166 166 166
166 166 166
152 152 152
101 101 101
0 0 0
65 105 225
58 58 58
98 98 98
130 130 130
152 152 152
148 148 148
87 87 87
119 119 119
80 80 80
148 148 148
105 105 105
235 235 235
235 235 235
101 101 101
130 130 130
130 130 130
108 108 108
80 80 80
0 0 0
0 0 0
69 69 69
159 159 159
173 173 173
170 170 170
177 177 177
166 166 166
166 166 166
65 105 225
65 105 225
65 105 225
198 174 135
218 194 155
238 214 175
238 214 175
218 194 155
218 194 155
218 194 155
238 214 175
238 214 175
218 194 155
218 194 155
218 194 155
198 174 135
65 105 225
65 105 225
65 105 225
65 105 225
65 105 225
170 170 170
198 174 135
148 148 148
159 159 159
162 162 162
173 173 173
173 173 173
159 159 159
173 173 173
170 170 170
173 173 173
166 166 166
148 148 148
90 90 90
0 0 0
0 0 0
29 29 29
40 40 40
126 126 126
130 130 130
166 166 166
137 137 137
144 144 144
148 148 148
148 148 148
105 105 105
235 235 235
235 235 235
235 235 235
141 141 141
123 123 123
159 159 159
116 116 116
44 44 44
65 105 225
65 105 225
65 65 65
159 159 159
166 166 166
166 166 166
173 173 173
170 170 170
173 173 173
65 105 225
65 105 225
65 105 225
65 105 225
218 194 155
238 214 175
238 214 175
238 214 175
238 214 175
238 214 175
218 194 155
218 194 155
198 174 135
198 174 135
198 174 135
198 174 135
65 105 225
65 105 225
65 105 225
65 105 225
65 105 225
65 105 225
65 105 225
65 105 225
65 105 225
65 105 225
152 152 152
159 159 159
173 173 173
173 173 173
177 177 177
177 177 177
134 134 134
159 159 159
76 76 76
105 105 105
80 80 80
94 94 94
87 87 87
144 144 144
144 144 144
141 141 141
144 144 144
155 155 155
152 152 152
123 123 123
123 123 123
235 235 235
235 235 235
235 235 235
123 123 123
105 105 105
144 144 144
155 155 155
65 105 225
65 105 225
65 105 225
4 4 4
144 144 144
170 170 170
170 170 170
170 170 170
177 177 177
162 162 162
65 105 225
65 105 225
65 105 225
65 105 225
198 174 135
218 194 155
218 194 155
218 194 155
218 194 155
218 194 155
218 194 155
198 174 135
198 174 135
198 174 135
198 174 135
178 154 115
65 105 225
65 105 225
65 105 225
65 105 225
65 105 225
65 105 225
65 105 225
65 105 225
65 105 225
65 105 225
65 105 225
159 159 159
173 173 173
173 173 173
238 214 175
170 170 170
166 166 166
123 123 123
130 130 130
87 87 87
116 116 116
116 116 116
116 116 116
144 144 144
148 148 148
141 141 141
155 155 155
170 170 170
162 162 162
177 177 177
123 123 123
235 235 235
235 235 235
235 235 235
108 108 108
155 155 155
152 152 152
108 108 108
65 105 225
65 105 225
65 105 225
33 33 33
141 141 141
173 173 173
162 162 162
166 166 166
177 177 177
177 177 177
65 105 225
65 105 225
65 105 225
65 105 225
178 154 115
198 174 135
198 174 135
198 174 135
198 174 135
218 194 155
218 194 155
218 194 155
198 174 135
198 174 135
198 174 135
178 154 115
65 105 225
65 105 225
65 105 225
65 105 225
170 170 170
162 162 162
159 159 159
65 105 225
65 105 225
65 105 225
65 105 225
152 152 152
170 170 170
173 173 173
162 162 162
159 159 159
152 152 152
101 101 101
116 116 116
94 94 94
98 98 98
90 90 90
137 137 137
159 159 159
155 155 155
177 177 177
170 170 170
166 166 166
162 162 162
141 141 141
159 159 159
162 162 162
155 155 155
134 134 134
141 141 141
144 144 144
126 126 126
0 0 0
65 105 225
65 105 225
65 105 225
105 105 105
166 166 166
173 173 173
173 173 173
173 173 173
238 214 175
177 177 177
65 105 225
65 105 225
65 105 225
65 105 225
65 105 225
178 154 115
198 174 135
198 174 135
198 174 135
198 174 135
218 194 155
218 194 155
218 194 155
218 194 155
218 194 155
198 174 135
198 174 135
198 174 135
177 177 177
177 177 177
177 177 177
170 170 170
177 177 177
177 177 177
65 105 225
65 105 225
152 152 152
162 162 162
166 166 166
173 173 173
170 170 170
155 155 155
166 166 166
155 155 155
162 162 162
134 134 134
112 112 112
101 101 101
166 166 166
170 170 170
148 148 148
173 173 173
152 152 152
170 170 170
162 162 162
166 166 166
152 152 152
173 173 173
144 144 144
155 155 155
177 177 177
159 159 159
116 116 116
8 8 8
65 105 225
65 105 225
83 83 83
162 162 162
170 170 170
159 159 159
162 162 162
170 170 170
218 194 155
166 166 166
218 194 155
198 174 135
198 174 135
65 105 225
65 105 225
65 105 225
178 154 115
178 154 115
178 154 115
198 174 135
218 194 155
238 214 175
238 214 175
238 214 175
238 214 175
238 214 175
177 177 177
238 214 175
238 214 175
238 214 175
238 214 175
218 194 155
170 170 170
170 170 170
159 159 159
152 152 152
159 159 159
170 170 170
177 177 177
159 159 159
170 170 170
238 214 175
170 170 170
162 162 162
148 148 148
116 116 116
123 123 123
141 141 141
144 144 144
170 170 170
162 162 162
162 162 162
159 159 159
177 177 177
170 170 170
152 152 152
159 159 159
134 134 134
170 170 170
155 155 155
170 170 170
166 166 166
155 155 155
105 105 105
105 105 105
119 119 119
119 119 119
159 159 159
173 173 173
235 235 235
235 235 235
235 235 235
218 194 155
177 177 177
238 214 175
218 194 155
198 174 135
178 154 115
65 105 225
178 154 115
198 174 135
198 174 135
178 154 115
178 154 115
198 174 135
218 194 155
177 177 177
218 194 155
218 194 155
238 214 175
238 214 175
218 194 155
235 235 235
218 194 155
238 214 175
177 177 177
170 170 170
170 170 170
170 170 170
159 159 159
162 162 162
162 162 162
177 177 177
173 173 173
177 177 177
170 170 170
173 173 173
177 177 177
177 177 177
144 144 144
119 119 119
141 141 141
141 141 141
238 214 175
173 173 173
177 177 177
177 177 177
177 177 177
177 177 177
162 162 162
159 159 159
123 123 123
152 152 152
166 166 166
170 170 170
173 173 173
155 155 155
126 126 126
105 105 105
173 173 173
144 144 144
177 177 177
155 155 155
235 235 235
235 235 235
235 235 235
177 177 177
173 173 173
238 214 175
238 214 175
218 194 155
178 154 115
178 154 115
198 174 135
198 174 135
198 174 135
178 154 115
65 105 225
178 154 115
218 194 155
238 214 175
218 194 155
218 194 155
218 194 155
235 235 235
235 235 235
235 235 235
235 235 235
177 177 177
218 194 155
170 170 170
65 105 225
65 105 225
65 105 225
159 159 159
177 177 177
170 170 170
177 177 177
238 214 175
238 214 175
238 214 175
170 170 170
137 137 137
80 80 80
65 105 225
105 105 105
159 159 159
166 166 166
170 170 170
177 177 177
177 177 177
238 214 175
238 214 175
155 155 155
144 144 144
152 152 152
155 155 155
166 166 166
170 170 170
173 173 173
162 162 162
166 166 166
152 152 152
159 159 159
170 170 170
173 173 173
173 173 173
235 235 235
235 235 235
173 173 173
238 214 175
177 177 177
218 194 155
238 214 175
218 194 155
198 174 135
198 174 135
198 174 135
218 194 155
218 194 155
178 154 115
65 105 225
65 105 225
198 174 135
238 214 175
238 214 175
218 194 155
218 194 155
235 235 235
235 235 235
235 235 235
235 235 235
238 214 175
177 177 177
177 177 177
65 105 225
65 105 225
65 105 225
173 173 173
173 173 173
177 177 177
177 177 177
177 177 177
177 177 177
170 170 170
177 177 177
123 123 123
65 105 225
65 105 225
65 105 225
137 137 137
141 141 141
148 148 148
162 162 162
170 170 170
170 170 170
170 170 170
218 194 155
155 155 155
119 119 119
141 141 141
238 214 175
173 173 173
166 166 166
177 177 177
144 144 144
159 159 159
173 173 173
173 173 173
173 173 173
177 177 177
235 235 235
177 177 177
177 177 177
218 194 155
166 166 166
235 235 235
218 194 155
238 214 175
218 194 155
218 194 155
218 194 155
218 194 155
218 194 155
198 174 135
65 105 225
65 105 225
178 154 115
218 194 155
238 214 175
238 214 175
238 214 175
218 194 155
218 194 155
173 173 173
218 194 155
177 177 177
238 214 175
178 154 115
65 105 225
65 105 225
65 105 225
177 177 177
173 173 173
238 214 175
238 214 175
177 177 177
238 214 175
238 214 175
170 170 170
65 105 225
65 105 225
65 105 225
65 105 225
65 105 225
65 105 225
65 105 225
162 162 162
166 166 166
177 177 177
173 173 173
155 155 155
123 123 123
65 105 225
162 162 162
173 173 173
170 170 170
170 170 170
173 173 173
162 162 162
173 173 173
177 177 177
177 177 177
177 177 177
162 162 162
177 177 177
177 177 177
173 173 173
177 177 177
65 105 225
235 235 235
235 235 235
238 214 175
218 194 155
218 194 155
218 194 155
218 194 155
218 194 155
198 174 135
65 105 225
65 105 225
65 105 225
178 154 115
218 194 155
238 214 175
238 214 175
238 214 175
238 214 175
238 214 175
218 194 155
238 214 175
177 177 177
198 174 135
65 105 225
65 105 225
170 170 170
218 194 155
177 177 177
177 177 177
238 214 175
238 214 175
173 173 173
173 173 173
155 155 155
65 105 225
65 105 225
65 105 225
155 155 155
141 141 141
65 105 225
65 105 225
65 105 225
159 159 159
162 162 162
173 173 173
155 155 155
65 105 225
65 105 225
141 141 141
170 170 170
177 177 177
170 170 170
166 166 166
162 162 162
177 177 177
177 177 177
177 177 177
173 173 173
173 173 173
173 173 173
177 177 177
170 170 170
65 105 225
65 105 225
235 235 235
235 235 235
238 214 175
218 194 155
198 174 135
198 174 135
198 174 135
198 174 135
198 174 135
178 154 115
65 105 225
65 105 225
65 105 225
198 174 135
218 194 155
218 194 155
218 194 155
177 177 177
238 214 175
238 214 175
238 214 175
238 214 175
177 177 177
177 177 177
177 177 177
177 177 177
218 194 155
238 214 175
177 177 177
173 173 173
238 214 175
177 177 177
170 170 170
65 105 225
65 105 225
65 105 225
65 105 225
159 159 159
170 170 170
162 162 162
65 105 225
65 105 225
65 105 225
173 173 173
173 173 173
65 105 225
65 105 225
65 105 225
166 166 166
173 173 173
170 170 170
177 177 177
177 177 177
170 170 170
177 177 177
177 177 177
177 177 177
173 173 173
238 214 175
238 214 175
170 170 170
198 174 135
65 105 225
65 105 225
